<svg width="27" height="28" viewBox="0 0 27 28" fill="none" xmlns="http://www.w3.org/2000/svg">
<path fill-rule="evenodd" clip-rule="evenodd" d="M13.5 0.5C6.04416 0.5 0 6.54416 0 14C0 21.4557 6.04416 27.5 13.5 27.5C20.9559 27.5 26.9999 21.4557 26.9999 14C26.9999 6.54416 20.9559 0.5 13.5 0.5ZM1.93649 14C1.93649 7.61365 7.11365 2.43647 13.5 2.43647C19.8863 2.43647 25.0635 7.61365 25.0635 14C25.0635 20.3864 19.8863 25.5635 13.5 25.5635C7.11365 25.5635 1.93649 20.3864 1.93649 14ZM18.9201 10.0004C19.244 9.54005 19.1335 8.90427 18.6733 8.58033C18.2129 8.25638 17.5771 8.36697 17.2531 8.8273L11.5021 16.9999L9.13151 14.5854C8.73714 14.1838 8.09184 14.1778 7.6902 14.5722C7.28853 14.9665 7.28262 15.6118 7.67699 16.0135L10.9045 19.3007C11.1164 19.5166 11.4132 19.6271 11.7147 19.6024C12.0162 19.5779 12.2911 19.4206 12.4652 19.1731L18.9201 10.0004Z" fill="#25AAE6"/>
</svg>
