<svg width="30" height="30" viewBox="0 0 30 30" fill="none" xmlns="http://www.w3.org/2000/svg">
<path fill-rule="evenodd" clip-rule="evenodd" d="M8.33131 5.51211L4.2276 7.56397L15.0268 13.4136L19.1305 11.3617L8.33131 5.51211ZM2.34375 9.74215V20.625C2.34375 21.1576 2.64469 21.6446 3.12111 21.8828L13.6169 27.1307C13.6016 27.0478 13.5937 26.9623 13.5937 26.875V15.8359L2.34375 9.74215ZM16.383 27.1307L26.8789 21.8828C27.3553 21.6446 27.6563 21.1576 27.6563 20.625V10.2433L23.2809 12.431V15.6238C23.2809 16.4004 22.6513 17.03 21.8746 17.03C21.098 17.03 20.4684 16.4004 20.4684 15.6238V13.8373L16.4062 15.8683V26.875C16.4062 26.9623 16.3982 27.0478 16.383 27.1307ZM26.2492 7.80237L15.6289 2.49221C15.233 2.29426 14.767 2.29426 14.3711 2.49221L11.402 3.97678L22.2012 9.82637L26.2492 7.80237Z" fill="#25AAE6"/>
</svg>
