<svg width="25" height="25" viewBox="0 0 25 25" fill="none" xmlns="http://www.w3.org/2000/svg">
<path fill-rule="evenodd" clip-rule="evenodd" d="M18.2329 0C17.7029 0 17.2732 0.4305 17.2732 0.961538C17.2732 1.49258 16.8427 1.92308 16.3117 1.92308L8.63859 1.92308C8.10754 1.92308 7.67705 1.49258 7.67705 0.961538C7.67705 0.4305 7.24733 0 6.71743 0C6.18753 0 5.75781 0.4305 5.75781 0.961538C5.75781 1.49258 5.32731 1.92308 4.79627 1.92308L2.87895 1.92308C1.28905 1.92308 9.53674e-05 3.21456 9.53674e-05 4.80769L9.53674e-05 22.1154C9.53674e-05 23.7085 1.28905 25 2.87895 25L22.0713 25C23.6613 25 24.9502 23.7085 24.9502 22.1154L24.9502 4.80769C24.9502 3.21456 23.6613 1.92308 22.0713 1.92308L20.154 1.92308C19.623 1.92308 19.1925 1.49258 19.1925 0.961538C19.1925 0.4305 18.7628 0 18.2329 0ZM8.63859 3.84615C8.10754 3.84615 7.67705 4.27665 7.67705 4.80769C7.67705 5.33873 7.24733 5.76923 6.71743 5.76923C6.18753 5.76923 5.75781 5.33873 5.75781 4.80769C5.75781 4.27665 5.32731 3.84615 4.79627 3.84615H2.87895C2.34905 3.84615 1.91933 4.27665 1.91933 4.80769V6.69231C1.91933 7.24459 2.36705 7.69231 2.91933 7.69231L22.031 7.69231C22.5832 7.69231 23.031 7.24459 23.031 6.69231V4.80769C23.031 4.27665 22.6013 3.84615 22.0713 3.84615H20.154C19.623 3.84615 19.1925 4.27665 19.1925 4.80769C19.1925 5.33873 18.7628 5.76923 18.2329 5.76923C17.7029 5.76923 17.2732 5.33873 17.2732 4.80769C17.2732 4.27665 16.8427 3.84615 16.3117 3.84615L8.63859 3.84615ZM22.031 9.61538C22.5832 9.61538 23.031 10.0631 23.031 10.6154L23.031 22.1154C23.031 22.6463 22.6013 23.0769 22.0713 23.0769L2.87895 23.0769C2.34905 23.0769 1.91933 22.6463 1.91933 22.1154L1.91933 10.6154C1.91933 10.0631 2.36705 9.61538 2.91933 9.61538L22.031 9.61538ZM13.4348 12.5C13.4348 11.969 13.0051 11.5385 12.4751 11.5385C11.9452 11.5385 11.5155 11.969 11.5155 12.5C11.5155 13.031 11.9452 13.4615 12.4751 13.4615C13.0051 13.4615 13.4348 13.031 13.4348 12.5ZM8.63667 11.5385C9.16665 11.5385 9.59629 11.969 9.59629 12.5C9.59629 13.031 9.16665 13.4615 8.63667 13.4615C8.10669 13.4615 7.67705 13.031 7.67705 12.5C7.67705 11.969 8.10669 11.5385 8.63667 11.5385ZM17.2732 12.5C17.2732 11.969 16.8435 11.5385 16.3136 11.5385C15.7837 11.5385 15.354 11.969 15.354 12.5C15.354 13.031 15.7837 13.4615 16.3136 13.4615C16.8435 13.4615 17.2732 13.031 17.2732 12.5ZM4.79819 15.3846C5.32809 15.3846 5.75781 15.8151 5.75781 16.3462C5.75781 16.8772 5.32809 17.3077 4.79819 17.3077C4.26829 17.3077 3.83857 16.8772 3.83857 16.3462C3.83857 15.8151 4.26829 15.3846 4.79819 15.3846ZM9.59629 16.3462C9.59629 15.8151 9.16665 15.3846 8.63667 15.3846C8.10669 15.3846 7.67705 15.8151 7.67705 16.3462C7.67705 16.8772 8.10669 17.3077 8.63667 17.3077C9.16665 17.3077 9.59629 16.8772 9.59629 16.3462ZM12.4751 15.3846C13.0051 15.3846 13.4348 15.8151 13.4348 16.3462C13.4348 16.8772 13.0051 17.3077 12.4751 17.3077C11.9452 17.3077 11.5155 16.8772 11.5155 16.3462C11.5155 15.8151 11.9452 15.3846 12.4751 15.3846ZM17.2732 16.3462C17.2732 15.8151 16.8436 15.3846 16.3136 15.3846C15.7836 15.3846 15.354 15.8151 15.354 16.3462C15.354 16.8772 15.7836 17.3077 16.3136 17.3077C16.8436 17.3077 17.2732 16.8772 17.2732 16.3462ZM20.1521 15.3846C20.6821 15.3846 21.1117 15.8151 21.1117 16.3462C21.1117 16.8772 20.6821 17.3077 20.1521 17.3077C19.6221 17.3077 19.1925 16.8772 19.1925 16.3462C19.1925 15.8151 19.6221 15.3846 20.1521 15.3846ZM21.1117 20.1923C21.1117 19.6613 20.6821 19.2308 20.1521 19.2308C19.6221 19.2308 19.1925 19.6613 19.1925 20.1923C19.1925 20.7233 19.6221 21.1538 20.1521 21.1538C20.6821 21.1538 21.1117 20.7233 21.1117 20.1923ZM16.3136 19.2308C16.8436 19.2308 17.2732 19.6613 17.2732 20.1923C17.2732 20.7233 16.8436 21.1538 16.3136 21.1538C15.7836 21.1538 15.354 20.7233 15.354 20.1923C15.354 19.6613 15.7836 19.2308 16.3136 19.2308ZM13.4348 20.1923C13.4348 19.6613 13.0051 19.2308 12.4751 19.2308C11.9452 19.2308 11.5155 19.6613 11.5155 20.1923C11.5155 20.7233 11.9452 21.1538 12.4751 21.1538C13.0051 21.1538 13.4348 20.7233 13.4348 20.1923ZM8.63667 19.2308C9.16665 19.2308 9.59629 19.6613 9.59629 20.1923C9.59629 20.7233 9.16665 21.1538 8.63667 21.1538C8.10669 21.1538 7.67705 20.7233 7.67705 20.1923C7.67705 19.6613 8.10669 19.2308 8.63667 19.2308Z" fill="#25AAE6"/>
</svg>
