<svg width="27" height="21" viewBox="0 0 27 21" fill="none" xmlns="http://www.w3.org/2000/svg">
<path fill-rule="evenodd" clip-rule="evenodd" d="M1.8 4.1C1.8 3.1059 2.6059 2.3 3.6 2.3H23.4C24.3941 2.3 25.2 3.1059 25.2 4.1V16.7C25.2 17.6941 24.3941 18.5 23.4 18.5H3.6C2.6059 18.5 1.8 17.6941 1.8 16.7V4.1ZM3.6 0.5C1.61178 0.5 0 2.11177 0 4.1V16.7C0 18.6883 1.61178 20.3 3.6 20.3H23.4C25.3883 20.3 27 18.6883 27 16.7V4.1C27 2.11177 25.3883 0.5 23.4 0.5H3.6ZM4.05 4.1C3.80147 4.1 3.6 4.30147 3.6 4.55V7.25817C3.6 7.5067 3.80147 7.70817 4.05 7.70817H8.55C8.79853 7.70817 9 7.5067 9 7.25817V4.55C9 4.30147 8.79853 4.1 8.55 4.1H4.05Z" fill="#25AAE6"/>
<path d="M16.8 16.1C20.0033 16.1 22.6 13.5033 22.6 10.3C22.6 7.09675 20.0033 4.5 16.8 4.5C13.5967 4.5 11 7.09675 11 10.3C11 13.5033 13.5967 16.1 16.8 16.1Z" stroke="#25AAE6" stroke-width="6.08619"/>
</svg>
