<svg width="30" height="30" viewBox="0 0 30 30" fill="none" xmlns="http://www.w3.org/2000/svg">
<g clip-path="url(#clip0_2002_4648)">
<path d="M9.61719 23.4043C9.0702 23.4043 8.53549 23.5665 8.08069 23.8704C7.62589 24.1743 7.27141 24.6062 7.06208 25.1116C6.85276 25.6169 6.79799 26.173 6.9047 26.7095C7.01142 27.2459 7.27482 27.7387 7.6616 28.1255C8.04838 28.5123 8.54116 28.7757 9.07764 28.8824C9.61412 28.9891 10.1702 28.9343 10.6755 28.725C11.1809 28.5157 11.6128 28.1612 11.9167 27.7064C12.2206 27.2516 12.3828 26.7169 12.3828 26.1699C12.3818 25.4367 12.0901 24.7339 11.5717 24.2154C11.0532 23.697 10.3504 23.4053 9.61719 23.4043ZM9.61719 27.998C9.25562 27.998 8.90217 27.8908 8.60154 27.69C8.3009 27.4891 8.06659 27.2036 7.92822 26.8695C7.78986 26.5355 7.75365 26.1679 7.82419 25.8133C7.89473 25.4587 8.06884 25.1329 8.32451 24.8772C8.58018 24.6216 8.90592 24.4475 9.26054 24.3769C9.61516 24.3064 9.98274 24.3426 10.3168 24.481C10.6508 24.6193 10.9363 24.8536 11.1372 25.1543C11.3381 25.4549 11.4453 25.8084 11.4453 26.1699C11.4448 26.6547 11.2521 27.1195 10.9094 27.4624C10.5667 27.8053 10.102 27.9982 9.61719 27.999V27.998Z" fill="#25AAE6" stroke="#25AAE6" stroke-width="0.8"/>
<path d="M20.3945 23.4043C19.8475 23.4043 19.3128 23.5665 18.858 23.8704C18.4032 24.1743 18.0488 24.6062 17.8394 25.1116C17.6301 25.6169 17.5753 26.173 17.682 26.7095C17.7888 27.2459 18.0522 27.7387 18.4389 28.1255C18.8257 28.5123 19.3185 28.7757 19.855 28.8824C20.3915 28.9891 20.9475 28.9343 21.4529 28.725C21.9582 28.5157 22.3902 28.1612 22.6941 27.7064C22.998 27.2516 23.1602 26.7169 23.1602 26.1699C23.1592 25.4367 22.8675 24.7339 22.349 24.2154C21.8306 23.697 21.1277 23.4053 20.3945 23.4043ZM20.3945 27.998C20.033 27.998 19.6795 27.8908 19.3789 27.69C19.0782 27.4891 18.8439 27.2036 18.7056 26.8695C18.5672 26.5355 18.531 26.1679 18.6015 25.8133C18.6721 25.4587 18.8462 25.1329 19.1019 24.8772C19.3575 24.6216 19.6833 24.4475 20.0379 24.3769C20.3925 24.3064 20.7601 24.3426 21.0941 24.481C21.4282 24.6193 21.7137 24.8536 21.9146 25.1543C22.1154 25.4549 22.2227 25.8084 22.2227 26.1699C22.2222 26.6547 22.0294 27.1195 21.6867 27.4624C21.344 27.8053 20.8793 27.9982 20.3945 27.999V27.998Z" fill="#25AAE6" stroke="#25AAE6" stroke-width="0.8"/>
<path d="M28.4419 6.13547H27.5044C27.405 5.81153 27.2753 5.49765 27.1172 5.19797L27.7781 4.5375C27.8945 4.42104 27.9598 4.26314 27.9598 4.09852C27.9598 3.93389 27.8945 3.77599 27.7781 3.65953L26.3873 2.26875C26.2692 2.15561 26.1119 2.09245 25.9484 2.09245C25.7848 2.09245 25.6275 2.15561 25.5094 2.26875L24.8484 2.92922C24.5497 2.77121 24.2367 2.64158 23.9137 2.54203V1.60688C23.9139 1.52521 23.8979 1.44432 23.8668 1.36883C23.8356 1.29334 23.7899 1.22473 23.7322 1.16692C23.6745 1.10911 23.606 1.06324 23.5306 1.03191C23.4552 1.00059 23.3743 0.984436 23.2927 0.984375H21.3216C21.1571 0.984623 20.9994 1.0501 20.8832 1.16645C20.7669 1.2828 20.7015 1.44052 20.7014 1.605V2.54156C20.3783 2.64152 20.0653 2.7713 19.7663 2.92922L19.1048 2.26734C18.9866 2.1548 18.8296 2.09203 18.6663 2.09203C18.5031 2.09203 18.3461 2.1548 18.2278 2.26734L16.8333 3.66234C16.7174 3.77889 16.6524 3.93654 16.6524 4.10086C16.6524 4.26518 16.7174 4.42283 16.8333 4.53938L17.4942 5.20031C17.3362 5.5 17.2067 5.81389 17.1075 6.13781H16.1719C16.0073 6.13794 15.8495 6.20336 15.7332 6.31973C15.6168 6.43609 15.5514 6.59388 15.5512 6.75844V8.43H5.20734L4.33594 4.68984C4.31191 4.58678 4.25372 4.49487 4.17082 4.42908C4.08793 4.36329 3.98521 4.32749 3.87937 4.3275H1.40625C1.28193 4.3275 1.1627 4.37689 1.07479 4.46479C0.986886 4.5527 0.9375 4.67193 0.9375 4.79625C0.9375 4.92057 0.986886 5.0398 1.07479 5.12771C1.1627 5.21561 1.28193 5.265 1.40625 5.265H3.50719L4.37719 8.99531C4.37719 8.99531 4.37719 9 4.37719 9.00281L6.72656 19.0833H6.55312C6.04372 19.0912 5.55787 19.2991 5.20043 19.6621C4.843 20.0252 4.64266 20.5142 4.64266 21.0237C4.64266 21.5331 4.843 22.0222 5.20043 22.3852C5.55787 22.7482 6.04372 22.9561 6.55312 22.9641H22.6927C22.817 22.9641 22.9362 22.9147 23.0241 22.8268C23.112 22.7389 23.1614 22.6196 23.1614 22.4953C23.1614 22.371 23.112 22.2518 23.0241 22.1639C22.9362 22.0759 22.817 22.0266 22.6927 22.0266H6.55312C6.2909 22.0209 6.04132 21.9127 5.85787 21.7253C5.67442 21.5378 5.57168 21.286 5.57168 21.0237C5.57168 20.7614 5.67442 20.5095 5.85787 20.3221C6.04132 20.1346 6.2909 20.0265 6.55312 20.0208H7.3125H7.31766H22.6927C22.7516 20.02 22.8098 20.0081 22.8642 19.9856C22.8804 19.9777 22.896 19.9688 22.9111 19.9589C22.9447 19.9421 22.9762 19.9213 23.0048 19.897C23.0218 19.8811 23.0375 19.8639 23.0517 19.8455C23.0718 19.8212 23.0894 19.795 23.1042 19.7672C23.1168 19.744 23.127 19.7197 23.1347 19.6945C23.1389 19.6819 23.1469 19.6716 23.1502 19.6584L24.8016 12.5761C24.8175 12.5677 24.8348 12.5616 24.8484 12.5531L25.5098 13.2145C25.6281 13.3271 25.7851 13.3898 25.9484 13.3898C26.1116 13.3898 26.2686 13.3271 26.3869 13.2145L27.7805 11.8214C27.8967 11.7048 27.962 11.5469 27.962 11.3822C27.962 11.2175 27.8967 11.0596 27.7805 10.943L27.1191 10.282C27.2774 9.98243 27.407 9.66853 27.5063 9.34453H28.4438C28.6074 9.34392 28.7642 9.27872 28.8801 9.16312C28.996 9.04752 29.0615 8.89086 29.0625 8.72719V6.75844C29.0627 6.67677 29.0468 6.59587 29.0157 6.52036C28.9846 6.44485 28.9389 6.3762 28.8813 6.31835C28.8236 6.26049 28.7552 6.21456 28.6798 6.18319C28.6044 6.15181 28.5235 6.13559 28.4419 6.13547ZM17.1141 9.36516C17.2127 9.68189 17.3401 9.98895 17.4947 10.2825L16.8333 10.9444C16.7175 11.0608 16.6525 11.2184 16.6525 11.3827C16.6525 11.5469 16.7175 11.7045 16.8333 11.8209L18.2269 13.2141C18.345 13.3272 18.5023 13.3904 18.6659 13.3904C18.8294 13.3904 18.9867 13.3272 19.1048 13.2141L19.7658 12.5527C20.0647 12.7108 20.3778 12.8404 20.7009 12.9398V13.8773C20.7011 14.0418 20.7664 14.1995 20.8827 14.3159C20.9989 14.4322 21.1566 14.4977 21.3211 14.498H23.2922C23.3265 14.4942 23.3604 14.4873 23.3934 14.4773L22.3191 19.0847H7.69172L5.42578 9.36516H17.1141ZM28.125 8.40984H27.2653C27.1281 8.41017 26.995 8.456 26.8866 8.54015C26.7783 8.6243 26.701 8.74202 26.6667 8.87484C26.5623 9.27709 26.4026 9.66294 26.1923 10.0214C26.1222 10.1396 26.0933 10.2777 26.1103 10.4141C26.1272 10.5505 26.1891 10.6773 26.2861 10.7747L26.8955 11.3841L25.9481 12.3281L25.3416 11.7188C25.2441 11.622 25.1172 11.5602 24.9809 11.5433C24.8446 11.5263 24.7065 11.5551 24.5883 11.625C24.2289 11.8367 23.8415 11.9969 23.4375 12.1008C23.3051 12.1354 23.1878 12.213 23.104 12.3212C23.0203 12.4295 22.9747 12.5625 22.9744 12.6994V13.5591H21.6389V12.6994C21.6386 12.5621 21.5928 12.4289 21.5086 12.3205C21.4245 12.2121 21.3068 12.1346 21.1739 12.1003C20.7712 11.996 20.3849 11.836 20.0264 11.625C19.9086 11.5556 19.7711 11.5272 19.6354 11.5442C19.4998 11.5611 19.3735 11.6225 19.2764 11.7188L18.667 12.3281L17.722 11.3822L18.3281 10.7756C18.4252 10.6785 18.4873 10.5518 18.5046 10.4156C18.522 10.2794 18.4938 10.1412 18.4242 10.0228C18.2129 9.66386 18.0528 9.27716 17.9484 8.87391C17.9248 8.78683 17.8822 8.70603 17.8238 8.63724C17.7654 8.56846 17.6926 8.51339 17.6105 8.47594C17.602 8.47219 17.595 8.46656 17.5866 8.46281C17.512 8.42934 17.4315 8.41132 17.3498 8.40984H16.4897V7.07297H17.3494C17.4865 7.07264 17.6197 7.02681 17.7281 6.94266C17.8364 6.85851 17.9137 6.7408 17.948 6.60797C18.0528 6.20502 18.2129 5.81854 18.4237 5.45953C18.4931 5.34171 18.5215 5.20424 18.5046 5.06857C18.4876 4.9329 18.4262 4.80665 18.33 4.70953L17.7206 4.10016L18.6661 3.15469L19.2755 3.76406C19.3727 3.86117 19.4995 3.92311 19.6358 3.94009C19.7721 3.95707 19.9102 3.92812 20.0283 3.85781C20.3868 3.64722 20.7728 3.48741 21.1753 3.38297C21.3084 3.34896 21.4265 3.27164 21.5108 3.16319C21.5952 3.05473 21.6411 2.9213 21.6413 2.78391V1.92188H22.9786V2.78344C22.9788 2.92057 23.0245 3.05374 23.1086 3.16208C23.1927 3.27041 23.3103 3.34778 23.4431 3.38203C23.8459 3.48659 24.2323 3.64655 24.5911 3.85734C24.7088 3.92703 24.8464 3.95563 24.9821 3.93866C25.1179 3.9217 25.2441 3.86011 25.3411 3.76359L25.9505 3.15422L26.8959 4.10016L26.2866 4.70953C26.1903 4.80661 26.1288 4.93286 26.1119 5.06855C26.0949 5.20424 26.1234 5.34173 26.1928 5.45953C26.4036 5.81852 26.5636 6.20501 26.6681 6.60797C26.7025 6.74071 26.7798 6.85832 26.8882 6.94238C26.9965 7.02644 27.1296 7.0722 27.2667 7.0725H28.125V8.40984Z" fill="#25AAE6" stroke="#25AAE6" stroke-width="0.8"/>
<path d="M22.3079 4.56055C21.6788 4.56055 21.0638 4.74711 20.5407 5.09663C20.0176 5.44616 19.6098 5.94295 19.3691 6.52419C19.1283 7.10543 19.0653 7.74501 19.1881 8.36205C19.3108 8.9791 19.6138 9.54589 20.0586 9.99075C20.5035 10.4356 21.0703 10.7386 21.6873 10.8613C22.3044 10.984 22.9439 10.921 23.5252 10.6803C24.1064 10.4395 24.6032 10.0318 24.9527 9.50872C25.3023 8.98562 25.4888 8.37061 25.4888 7.74148C25.488 6.89811 25.1525 6.08953 24.5562 5.49318C23.9598 4.89683 23.1513 4.56142 22.3079 4.56055ZM22.3079 9.98492C21.8642 9.98492 21.4304 9.85335 21.0615 9.60683C20.6926 9.36032 20.405 9.00995 20.2352 8.60001C20.0654 8.19008 20.021 7.739 20.1076 7.30381C20.1941 6.86863 20.4078 6.46888 20.7215 6.15513C21.0353 5.84138 21.435 5.62772 21.8702 5.54115C22.3054 5.45459 22.7565 5.49902 23.1664 5.66882C23.5764 5.83862 23.9267 6.12617 24.1732 6.4951C24.4198 6.86403 24.5513 7.29777 24.5513 7.74148C24.5506 8.33621 24.314 8.90636 23.8934 9.32685C23.4728 9.74734 22.9026 9.98383 22.3079 9.98445V9.98492Z" fill="#25AAE6" stroke="#25AAE6" stroke-width="0.8"/>
<path d="M12.1905 18.1758H12.6091C12.7334 18.1758 12.8526 18.1264 12.9405 18.0385C13.0284 17.9506 13.0778 17.8314 13.0778 17.707C13.0778 17.5827 13.0284 17.4635 12.9405 17.3756C12.8526 17.2877 12.7334 17.2383 12.6091 17.2383H12.1914C12.0671 17.2383 11.9479 17.2877 11.8599 17.3756C11.772 17.4635 11.7227 17.5827 11.7227 17.707C11.7227 17.8314 11.772 17.9506 11.8599 18.0385C11.9479 18.1264 12.0671 18.1758 12.1914 18.1758H12.1905Z" fill="#25AAE6" stroke="#25AAE6" stroke-width="0.8"/>
<path d="M14.791 18.1758H15.2082C15.3325 18.1758 15.4518 18.1264 15.5397 18.0385C15.6276 17.9506 15.677 17.8314 15.677 17.707C15.677 17.5827 15.6276 17.4635 15.5397 17.3756C15.4518 17.2877 15.3325 17.2383 15.2082 17.2383H14.791C14.6667 17.2383 14.5475 17.2877 14.4596 17.3756C14.3717 17.4635 14.3223 17.5827 14.3223 17.707C14.3223 17.8314 14.3717 17.9506 14.4596 18.0385C14.5475 18.1264 14.6667 18.1758 14.791 18.1758Z" fill="#25AAE6" stroke="#25AAE6" stroke-width="0.8"/>
<path d="M17.3906 18.1758H17.8083C17.9326 18.1758 18.0518 18.1264 18.1397 18.0385C18.2276 17.9506 18.277 17.8314 18.277 17.707C18.277 17.5827 18.2276 17.4635 18.1397 17.3756C18.0518 17.2877 17.9326 17.2383 17.8083 17.2383H17.3906C17.2663 17.2383 17.1471 17.2877 17.0592 17.3756C16.9713 17.4635 16.9219 17.5827 16.9219 17.707C16.9219 17.8314 16.9713 17.9506 17.0592 18.0385C17.1471 18.1264 17.2663 18.1758 17.3906 18.1758Z" fill="#25AAE6" stroke="#25AAE6" stroke-width="0.8"/>
</g>
<defs>
<clipPath id="clip0_2002_4648">
<rect width="30" height="30" fill="white"/>
</clipPath>
</defs>
</svg>
