<svg width="16" height="18" viewBox="0 0 16 18" fill="none" xmlns="http://www.w3.org/2000/svg">
<path d="M15.3333 2.67725H12V2.00647C12 1.47277 11.7893 0.960924 11.4142 0.583538C11.0391 0.206153 10.5304 -0.00585937 10 -0.00585938H6C5.46957 -0.00585937 4.96086 0.206153 4.58579 0.583538C4.21071 0.960924 4 1.47277 4 2.00647V2.67725H0.666667C0.489856 2.67725 0.320287 2.74792 0.195262 2.87371C0.070238 2.99951 0 3.17012 0 3.34802C0 3.52592 0.070238 3.69654 0.195262 3.82233C0.320287 3.94813 0.489856 4.0188 0.666667 4.0188H1.33333V16.0928C1.33333 16.4486 1.47381 16.7898 1.72386 17.0414C1.97391 17.293 2.31304 17.4343 2.66667 17.4343H13.3333C13.687 17.4343 14.0261 17.293 14.2761 17.0414C14.5262 16.7898 14.6667 16.4486 14.6667 16.0928V4.0188H15.3333C15.5101 4.0188 15.6797 3.94813 15.8047 3.82233C15.9298 3.69654 16 3.52592 16 3.34802C16 3.17012 15.9298 2.99951 15.8047 2.87371C15.6797 2.74792 15.5101 2.67725 15.3333 2.67725ZM5.33333 2.00647C5.33333 1.82857 5.40357 1.65795 5.5286 1.53216C5.65362 1.40636 5.82319 1.33569 6 1.33569H10C10.1768 1.33569 10.3464 1.40636 10.4714 1.53216C10.5964 1.65795 10.6667 1.82857 10.6667 2.00647V2.67725H5.33333V2.00647ZM13.3333 16.0928H2.66667V4.0188H13.3333V16.0928ZM6.66667 7.37268V12.7389C6.66667 12.9168 6.59643 13.0874 6.4714 13.2132C6.34638 13.339 6.17681 13.4097 6 13.4097C5.82319 13.4097 5.65362 13.339 5.5286 13.2132C5.40357 13.0874 5.33333 12.9168 5.33333 12.7389V7.37268C5.33333 7.19478 5.40357 7.02417 5.5286 6.89837C5.65362 6.77258 5.82319 6.70191 6 6.70191C6.17681 6.70191 6.34638 6.77258 6.4714 6.89837C6.59643 7.02417 6.66667 7.19478 6.66667 7.37268ZM10.6667 7.37268V12.7389C10.6667 12.9168 10.5964 13.0874 10.4714 13.2132C10.3464 13.339 10.1768 13.4097 10 13.4097C9.82319 13.4097 9.65362 13.339 9.52859 13.2132C9.40357 13.0874 9.33333 12.9168 9.33333 12.7389V7.37268C9.33333 7.19478 9.40357 7.02417 9.52859 6.89837C9.65362 6.77258 9.82319 6.70191 10 6.70191C10.1768 6.70191 10.3464 6.77258 10.4714 6.89837C10.5964 7.02417 10.6667 7.19478 10.6667 7.37268Z" fill="#005BC1"/>
</svg>
