<svg width="16" height="18" viewBox="0 0 16 18" fill="none" xmlns="http://www.w3.org/2000/svg">
<path d="M15.3333 2.68311H12V2.01233C12 1.47863 11.7893 0.966783 11.4142 0.589398C11.0391 0.212013 10.5304 0 10 0H6C5.46957 0 4.96086 0.212013 4.58579 0.589398C4.21071 0.966783 4 1.47863 4 2.01233V2.68311H0.666667C0.489856 2.68311 0.320287 2.75378 0.195262 2.87957C0.070238 3.00537 0 3.17598 0 3.35388C0 3.53178 0.070238 3.7024 0.195262 3.82819C0.320287 3.95399 0.489856 4.02466 0.666667 4.02466H1.33333V16.0986C1.33333 16.4544 1.47381 16.7957 1.72386 17.0473C1.97391 17.2989 2.31304 17.4402 2.66667 17.4402H13.3333C13.687 17.4402 14.0261 17.2989 14.2761 17.0473C14.5262 16.7957 14.6667 16.4544 14.6667 16.0986V4.02466H15.3333C15.5101 4.02466 15.6797 3.95399 15.8047 3.82819C15.9298 3.7024 16 3.53178 16 3.35388C16 3.17598 15.9298 3.00537 15.8047 2.87957C15.6797 2.75378 15.5101 2.68311 15.3333 2.68311ZM5.33333 2.01233C5.33333 1.83443 5.40357 1.66381 5.5286 1.53802C5.65362 1.41222 5.82319 1.34155 6 1.34155H10C10.1768 1.34155 10.3464 1.41222 10.4714 1.53802C10.5964 1.66381 10.6667 1.83443 10.6667 2.01233V2.68311H5.33333V2.01233ZM13.3333 16.0986H2.66667V4.02466H13.3333V16.0986ZM6.66667 7.37854V12.7448C6.66667 12.9227 6.59643 13.0933 6.4714 13.2191C6.34638 13.3449 6.17681 13.4155 6 13.4155C5.82319 13.4155 5.65362 13.3449 5.5286 13.2191C5.40357 13.0933 5.33333 12.9227 5.33333 12.7448V7.37854C5.33333 7.20064 5.40357 7.03003 5.5286 6.90423C5.65362 6.77844 5.82319 6.70777 6 6.70777C6.17681 6.70777 6.34638 6.77844 6.4714 6.90423C6.59643 7.03003 6.66667 7.20064 6.66667 7.37854ZM10.6667 7.37854V12.7448C10.6667 12.9227 10.5964 13.0933 10.4714 13.2191C10.3464 13.3449 10.1768 13.4155 10 13.4155C9.82319 13.4155 9.65362 13.3449 9.52859 13.2191C9.40357 13.0933 9.33333 12.9227 9.33333 12.7448V7.37854C9.33333 7.20064 9.40357 7.03003 9.52859 6.90423C9.65362 6.77844 9.82319 6.70777 10 6.70777C10.1768 6.70777 10.3464 6.77844 10.4714 6.90423C10.5964 7.03003 10.6667 7.20064 10.6667 7.37854Z" fill="#005BC1"/>
</svg>
