<svg width="22" height="24" viewBox="0 0 22 24" fill="none" xmlns="http://www.w3.org/2000/svg">
<path d="M4 23.6673C3.02778 23.6673 2.20139 23.327 1.52083 22.6465C0.840278 21.9659 0.5 21.1395 0.5 20.1673V16.6673H4V0.333984L5.75 2.08398L7.5 0.333984L9.25 2.08398L11 0.333984L12.75 2.08398L14.5 0.333984L16.25 2.08398L18 0.333984L19.75 2.08398L21.5 0.333984V20.1673C21.5 21.1395 21.1597 21.9659 20.4792 22.6465C19.7986 23.327 18.9722 23.6673 18 23.6673H4ZM18 21.334C18.3306 21.334 18.6076 21.2222 18.8312 20.9986C19.0549 20.775 19.1667 20.4979 19.1667 20.1673V3.83398H6.33333V16.6673H16.8333V20.1673C16.8333 20.4979 16.9451 20.775 17.1688 20.9986C17.3924 21.2222 17.6694 21.334 18 21.334ZM7.5 8.50065V6.16732H14.5V8.50065H7.5ZM7.5 12.0007V9.66732H14.5V12.0007H7.5ZM16.8333 8.50065C16.5028 8.50065 16.2257 8.38885 16.0021 8.16523C15.7785 7.94162 15.6667 7.66454 15.6667 7.33398C15.6667 7.00343 15.7785 6.72635 16.0021 6.50273C16.2257 6.27912 16.5028 6.16732 16.8333 6.16732C17.1639 6.16732 17.441 6.27912 17.6646 6.50273C17.8882 6.72635 18 7.00343 18 7.33398C18 7.66454 17.8882 7.94162 17.6646 8.16523C17.441 8.38885 17.1639 8.50065 16.8333 8.50065ZM16.8333 12.0007C16.5028 12.0007 16.2257 11.8888 16.0021 11.6652C15.7785 11.4416 15.6667 11.1645 15.6667 10.834C15.6667 10.5034 15.7785 10.2263 16.0021 10.0027C16.2257 9.77912 16.5028 9.66732 16.8333 9.66732C17.1639 9.66732 17.441 9.77912 17.6646 10.0027C17.8882 10.2263 18 10.5034 18 10.834C18 11.1645 17.8882 11.4416 17.6646 11.6652C17.441 11.8888 17.1639 12.0007 16.8333 12.0007ZM4 21.334H14.5V19.0007H2.83333V20.1673C2.83333 20.4979 2.94514 20.775 3.16875 20.9986C3.39236 21.2222 3.66944 21.334 4 21.334Z" fill="#25AAE6"/>
<path fill-rule="evenodd" clip-rule="evenodd" d="M3.33333 21.1364C3.27558 21.0965 3.22072 21.0505 3.16875 20.9986C2.94514 20.775 2.83333 20.4979 2.83333 20.1673V19.0007H14.5V21.334H4C3.74627 21.334 3.52405 21.2681 3.33333 21.1364ZM4 0.333984V16.6673H0.5V20.1673C0.5 21.1395 0.840278 21.9659 1.52083 22.6465C2.20139 23.327 3.02778 23.6673 4 23.6673H18C18.9722 23.6673 19.7986 23.327 20.4792 22.6465C21.1597 21.9659 21.5 21.1395 21.5 20.1673V0.333984L19.75 2.08398L18 0.333984L16.25 2.08398L14.5 0.333984L12.75 2.08398L11 0.333984L9.25 2.08398L7.5 0.333984L5.75 2.08398L4 0.333984ZM7.5 1.7482L6.41421 2.83398H8.58579L7.5 1.7482ZM9.91421 2.83398H12.0858L11 1.7482L9.91421 2.83398ZM13.4142 2.83398H15.5858L14.5 1.7482L13.4142 2.83398ZM16.9142 2.83398H19.0858L18 1.7482L16.9142 2.83398ZM20.1667 3.08153V20.1673C20.1667 20.7497 19.9588 21.2853 19.5384 21.7057C19.118 22.1261 18.5824 22.334 18 22.334C17.4176 22.334 16.882 22.1261 16.4616 21.7057C16.0412 21.2853 15.8333 20.7497 15.8333 20.1673V17.6673H5.33333V3.08153L5 2.7482V17.6673H1.5V20.1673C1.5 20.8773 1.73705 21.4485 2.22794 21.9394C2.71883 22.4303 3.28997 22.6673 4 22.6673H18C18.71 22.6673 19.2812 22.4303 19.7721 21.9394C20.2629 21.4485 20.5 20.8773 20.5 20.1673V2.7482L20.1667 3.08153ZM6.33333 16.6673V3.83398H19.1667V20.1673C19.1667 20.4979 19.0549 20.775 18.8312 20.9986C18.6076 21.2222 18.3306 21.334 18 21.334C17.6694 21.334 17.3924 21.2222 17.1688 20.9986C16.9451 20.775 16.8333 20.4979 16.8333 20.1673V16.6673H6.33333ZM15.5 22.334H4C3.41761 22.334 2.88205 22.1261 2.46164 21.7057C2.04124 21.2853 1.83333 20.7497 1.83333 20.1673V18.0007H15.5V22.334ZM8.5 7.16732V7.50065H13.5V7.16732H8.5ZM8.5 10.6673V11.0007H13.5V10.6673H8.5ZM16.7518 7.48945C16.7594 7.49251 16.7826 7.50065 16.8333 7.50065C16.884 7.50065 16.9073 7.49251 16.9149 7.48945C16.9216 7.48674 16.9351 7.48053 16.9575 7.45813C16.9799 7.43573 16.9861 7.42223 16.9888 7.41552C16.9919 7.40793 17 7.38467 17 7.33398C17 7.2833 16.9919 7.26004 16.9888 7.25245C16.9861 7.24574 16.9799 7.23224 16.9575 7.20984C16.9351 7.18744 16.9216 7.18123 16.9149 7.17852C16.9073 7.17546 16.884 7.16732 16.8333 7.16732C16.7826 7.16732 16.7594 7.17546 16.7518 7.17852C16.7451 7.18123 16.7316 7.18744 16.7092 7.20984C16.6868 7.23224 16.6806 7.24574 16.6779 7.25245C16.6748 7.26004 16.6667 7.2833 16.6667 7.33398C16.6667 7.38467 16.6748 7.40793 16.6779 7.41552C16.6806 7.42223 16.6868 7.43573 16.7092 7.45813C16.7316 7.48053 16.7451 7.48674 16.7518 7.48945ZM16.7518 10.9894C16.7594 10.9925 16.7826 11.0007 16.8333 11.0007C16.884 11.0007 16.9073 10.9925 16.9149 10.9894C16.9216 10.9867 16.9351 10.9805 16.9575 10.9581C16.9799 10.9357 16.9861 10.9222 16.9888 10.9155C16.9919 10.9079 17 10.8847 17 10.834C17 10.7833 16.9919 10.76 16.9888 10.7524C16.9861 10.7457 16.9799 10.7322 16.9575 10.7098C16.9351 10.6874 16.9216 10.6812 16.9149 10.6785C16.9073 10.6755 16.884 10.6673 16.8333 10.6673C16.7826 10.6673 16.7594 10.6755 16.7518 10.6785C16.7451 10.6812 16.7316 10.6874 16.7092 10.7098C16.6868 10.7322 16.6806 10.7457 16.6779 10.7524C16.6748 10.76 16.6667 10.7833 16.6667 10.834C16.6667 10.8847 16.6748 10.9079 16.6779 10.9155C16.6806 10.9222 16.6868 10.9357 16.7092 10.9581C16.7316 10.9805 16.7451 10.9867 16.7518 10.9894ZM7.5 8.50065H14.5V6.16732H7.5V8.50065ZM7.5 12.0007H14.5V9.66732H7.5V12.0007ZM16.0021 8.16523C16.2257 8.38885 16.5028 8.50065 16.8333 8.50065C17.1639 8.50065 17.441 8.38885 17.6646 8.16523C17.8882 7.94162 18 7.66454 18 7.33398C18 7.00343 17.8882 6.72635 17.6646 6.50273C17.441 6.27912 17.1639 6.16732 16.8333 6.16732C16.5028 6.16732 16.2257 6.27912 16.0021 6.50273C15.7785 6.72635 15.6667 7.00343 15.6667 7.33398C15.6667 7.66454 15.7785 7.94162 16.0021 8.16523ZM16.0021 11.6652C16.2257 11.8888 16.5028 12.0007 16.8333 12.0007C17.1639 12.0007 17.441 11.8888 17.6646 11.6652C17.8882 11.4416 18 11.1645 18 10.834C18 10.5034 17.8882 10.2263 17.6646 10.0027C17.441 9.77912 17.1639 9.66732 16.8333 9.66732C16.5028 9.66732 16.2257 9.77912 16.0021 10.0027C15.7785 10.2263 15.6667 10.5034 15.6667 10.834C15.6667 11.1645 15.7785 11.4416 16.0021 11.6652Z" fill="#25AAE6"/>
</svg>
