<svg width="17" height="17" viewBox="0 0 17 17" fill="none" xmlns="http://www.w3.org/2000/svg">
<path d="M16.6477 4.19298L12.8071 0.35243C12.6954 0.240697 12.5628 0.152065 12.4168 0.0915941C12.2708 0.0311238 12.1143 0 11.9563 0C11.7983 0 11.6419 0.0311238 11.4959 0.0915941C11.3499 0.152065 11.2173 0.240697 11.1055 0.35243L0.508596 10.9502C0.396649 11.0618 0.307883 11.1944 0.247412 11.3404C0.18694 11.4864 0.155959 11.643 0.156252 11.801V15.6416C0.156252 15.9607 0.28301 16.2667 0.508639 16.4923C0.734269 16.7179 1.04029 16.8447 1.35938 16.8447H5.19992C5.35797 16.845 5.51451 16.814 5.66052 16.7535C5.80654 16.6931 5.93915 16.6043 6.0507 16.4924L16.6477 5.89454C16.7594 5.78282 16.848 5.65018 16.9085 5.5042C16.969 5.35822 17.0001 5.20177 17.0001 5.04376C17.0001 4.88575 16.969 4.72929 16.9085 4.58331C16.848 4.43734 16.7594 4.3047 16.6477 4.19298ZM5.3211 15.7627C5.28901 15.795 5.24543 15.8133 5.19992 15.8134H1.35938C1.31379 15.8134 1.27008 15.7953 1.23784 15.7631C1.20561 15.7309 1.1875 15.6872 1.1875 15.6416V11.801C1.18769 11.7555 1.20593 11.7119 1.23821 11.6799L8.92188 3.99532L13.0048 8.07907L5.3211 15.7627ZM15.918 5.16579L13.7344 7.34946L9.65149 3.26657L11.8352 1.08204C11.8511 1.06606 11.8701 1.05338 11.8909 1.04473C11.9118 1.03608 11.9342 1.03163 11.9568 1.03163C11.9793 1.03163 12.0017 1.03608 12.0226 1.04473C12.0434 1.05338 12.0624 1.06606 12.0784 1.08204L15.918 4.92259C15.934 4.93855 15.9467 4.95751 15.9554 4.97837C15.964 4.99924 15.9685 5.0216 15.9685 5.04419C15.9685 5.06678 15.964 5.08914 15.9554 5.11001C15.9467 5.13087 15.934 5.14983 15.918 5.16579Z" fill="#F25A05"/>
</svg>
