<svg width="30" height="22" viewBox="0 0 30 22" fill="none" xmlns="http://www.w3.org/2000/svg">
<path fill-rule="evenodd" clip-rule="evenodd" d="M14.497 0.135724C14.8079 -0.0452413 15.1921 -0.0452413 15.503 0.135724L29.003 7.99287C29.298 8.16455 29.4851 8.47484 29.4991 8.81587C29.5132 9.15689 29.3524 9.48155 29.0726 9.67699L24.5726 12.8198C24.5488 12.8364 24.5246 12.8518 24.5 12.8661V17.1765C24.5 17.57 24.2692 17.927 23.9102 18.0885L15.4102 21.912C15.1493 22.0293 14.8507 22.0293 14.5898 21.912L6.08977 18.0885C5.73085 17.927 5.5 17.57 5.5 17.1765V12.8661C5.47538 12.8518 5.45116 12.8364 5.42741 12.8198L0.927414 9.67699C0.647588 9.48155 0.486767 9.15689 0.500855 8.81587C0.514942 8.47484 0.701993 8.16455 0.996985 7.99287L14.497 0.135724ZM6.29783 10.9883L6.5 11.0588C6.42711 11.0334 6.35985 11.0099 6.29778 10.9882L6.29783 10.9883ZM5.6381 10.5275C5.64808 10.5053 5.65902 10.4816 5.67097 10.4563C5.7401 10.3104 5.8433 10.1145 5.98972 9.88564C6.28285 9.42755 6.74927 8.83767 7.46033 8.25561C8.8977 7.07899 11.2534 6 15 6C15.5271 6 16.0267 6.02136 16.5 6.06133V3.03005L15 2.15704L3.35625 8.93382L5.6381 10.5275ZM16.5 8.06935V13C16.5 13.5523 16.9477 14 17.5 14C18.0523 14 18.5 13.5523 18.5 13V8.42956C19.7846 8.78531 20.671 9.31055 21.2728 9.80322C21.8013 10.2359 22.1318 10.6607 22.3257 10.9636C22.4056 11.0886 22.4624 11.1929 22.5 11.2682V16.5298L15 19.9035L7.5 16.5298V11.2682C7.53764 11.1929 7.59437 11.0886 7.67435 10.9636C7.86819 10.6607 8.19865 10.2359 8.72718 9.80322C9.76897 8.95042 11.6633 8 15 8C15.5365 8 16.0357 8.02457 16.5 8.06935ZM18.5 6.36737V4.19407L26.6438 8.93382L24.3619 10.5275C24.3519 10.5053 24.341 10.4816 24.329 10.4563C24.2599 10.3104 24.1567 10.1145 24.0103 9.88564C23.7171 9.42755 23.2507 8.83767 22.5397 8.25561C21.6151 7.49872 20.3104 6.78223 18.5 6.36737ZM23.7022 10.9882C23.6402 11.0099 23.5729 11.0334 23.5 11.0588L23.7022 10.9883L23.7022 10.9882Z" fill="#25AAE6"/>
</svg>
