<svg width="30" height="26" viewBox="0 0 30 26" fill="none" xmlns="http://www.w3.org/2000/svg">
<path d="M26.9726 13.2333C26.9578 12.8751 26.7656 12.5534 26.4586 12.3734L14.0081 5.06612C13.6864 4.87731 13.2872 4.87731 12.9654 5.06612L0.514885 12.3729C0.207384 12.5534 0.0151959 12.8751 0.000919108 13.2333C-0.0139068 13.5916 0.151375 13.9282 0.442952 14.1331L4.59311 17.0556C4.59915 17.06 4.6052 17.0639 4.61124 17.0683V21.013C4.61124 21.4233 4.8512 21.7976 5.22239 21.9659L13.0615 25.5218C13.1965 25.5833 13.3415 25.6137 13.4865 25.6137C13.6314 25.6137 13.7764 25.5833 13.9115 25.5218L21.7506 21.9659C22.1218 21.7976 22.3617 21.4233 22.3617 21.013V17.0683C22.3678 17.0645 22.3738 17.06 22.3798 17.0556L26.53 14.1331C26.8216 13.9277 26.9874 13.5916 26.9726 13.2333ZM6.68412 15.5462C6.72475 15.4665 6.77253 15.3828 6.82689 15.2976C6.99107 15.0384 7.28869 14.6459 7.7741 14.2455C8.68672 13.4925 10.4181 12.5944 13.487 12.5944C13.9241 12.5944 14.3502 12.6126 14.756 12.6486V17.1292C14.756 17.7057 15.2211 18.1741 15.7922 18.1741C16.3633 18.1741 16.8284 17.7051 16.8284 17.1292V13.0318C16.841 13.0357 16.8536 13.0395 16.8668 13.0434C17.6268 13.2738 18.2983 13.5921 18.8639 13.9903C18.9572 14.0562 19.0495 14.1248 19.1374 14.1957C19.1582 14.2123 19.1785 14.2289 19.1989 14.2455C19.6837 14.6459 19.9819 15.0384 20.1461 15.2976C20.2114 15.4006 20.2586 15.4864 20.2888 15.5462V20.3374L13.4859 23.4233L6.68302 20.3374V15.5462H6.68412ZM16.8284 10.8696V9.13976L24.0129 13.3563L22.1657 14.6569C22.0943 14.5107 22.0108 14.3601 21.9164 14.209C21.9087 14.1962 21.9005 14.1835 21.8922 14.1702C21.8648 14.127 21.8362 14.0833 21.8071 14.0401C21.4612 13.5268 21.0257 13.0512 20.5123 12.6276C20.2207 12.3867 19.9017 12.1619 19.564 11.9593C18.7914 11.4952 17.9041 11.1364 16.9272 10.8939C16.892 10.8851 16.8591 10.8773 16.8284 10.8696ZM14.7555 10.5517C14.3453 10.5202 13.9192 10.5041 13.4865 10.5041C11.8842 10.5041 10.4334 10.7212 9.17488 11.1486C8.13487 11.5019 7.2217 11.9997 6.46118 12.6276C5.90219 13.0888 5.43819 13.6082 5.08127 14.1702C5.07304 14.1835 5.0648 14.1962 5.05711 14.209C4.96266 14.3601 4.8792 14.5107 4.80782 14.6569L2.96116 13.3563L13.4876 7.17852L14.7566 7.92326V10.5512L14.7555 10.5517Z" fill="#25AAE6"/>
<path d="M29.2388 1.15416L28.4777 1.9216L26.9556 0.386719L25.4334 1.9216L23.9113 0.386719L22.3892 1.9216L20.867 0.386719L19.3449 1.9216L17.8228 0.386719L16.3001 1.9216L14.7774 0.386719V4.71839L16.8075 5.95095V3.45759H27.972V15.4377C27.972 16.616 27.0248 17.5711 25.8562 17.5711H22.9915V19.4609H26.2917C28.341 19.4609 30.002 17.7859 30.002 15.7195V0.386719L29.241 1.15416H29.2388Z" fill="#25AAE6"/>
<path d="M25.2176 5.09768H18.6475V7.09325H25.2176C25.764 7.09325 26.2071 6.64641 26.2071 6.09547C26.2071 5.54453 25.764 5.09768 25.2176 5.09768Z" fill="#25AAE6"/>
<path d="M25.2176 8.14253H20.4206L23.7356 10.1381H25.2171C25.7634 10.1381 26.2066 9.69126 26.2066 9.14032C26.2066 8.58938 25.764 8.14253 25.2176 8.14253Z" fill="#25AAE6"/>
</svg>
