<svg width="14" height="8" viewBox="0 0 14 8" fill="none" xmlns="http://www.w3.org/2000/svg">
<path fill-rule="evenodd" clip-rule="evenodd" d="M0 1.08333C0 0.761167 0.241077 0.5 0.538462 0.5H13.4615C13.7589 0.5 14 0.761167 14 1.08333C14 1.4055 13.7589 1.66667 13.4615 1.66667H0.538462C0.241077 1.66667 0 1.4055 0 1.08333Z" fill="#D0D4CA"/>
<path fill-rule="evenodd" clip-rule="evenodd" d="M2.69231 3.41667C2.69231 3.0945 2.93339 2.83333 3.23077 2.83333H10.7692C11.0666 2.83333 11.3077 3.0945 11.3077 3.41667C11.3077 3.73883 11.0666 4 10.7692 4H3.23077C2.93339 4 2.69231 3.73883 2.69231 3.41667Z" fill="#D0D4CA"/>
<path fill-rule="evenodd" clip-rule="evenodd" d="M4.8839 5.52389C4.97121 5.3091 5.19484 5.16667 5.44479 5.16667H8.55522C8.80516 5.16667 9.02879 5.3091 9.11611 5.52389C9.20342 5.73869 9.13603 5.98063 8.94709 6.13071L7.39188 7.366C7.16694 7.54467 6.83306 7.54467 6.60812 7.366L5.05291 6.13071C4.86397 5.98063 4.79658 5.73869 4.8839 5.52389Z" fill="#D0D4CA"/>
</svg>
