<svg width="26" height="26" viewBox="0 0 26 26" fill="none" xmlns="http://www.w3.org/2000/svg">
<path d="M23.5088 13.2475C23.5136 13.0817 23.5136 12.916 23.5088 12.7502L25.2909 10.6049C25.3843 10.4922 25.449 10.36 25.4797 10.2189C25.5104 10.0777 25.5062 9.9316 25.4676 9.79228C25.175 8.73426 24.738 7.71831 24.1681 6.77101C24.0934 6.64707 23.9898 6.54164 23.8654 6.46311C23.741 6.38459 23.5992 6.33513 23.4515 6.31868L20.6184 6.01482C20.5006 5.89512 20.3811 5.78003 20.2601 5.66954L19.9257 2.93255C19.9085 2.79008 19.857 2.65345 19.7753 2.53355C19.6936 2.41365 19.5839 2.31381 19.4551 2.24198C18.4721 1.69325 17.4178 1.27292 16.3198 0.992033C16.1752 0.954811 16.0236 0.950834 15.8771 0.980421C15.7307 1.01001 15.5935 1.07233 15.4766 1.16238L13.2562 2.8704C13.0842 2.8704 12.9122 2.8704 12.7402 2.8704L10.5139 1.15662C10.397 1.06658 10.2598 1.00425 10.1133 0.974667C9.96685 0.945079 9.81522 0.949057 9.67064 0.986278C8.5727 1.2683 7.51842 1.68938 6.53537 2.23852C6.40676 2.31049 6.29735 2.41039 6.21586 2.53028C6.13437 2.65017 6.08305 2.78673 6.06598 2.9291L5.75066 5.66378C5.62644 5.77811 5.507 5.89321 5.39234 6.00907L2.55209 6.32328C2.40424 6.33986 2.26245 6.38949 2.13803 6.46822C2.01361 6.54695 1.91 6.65261 1.83546 6.77676C1.26615 7.72419 0.829582 8.74012 0.537155 9.79803C0.498692 9.93744 0.494758 10.0836 0.52567 10.2248C0.556582 10.3659 0.621476 10.4981 0.715119 10.6106L2.48759 12.7502C2.48759 12.916 2.48759 13.0817 2.48759 13.2475L0.709147 15.3929C0.615708 15.5055 0.551032 15.6377 0.520328 15.7789C0.489624 15.92 0.493751 16.0661 0.532378 16.2054C0.825035 17.2635 1.26201 18.2794 1.83187 19.2267C1.90655 19.3506 2.01022 19.4561 2.13464 19.5346C2.25905 19.6131 2.40076 19.6626 2.5485 19.679L5.38159 19.9829C5.50024 20.1026 5.61968 20.2177 5.73991 20.3282L6.07076 23.0652C6.08796 23.2076 6.13946 23.3443 6.22116 23.4642C6.30287 23.5841 6.41251 23.6839 6.54135 23.7557C7.52452 24.3043 8.57878 24.725 9.67661 25.0068C9.82128 25.0439 9.97297 25.0477 10.1194 25.0179C10.2659 24.9881 10.4031 24.9256 10.5199 24.8353L12.7402 23.1273C12.9122 23.1319 13.0842 23.1319 13.2562 23.1273L15.4825 24.8445C15.5994 24.9346 15.7366 24.9969 15.8831 25.0265C16.0296 25.0561 16.1812 25.0521 16.3258 25.0149C17.4239 24.7334 18.4782 24.3123 19.461 23.7626C19.5897 23.6907 19.6991 23.5908 19.7806 23.4709C19.862 23.351 19.9134 23.2144 19.9304 23.0721L20.2458 20.342C20.37 20.2284 20.4894 20.1133 20.6041 19.9967L23.4443 19.6744C23.5922 19.6578 23.734 19.6082 23.8584 19.5295C23.9828 19.4508 24.0864 19.3451 24.161 19.2209C24.7303 18.2735 25.1668 17.2576 25.4593 16.1997C25.4977 16.0603 25.5017 15.9141 25.4707 15.773C25.4398 15.6318 25.3749 15.4996 25.2813 15.3871L23.5088 13.2475ZM12.9982 17.6027C12.0533 17.6027 11.1296 17.3327 10.3439 16.8268C9.55828 16.3209 8.94593 15.6019 8.58432 14.7607C8.22272 13.9194 8.12811 12.9937 8.31245 12.1007C8.4968 11.2076 8.95182 10.3873 9.61997 9.74345C10.2881 9.09959 11.1394 8.66111 12.0662 8.48347C12.9929 8.30583 13.9535 8.397 14.8265 8.74546C15.6995 9.09391 16.4456 9.684 16.9706 10.4411C17.4956 11.1982 17.7758 12.0883 17.7758 12.9989C17.7758 14.2199 17.2724 15.3909 16.3764 16.2543C15.4805 17.1176 14.2653 17.6027 12.9982 17.6027Z" fill="#25AAE6"/>
</svg>
