<svg width="16" height="17" viewBox="0 0 16 17" fill="none" xmlns="http://www.w3.org/2000/svg">
<path d="M7.96228 12.0535C6.12427 12.0535 4.62891 10.5581 4.62891 8.72009C4.62891 6.88208 6.12427 5.38672 7.96228 5.38672C9.80017 5.38672 11.2955 6.88208 11.2955 8.72009C11.2955 10.5581 9.80017 12.0535 7.96228 12.0535ZM7.96228 6.38672C6.67554 6.38672 5.62891 7.43347 5.62891 8.72009C5.62891 10.0067 6.67554 11.0535 7.96228 11.0535C9.2489 11.0535 10.2955 10.0067 10.2955 8.72009C10.2955 7.43347 9.2489 6.38672 7.96228 6.38672Z" fill="#606060"/>
<path d="M9.07166 16.7207H6.85426C6.32093 16.7207 5.84962 16.342 5.73365 15.8201L5.45301 14.572C4.99561 14.3781 4.55958 14.1248 4.15028 13.8154L2.93495 14.1993C2.41358 14.3613 1.84693 14.14 1.58558 13.6733L0.480355 11.7621C0.215585 11.2887 0.30494 10.7061 0.694345 10.3394L1.63624 9.47339C1.60767 9.21936 1.59364 8.96741 1.59364 8.7207C1.59364 8.474 1.60767 8.22205 1.63563 7.96802L0.698983 7.10608C0.30494 6.73535 0.214974 6.15271 0.476937 5.68542L1.589 3.76208C1.84693 3.30066 2.41493 3.08142 2.93299 3.24072L4.15028 3.62537C4.55958 3.31604 4.99561 3.06274 5.45301 2.86865L5.73426 1.61938C5.84962 1.09937 6.32093 0.720703 6.85426 0.720703H9.07166C9.60499 0.720703 10.0763 1.09937 10.1923 1.62134L10.4729 2.86938C10.9303 3.06335 11.3663 3.31665 11.7756 3.62598L12.991 3.24207C13.5137 3.08142 14.079 3.30139 14.3403 3.76807L15.4457 5.67932C15.7103 6.15271 15.621 6.73535 15.2316 7.10205L14.2897 7.96802C14.3176 8.22205 14.3317 8.47473 14.3317 8.7207C14.3317 8.96667 14.3176 9.21936 14.2897 9.47339L15.2269 10.3347C15.2283 10.3361 15.2296 10.3374 15.2316 10.3387C15.621 10.7053 15.7109 11.2881 15.449 11.7554L14.3369 13.6787C14.079 14.14 13.5123 14.3607 12.9923 14.1993L11.7749 13.8147C11.3656 14.124 10.9296 14.3773 10.4723 14.5714L10.1909 15.8207C10.0763 16.342 9.60499 16.7207 9.07166 16.7207ZM4.25233 12.76C4.36695 12.76 4.47962 12.7993 4.57032 12.874C5.02833 13.2507 5.5276 13.5414 6.05628 13.7361C6.21558 13.7947 6.33363 13.9301 6.37098 14.0953L6.71034 15.6021C6.72559 15.6714 6.78626 15.7207 6.85499 15.7207H9.07227C9.141 15.7207 9.20167 15.6714 9.21632 15.6034L9.55628 14.0953C9.59364 13.9301 9.71168 13.7947 9.87098 13.7361C10.3989 13.5414 10.8989 13.2507 11.3569 12.874C11.4877 12.766 11.6636 12.7313 11.8257 12.7827L13.293 13.2461C13.3629 13.2681 13.4376 13.2421 13.4696 13.1847L14.5817 11.2614C14.615 11.202 14.6029 11.1207 14.5497 11.0687L13.4243 10.0341C13.3023 9.922 13.2437 9.75598 13.2683 9.59204C13.3123 9.29675 13.3344 9.00342 13.3344 8.72009C13.3344 8.43665 13.3123 8.14331 13.2683 7.84802C13.2437 7.68408 13.3023 7.51868 13.4243 7.40601L14.5523 6.36865C14.6029 6.32141 14.615 6.23865 14.5783 6.17273L13.4729 4.26135C13.437 4.198 13.361 4.17273 13.2916 4.1947L11.8263 4.65735C11.6649 4.70874 11.489 4.67407 11.3577 4.56604C10.8997 4.18933 10.4003 3.89868 9.87159 3.70398C9.71229 3.64539 9.59425 3.51001 9.55702 3.34473L9.21766 1.83801C9.20094 1.77002 9.14027 1.7207 9.07166 1.7207H6.85426C6.78565 1.7207 6.72498 1.77002 6.71034 1.83801L6.37025 3.34607C6.33302 3.51135 6.21497 3.646 6.05567 3.70532C5.5276 3.90002 5.0276 4.19067 4.57032 4.56738C4.43897 4.67542 4.26161 4.70935 4.10169 4.65869L2.63429 4.19531C2.56568 4.17407 2.48963 4.19934 2.45765 4.25671L1.34559 6.17932C1.31226 6.23938 1.32435 6.32202 1.37965 6.37402L2.50367 7.40674C2.62562 7.51868 2.68433 7.68469 2.65968 7.84875C2.61561 8.14404 2.59364 8.43738 2.59364 8.7207C2.59364 9.00403 2.61561 9.29736 2.65968 9.59265C2.68433 9.75671 2.62562 9.922 2.50367 10.0347L1.37562 11.072C1.32496 11.1194 1.313 11.202 1.34962 11.2681L2.45496 13.1793C2.49024 13.2427 2.56629 13.2673 2.63624 13.2461L4.10169 12.7833C4.15101 12.7673 4.20167 12.76 4.25233 12.76Z" fill="#606060"/>
</svg>
