<svg width="17" height="21" viewBox="0 0 17 21" fill="none" xmlns="http://www.w3.org/2000/svg">
<path d="M14.5 7H13.5V5C13.5 2.24 11.26 0 8.5 0C5.74 0 3.5 2.24 3.5 5V7H2.5C1.4 7 0.5 7.9 0.5 9V19C0.5 20.1 1.4 21 2.5 21H14.5C15.6 21 16.5 20.1 16.5 19V9C16.5 7.9 15.6 7 14.5 7ZM5.5 5C5.5 3.34 6.84 2 8.5 2C10.16 2 11.5 3.34 11.5 5V7H5.5V5ZM13.5 19H3.5C2.95 19 2.5 18.55 2.5 18V10C2.5 9.45 2.95 9 3.5 9H13.5C14.05 9 14.5 9.45 14.5 10V18C14.5 18.55 14.05 19 13.5 19ZM8.5 16C9.6 16 10.5 15.1 10.5 14C10.5 12.9 9.6 12 8.5 12C7.4 12 6.5 12.9 6.5 14C6.5 15.1 7.4 16 8.5 16Z" fill="#333333"/>
</svg>
