<svg width="25" height="24" viewBox="0 0 25 24" fill="none" xmlns="http://www.w3.org/2000/svg">
<g clip-path="url(#clip0_25_15481)">
<path d="M19.4258 8H5.42578C3.76578 8 2.42578 9.34 2.42578 11V15C2.42578 16.1 3.32578 17 4.42578 17H6.42578V19C6.42578 20.1 7.32578 21 8.42578 21H16.4258C17.5258 21 18.4258 20.1 18.4258 19V17H20.4258C21.5258 17 22.4258 16.1 22.4258 15V11C22.4258 9.34 21.0858 8 19.4258 8ZM15.4258 19H9.42578C8.87578 19 8.42578 18.55 8.42578 18V14H16.4258V18C16.4258 18.55 15.9758 19 15.4258 19ZM19.4258 12C18.8758 12 18.4258 11.55 18.4258 11C18.4258 10.45 18.8758 10 19.4258 10C19.9758 10 20.4258 10.45 20.4258 11C20.4258 11.55 19.9758 12 19.4258 12ZM17.4258 3H7.42578C6.87578 3 6.42578 3.45 6.42578 4V6C6.42578 6.55 6.87578 7 7.42578 7H17.4258C17.9758 7 18.4258 6.55 18.4258 6V4C18.4258 3.45 17.9758 3 17.4258 3Z" fill="#25AAE6"/>
</g>
<defs>
<clipPath id="clip0_25_15481">
<rect width="24" height="24" fill="white" transform="translate(0.425781)"/>
</clipPath>
</defs>
</svg>
