<svg width="22" height="18" viewBox="0 0 22 18" fill="none" xmlns="http://www.w3.org/2000/svg">
<path d="M18.0867 5H3.79012C2.09495 5 0.726562 6.34 0.726562 8V12C0.726562 13.1 1.64563 14 2.76894 14H4.81131V16C4.81131 17.1 5.73038 18 6.85368 18H15.0232C16.1465 18 17.0655 17.1 17.0655 16V14H19.1079C20.2312 14 21.1503 13.1 21.1503 12V8C21.1503 6.34 19.7819 5 18.0867 5ZM14.002 16H7.87487C7.31321 16 6.85368 15.55 6.85368 15V11H15.0232V15C15.0232 15.55 14.5636 16 14.002 16ZM18.0867 9C17.5251 9 17.0655 8.55 17.0655 8C17.0655 7.45 17.5251 7 18.0867 7C18.6484 7 19.1079 7.45 19.1079 8C19.1079 8.55 18.6484 9 18.0867 9ZM16.0444 0H5.83249C5.27084 0 4.81131 0.45 4.81131 1V3C4.81131 3.55 5.27084 4 5.83249 4H16.0444C16.606 4 17.0655 3.55 17.0655 3V1C17.0655 0.45 16.606 0 16.0444 0Z" fill="#25B7AD"/>
</svg>
