<svg width="21" height="18" viewBox="0 0 21 18" fill="none" xmlns="http://www.w3.org/2000/svg">
<path d="M17.744 5H3.44735C1.75218 5 0.383789 6.34 0.383789 8V12C0.383789 13.1 1.30286 14 2.42616 14H4.46853V16C4.46853 17.1 5.3876 18 6.51091 18H14.6804C15.8037 18 16.7228 17.1 16.7228 16V14H18.7651C19.8884 14 20.8075 13.1 20.8075 12V8C20.8075 6.34 19.4391 5 17.744 5ZM13.6592 16H7.53209C6.97044 16 6.51091 15.55 6.51091 15V11H14.6804V15C14.6804 15.55 14.2209 16 13.6592 16ZM17.744 9C17.1823 9 16.7228 8.55 16.7228 8C16.7228 7.45 17.1823 7 17.744 7C18.3056 7 18.7651 7.45 18.7651 8C18.7651 8.55 18.3056 9 17.744 9ZM15.7016 0H5.48972C4.92807 0 4.46853 0.45 4.46853 1V3C4.46853 3.55 4.92807 4 5.48972 4H15.7016C16.2632 4 16.7228 3.55 16.7228 3V1C16.7228 0.45 16.2632 0 15.7016 0Z" fill="#005BC1"/>
</svg>
