<svg width="21" height="18" viewBox="0 0 21 18" fill="none" xmlns="http://www.w3.org/2000/svg">
<path d="M17.4295 5H3.13289C1.43773 5 0.0693359 6.34 0.0693359 8V12C0.0693359 13.1 0.988404 14 2.11171 14H4.15408V16C4.15408 17.1 5.07315 18 6.19645 18H14.3659C15.4893 18 16.4083 17.1 16.4083 16V14H18.4507C19.574 14 20.4931 13.1 20.4931 12V8C20.4931 6.34 19.1247 5 17.4295 5ZM13.3448 16H7.21764C6.65599 16 6.19645 15.55 6.19645 15V11H14.3659V15C14.3659 15.55 13.9064 16 13.3448 16ZM17.4295 9C16.8679 9 16.4083 8.55 16.4083 8C16.4083 7.45 16.8679 7 17.4295 7C17.9912 7 18.4507 7.45 18.4507 8C18.4507 8.55 17.9912 9 17.4295 9ZM15.3871 0H5.17527C4.61362 0 4.15408 0.45 4.15408 1V3C4.15408 3.55 4.61362 4 5.17527 4H15.3871C15.9488 4 16.4083 3.55 16.4083 3V1C16.4083 0.45 15.9488 0 15.3871 0Z" fill="#FF3D00"/>
</svg>
