<svg width="16" height="15" viewBox="0 0 16 15" fill="none" xmlns="http://www.w3.org/2000/svg">
<path d="M13.2388 0H2.68359C1.71434 0 0.925781 0.788555 0.925781 1.75781V13.2422C0.925781 14.2114 1.71434 15 2.68359 15H14.168C15.1372 15 15.9258 14.2114 15.9258 13.2422V2.68699L13.2388 0ZM5.52539 1.17188H9.01172V3.39844H10.1836V1.17188H11.3555V3.98438C11.3555 4.30746 11.0926 4.57031 10.7695 4.57031H6.11133C5.78824 4.57031 5.52539 4.30746 5.52539 3.98438V1.17188ZM12.5273 13.8281H4.35352V8.67188C4.35352 8.34879 4.61637 8.08594 4.93945 8.08594H11.9414C12.2645 8.08594 12.5273 8.34879 12.5273 8.67188V13.8281ZM14.7539 13.2422C14.7539 13.5653 14.4911 13.8281 14.168 13.8281H13.6992V8.67188C13.6992 7.70262 12.9107 6.91406 11.9414 6.91406H4.93945C3.9702 6.91406 3.18164 7.70262 3.18164 8.67188V13.8281H2.68359C2.36051 13.8281 2.09766 13.5653 2.09766 13.2422V1.75781C2.09766 1.43473 2.36051 1.17188 2.68359 1.17188H4.35352V3.98438C4.35352 4.95363 5.14207 5.74219 6.11133 5.74219H10.7695C11.7388 5.74219 12.5273 4.95363 12.5273 3.98438V1.17188H12.7534L14.7539 3.17238V13.2422Z" fill="white"/>
</svg>
