<svg width="18" height="18" viewBox="0 0 18 18" fill="none" xmlns="http://www.w3.org/2000/svg">
<g clip-path="url(#clip0_306_17740)">
<path d="M17.2744 4.09477L13.8994 0.719775C13.8468 0.667642 13.7845 0.626396 13.7159 0.598404C13.6474 0.570411 13.574 0.556222 13.5 0.55665H2.25C1.80245 0.55665 1.37322 0.73444 1.05676 1.05091C0.74029 1.36737 0.5625 1.7966 0.5625 2.24415V15.7442C0.5625 16.1917 0.74029 16.6209 1.05676 16.9374C1.37322 17.2539 1.80245 17.4317 2.25 17.4317H15.75C16.1976 17.4317 16.6268 17.2539 16.9432 16.9374C17.2597 16.6209 17.4375 16.1917 17.4375 15.7442V4.49415C17.4379 4.42012 17.4237 4.34674 17.3957 4.2782C17.3678 4.20967 17.3265 4.14734 17.2744 4.09477ZM11.25 1.68165V5.05665H6.75V1.68165H11.25ZM4.5 16.3067V12.3692C4.5 12.22 4.55926 12.0769 4.66475 11.9714C4.77024 11.8659 4.91332 11.8067 5.0625 11.8067H12.9375C13.0867 11.8067 13.2298 11.8659 13.3352 11.9714C13.4407 12.0769 13.5 12.22 13.5 12.3692V16.3067H4.5ZM16.3125 15.7442C16.3125 15.8933 16.2532 16.0364 16.1477 16.1419C16.0423 16.2474 15.8992 16.3067 15.75 16.3067H14.625V12.3692C14.625 11.9216 14.4472 11.4924 14.1307 11.1759C13.8143 10.8594 13.3851 10.6817 12.9375 10.6817H5.0625C4.61495 10.6817 4.18572 10.8594 3.86926 11.1759C3.55279 11.4924 3.375 11.9216 3.375 12.3692V16.3067H2.25C2.10082 16.3067 1.95774 16.2474 1.85225 16.1419C1.74676 16.0364 1.6875 15.8933 1.6875 15.7442V2.24415C1.6875 2.09497 1.74676 1.95189 1.85225 1.8464C1.95774 1.74091 2.10082 1.68165 2.25 1.68165H5.625V5.05665C5.625 5.35502 5.74353 5.64117 5.9545 5.85215C6.16548 6.06312 6.45163 6.18165 6.75 6.18165H11.25C11.5484 6.18165 11.8345 6.06312 12.0455 5.85215C12.2565 5.64117 12.375 5.35502 12.375 5.05665V1.68165H13.2694L16.3125 4.72477V15.7442Z" fill="#1075FF"/>
</g>
<defs>
<clipPath id="clip0_306_17740">
<rect width="18" height="18" fill="white" transform="translate(0 -0.00585938)"/>
</clipPath>
</defs>
</svg>
