<svg width="17" height="18" viewBox="0 0 17 18" fill="none" xmlns="http://www.w3.org/2000/svg">
<path fill-rule="evenodd" clip-rule="evenodd" d="M6.98763 0.853516C3.28272 0.853516 0.279297 3.85694 0.279297 7.56185C0.279297 11.2668 3.28272 14.2702 6.98763 14.2702C8.49445 14.2702 9.88524 13.7734 11.0051 12.9346L14.9351 16.8646C15.3093 17.2388 15.9161 17.2388 16.2903 16.8646C16.6646 16.4903 16.6646 15.8835 16.2903 15.5093L12.3604 11.5793C13.1992 10.4595 13.696 9.06867 13.696 7.56185C13.696 3.85694 10.6925 0.853516 6.98763 0.853516ZM2.19596 7.56185C2.19596 4.91548 4.34127 2.77018 6.98763 2.77018C9.634 2.77018 11.7793 4.91548 11.7793 7.56185C11.7793 10.2082 9.634 12.3535 6.98763 12.3535C4.34127 12.3535 2.19596 10.2082 2.19596 7.56185Z" fill="white"/>
</svg>
