<svg width="27" height="28" viewBox="0 0 27 28" fill="none" xmlns="http://www.w3.org/2000/svg">
<path fill-rule="evenodd" clip-rule="evenodd" d="M13.5 0.5C12.9394 0.5 12.4849 0.95444 12.4849 1.51504V5.92509C12.4849 6.48567 12.9394 6.94013 13.5 6.94013C14.0606 6.94013 14.515 6.48567 14.515 5.92509V2.57438C20.3743 3.08815 24.9699 8.00737 24.9699 14C24.9699 20.3347 19.8347 25.4699 13.5 25.4699C7.16533 25.4699 2.03008 20.3347 2.03008 14C2.03008 11.1703 3.05342 8.58233 4.75141 6.58194C5.11418 6.15457 5.06181 5.51402 4.63442 5.15125C4.20705 4.78847 3.5665 4.84085 3.20372 5.26822C1.20601 7.6217 0 10.6713 0 14C0 21.4559 6.04414 27.5 13.5 27.5C20.9559 27.5 27 21.4559 27 14C27 6.54414 20.9559 0.5 13.5 0.5ZM11.9582 15.1789L6.84876 8.05673C6.70397 7.8549 6.72661 7.57793 6.90225 7.40229C7.07787 7.22665 7.35486 7.20401 7.55666 7.3488L14.6789 12.4582C15.6565 13.1596 15.7718 14.5703 14.921 15.4211C14.0703 16.2719 12.6595 16.1565 11.9582 15.1789Z" fill="#25AAE6"/>
</svg>
