<svg width="19" height="18" viewBox="0 0 19 18" fill="none" xmlns="http://www.w3.org/2000/svg">
<path d="M2.55 17.4685C2.055 17.4685 1.6314 17.2653 1.2792 16.859C0.927 16.4528 0.7506 15.9638 0.75 15.3921V2.9338C0.75 2.3628 0.9264 1.87416 1.2792 1.46788C1.632 1.0616 2.0556 0.858114 2.55 0.857422H7.2075C7.4475 0.857422 7.6764 0.909331 7.8942 1.01315C8.112 1.11697 8.3031 1.26405 8.4675 1.45438L9.75 2.9338H16.95C17.445 2.9338 17.8689 3.13729 18.2217 3.54426C18.5745 3.95123 18.7506 4.43987 18.75 5.01018V15.3921C18.75 15.9631 18.5739 16.4521 18.2217 16.859C17.8695 17.266 17.4456 17.4691 16.95 17.4685H2.55ZM2.55 15.3921H16.95V5.01018H9.0075L7.2075 2.9338H2.55V15.3921ZM9.75 14.3539C10.005 14.3539 10.2189 14.2542 10.3917 14.0549C10.5645 13.8556 10.6506 13.6092 10.65 13.3157V9.99349L11.46 10.9279C11.625 11.1182 11.835 11.2134 12.09 11.2134C12.345 11.2134 12.555 11.1182 12.72 10.9279C12.885 10.7375 12.9675 10.4953 12.9675 10.2011C12.9675 9.90697 12.885 9.66473 12.72 9.47439L10.38 6.7751C10.2 6.56746 9.99 6.46364 9.75 6.46364C9.51 6.46364 9.3 6.56746 9.12 6.7751L6.78 9.47439C6.615 9.66473 6.5325 9.90697 6.5325 10.2011C6.5325 10.4953 6.615 10.7375 6.78 10.9279C6.945 11.1182 7.155 11.2134 7.41 11.2134C7.665 11.2134 7.875 11.1182 8.04 10.9279L8.85 9.99349V13.3157C8.85 13.6098 8.9364 13.8566 9.1092 14.0559C9.282 14.2553 9.4956 14.3546 9.75 14.3539Z" fill="#25AAE6"/>
</svg>
