<svg width="30" height="30" viewBox="0 0 30 30" fill="none" xmlns="http://www.w3.org/2000/svg">
<rect x="1" y="1" width="28" height="28" rx="14" stroke="#25AAE6" stroke-width="2"/>
<path d="M15 6C16.0609 6 17.0783 6.42143 17.8284 7.17157C18.5786 7.92172 19 8.93913 19 10C19 11.0609 18.5786 12.0783 17.8284 12.8284C17.0783 13.5786 16.0609 14 15 14C13.9391 14 12.9217 13.5786 12.1716 12.8284C11.4214 12.0783 11 11.0609 11 10C11 8.93913 11.4214 7.92172 12.1716 7.17157C12.9217 6.42143 13.9391 6 15 6ZM15 13.5556C19.42 13.5556 23 17.3333 23 20.6667V22H7V20.6667C7 17.3333 10.58 13.5556 15 13.5556Z" fill="#25AAE6"/>
</svg>
