<svg width="16" height="22" viewBox="0 0 16 22" fill="none" xmlns="http://www.w3.org/2000/svg">
<path d="M8.25 1C11.9766 1 15 3.87766 15 7.42188C15 11.5 10.5 17.9627 8.84766 20.1948C8.77907 20.2891 8.68917 20.3657 8.58531 20.4186C8.48144 20.4715 8.36655 20.499 8.25 20.499C8.13345 20.499 8.01856 20.4715 7.91469 20.4186C7.81083 20.3657 7.72093 20.2891 7.65234 20.1948C6 17.9636 1.5 11.5033 1.5 7.42188C1.5 3.87766 4.52344 1 8.25 1Z" stroke="#E80505" stroke-width="1.5" stroke-linecap="round" stroke-linejoin="round"/>
<path d="M8.25 10.0154C7.03325 10.0154 6.04688 9.02911 6.04688 7.81241C6.04688 6.59571 7.03325 5.60938 8.25 5.60938C9.46675 5.60938 10.4531 6.59571 10.4531 7.81241C10.4531 9.02911 9.46675 10.0154 8.25 10.0154Z" stroke="#E80505" stroke-width="1.5" stroke-linecap="round" stroke-linejoin="round"/>
</svg>
