<svg width="27" height="33" viewBox="0 0 27 33" fill="none" xmlns="http://www.w3.org/2000/svg">
<path d="M17.2953 15.3341C17.2953 16.3187 16.6249 17.1257 15.7758 17.1257C14.9416 17.1257 14.2563 16.3187 14.2563 15.3341C14.2563 14.3494 14.9267 13.5424 15.7758 13.5424C16.6249 13.5424 17.2953 14.3494 17.2953 15.3341ZM10.3385 13.5424C9.48933 13.5424 8.81897 14.3494 8.81897 15.3341C8.81897 16.3187 9.50422 17.1257 10.3385 17.1257C11.1876 17.1257 11.8579 16.3187 11.8579 15.3341C11.8728 14.3494 11.1876 13.5424 10.3385 13.5424ZM26.0696 3.32507V32.2822C22.3166 28.6887 23.5169 29.8782 19.1574 25.4868L19.947 28.4729H3.05387C1.37052 28.4729 0 26.9879 0 25.1479V3.32507C0 1.48498 1.37052 0 3.05387 0H23.0157C24.6991 0 26.0696 1.48498 26.0696 3.32507ZM21.824 18.6268C21.824 13.4294 19.6788 9.21658 19.6788 9.21658C17.5337 7.47334 15.4928 7.52176 15.4928 7.52176L15.2842 7.78002C17.8167 8.61935 18.9936 9.82994 18.9936 9.82994C15.4549 7.7285 11.2981 7.72813 7.86556 9.36185C7.31438 9.63624 6.98665 9.82994 6.98665 9.82994C6.98665 9.82994 8.22309 8.55479 10.9045 7.71545L10.7556 7.52176C10.7556 7.52176 8.71469 7.47334 6.56953 9.21658C6.56953 9.21658 4.42438 13.4294 4.42438 18.6268C4.42438 18.6268 5.67572 20.9673 8.96794 21.0803C8.96794 21.0803 9.51912 20.3539 9.96603 19.7406C8.07412 19.1272 7.35907 17.8359 7.35907 17.8359C7.57822 18.0021 7.93958 18.2176 7.96984 18.2395C10.4843 19.7652 14.0559 20.265 17.2655 18.8044C17.7869 18.5946 18.3679 18.2879 18.9787 17.8521C18.9787 17.8521 18.2338 19.1756 16.2823 19.7729C16.7292 20.3862 17.2655 21.0803 17.2655 21.0803C20.5577 20.9673 21.824 18.6268 21.824 18.6268Z" fill="#FFFAFA"/>
</svg>
