<svg width="26" height="28" viewBox="0 0 26 28" fill="none" xmlns="http://www.w3.org/2000/svg">
<path d="M23.2143 0H2.78571C1.24777 0 0 1.34375 0 3V25C0 26.6562 1.24777 28 2.78571 28H23.2143C24.7522 28 26 26.6562 26 25V3C26 1.34375 24.7522 0 23.2143 0ZM16.0933 23.9813C15.6058 24.075 15.4259 23.75 15.4259 23.4813C15.4259 23.1438 15.4375 21.4187 15.4375 20.025C15.4375 19.05 15.1357 18.4313 14.7817 18.1063C16.929 17.85 19.1924 17.5312 19.1924 13.5375C19.1924 12.4 18.8152 11.8313 18.2 11.1C18.2987 10.8313 18.6295 9.725 18.1013 8.2875C17.2946 8.01875 15.4491 9.40625 15.4491 9.40625C14.683 9.175 13.8531 9.05625 13.0348 9.05625C12.2165 9.05625 11.3866 9.175 10.6205 9.40625C10.6205 9.40625 8.775 8.01875 7.9683 8.2875C7.44018 9.71875 7.76518 10.825 7.86964 11.1C7.25446 11.8313 6.96429 12.4 6.96429 13.5375C6.96429 17.5125 9.12902 17.85 11.2763 18.1063C10.9978 18.375 10.7482 18.8375 10.6612 19.5C10.1098 19.7687 8.69955 20.2313 7.85804 18.6313C7.32991 17.6438 6.37812 17.5625 6.37812 17.5625C5.43795 17.55 6.31429 18.2 6.31429 18.2C6.94107 18.5125 7.38214 19.7125 7.38214 19.7125C7.94509 21.5688 10.6379 20.9438 10.6379 20.9438C10.6379 21.8125 10.6496 23.225 10.6496 23.4813C10.6496 23.75 10.4754 24.075 9.98214 23.9813C6.15179 22.6 3.47054 18.675 3.47054 14.0875C3.47054 8.35 7.54464 3.99375 12.8723 3.99375C18.2 3.99375 22.5179 8.35 22.5179 14.0875C22.5237 18.675 19.9237 22.6063 16.0933 23.9813ZM10.4 20.1625C10.2897 20.1875 10.1853 20.1375 10.1737 20.0562C10.1621 19.9625 10.2375 19.8813 10.3478 19.8563C10.458 19.8438 10.5625 19.8938 10.5741 19.975C10.5915 20.0562 10.5161 20.1375 10.4 20.1625ZM9.84866 20.1063C9.84866 20.1875 9.76161 20.2563 9.64554 20.2563C9.51786 20.2688 9.4308 20.2 9.4308 20.1063C9.4308 20.025 9.51786 19.9562 9.63393 19.9562C9.7442 19.9437 9.84866 20.0125 9.84866 20.1063ZM9.05357 20.0375C9.03036 20.1187 8.91428 20.1562 8.81562 20.1187C8.70536 20.0938 8.62991 20 8.65312 19.9188C8.67634 19.8375 8.79241 19.8 8.89107 19.825C9.00714 19.8625 9.08259 19.9563 9.05357 20.0375ZM8.33973 19.7C8.2875 19.7688 8.17723 19.7563 8.09018 19.6625C8.00312 19.5813 7.97991 19.4625 8.03795 19.4062C8.09018 19.3375 8.20045 19.35 8.2875 19.4438C8.36295 19.525 8.39196 19.65 8.33973 19.7ZM7.81161 19.1313C7.75938 19.1688 7.66071 19.1313 7.59687 19.0375C7.53304 18.9438 7.53304 18.8375 7.59687 18.7938C7.66071 18.7375 7.75938 18.7812 7.81161 18.875C7.87545 18.9688 7.87545 19.0813 7.81161 19.1313ZM7.43438 18.525C7.38214 18.5812 7.29509 18.55 7.23125 18.4875C7.16741 18.4062 7.1558 18.3125 7.20804 18.2687C7.26027 18.2125 7.34732 18.2437 7.41116 18.3062C7.475 18.3875 7.48661 18.4812 7.43438 18.525ZM7.04554 18.0625C7.02232 18.1187 6.94687 18.1313 6.88304 18.0875C6.80759 18.05 6.77277 17.9812 6.79598 17.925C6.8192 17.8875 6.88304 17.8687 6.95848 17.9C7.03393 17.9438 7.06875 18.0125 7.04554 18.0625Z" fill="#FFFAFA"/>
</svg>
