<svg width="27" height="29" viewBox="0 0 27 29" fill="none" xmlns="http://www.w3.org/2000/svg">
<path d="M2 0C0.895431 0 0 0.895431 0 2V26.2471C0 27.3516 0.895431 28.2471 2 28.2471H24.0695C25.1741 28.2471 26.0695 27.3516 26.0695 26.2471V2C26.0695 0.895431 25.1741 0 24.0695 0H2ZM21.6586 6.59917C21.6586 6.65729 21.6361 6.71315 21.5958 6.75502L20.2621 8.13995C20.1777 8.20957 20.1239 8.30922 20.1063 8.41611C20.0904 8.51259 20.105 8.61148 20.105 8.70926V19.237C20.0896 19.3453 20.1097 19.4536 20.1604 19.5419C20.2123 19.6322 20.2979 19.6975 20.3694 19.7732L21.5668 21.0431C21.6071 21.0859 21.6296 21.1423 21.6296 21.201C21.6296 21.3282 21.5265 21.4312 21.3994 21.4312H14.9838C14.8619 21.4312 14.763 21.3324 14.763 21.2104C14.763 21.1538 14.7848 21.0994 14.8238 21.0583L16.1771 19.6342C16.3167 19.4829 16.3167 19.4388 16.3167 19.2118C16.3167 17.5104 13.9487 17.0933 13.3674 18.6923L12.476 21.1439C12.4202 21.2975 12.2743 21.3997 12.1109 21.3997C11.9549 21.3997 11.814 21.3063 11.7531 21.1626L10.1002 17.2574C9.47509 15.7806 7.27386 16.2273 7.27386 17.831C7.23313 18.1336 7.33205 18.4426 7.5299 18.6632L9.31959 21.0136C9.35147 21.0554 9.36873 21.1066 9.36873 21.1592C9.36873 21.292 9.26108 21.3997 9.12829 21.3997H4.38363C4.25084 21.3997 4.14319 21.292 4.14319 21.1592C4.14319 21.1066 4.16046 21.0554 4.19234 21.0136L5.98202 18.6632C6.1467 18.4796 6.23478 18.2347 6.23284 17.9833C6.23206 17.8815 6.22061 17.7798 6.22061 17.678V9.44512C6.23874 9.26338 6.19331 9.08548 6.09532 8.9412C6.03952 8.85904 5.96918 8.7876 5.90883 8.70872L4.41374 6.75437C4.38169 6.71247 4.36432 6.66118 4.36432 6.60842C4.36432 6.47575 4.47187 6.3682 4.60453 6.3682H8.11551C8.92066 6.3682 9.64731 6.85101 9.95928 7.59327L11.4044 11.0315C12.1072 12.7037 14.4943 12.6518 15.1238 10.9506L16.3339 7.68043C16.6244 6.89556 17.3727 6.37451 18.2096 6.37451H21.434C21.5581 6.37451 21.6586 6.47509 21.6586 6.59917Z" fill="#FFFAFA"/>
</svg>
