<svg width="174" height="85" viewBox="0 0 174 85" fill="none" xmlns="http://www.w3.org/2000/svg">
<path d="M14.9692 19.9385H10V64.6611H14.9692V19.9385Z" fill="#FFF3F3" stroke="#24273F" stroke-width="20"/>
<path d="M19.9375 14.9692V10.1714V10H163.873V14.9692H19.9375Z" fill="#FFF3F3" stroke="#24273F" stroke-width="20"/>
<path d="M19.9375 74.5996V69.8017V69.6304H163.873V74.5996H19.9375Z" fill="#FFF3F3" stroke="#24273F" stroke-width="20"/>
<path d="M19.937 19.9384V14.9692H14.9678V19.9384H19.937Z" fill="#FFF3F3" stroke="#24273F" stroke-width="20"/>
<path d="M19.937 69.6303V64.6611H14.9678V69.6303H19.937Z" fill="#FFF3F3" stroke="#24273F" stroke-width="20"/>
<path d="M149.843 19.9385H154.812V64.6611H149.843V19.9385Z" fill="#FFF3F3" stroke="#24273F" stroke-width="20"/>
<path d="M144.875 19.9379V14.9688H149.844V19.9379H144.875Z" fill="#FFF3F3" stroke="#24273F" stroke-width="20"/>
<path d="M144.875 69.6303V64.6611H149.844V69.6303H144.875Z" fill="#FFF3F3" stroke="#24273F" stroke-width="20"/>
<path d="M15.3086 39.9863V64.4223H20.2778V69.4587H163.527V64.5035H168.497V39.9863H16.1653H15.3086Z" fill="#FBFFE4"/>
<path d="M168.5 39.9863V20.348H163.531V15.3117H20.2812V20.2668H15.312V39.9863H168.5Z" fill="#FBFFE4"/>
</svg>
