<svg width="26" height="29" viewBox="0 0 26 29" fill="none" xmlns="http://www.w3.org/2000/svg">
<path d="M23.2143 0H2.78571C1.24777 0 0 1.35199 0 3.01839V25.1533C0 26.8197 1.24777 28.1717 2.78571 28.1717H23.2143C24.7522 28.1717 26 26.8197 26 25.1533V3.01839C26 1.35199 24.7522 0 23.2143 0ZM20.3763 9.98585C20.3879 10.1619 20.3879 10.3443 20.3879 10.5204C20.3879 15.9723 16.5576 22.2544 9.55848 22.2544C7.39955 22.2544 5.39732 21.5752 3.71429 20.4056C4.02187 20.4433 4.31786 20.4559 4.63125 20.4559C6.41295 20.4559 8.04955 19.8019 9.35536 18.6952C7.68393 18.6574 6.27946 17.469 5.79777 15.834C6.38393 15.9283 6.91205 15.9283 7.51562 15.7585C5.77455 15.3749 4.46875 13.7148 4.46875 11.7089V11.6585C4.97366 11.9667 5.56562 12.1553 6.18661 12.1805C5.66453 11.8042 5.23655 11.2937 4.94085 10.6946C4.64515 10.0955 4.49094 9.42645 4.49196 8.74706C4.49196 7.97988 4.67768 7.27559 5.00848 6.66562C6.88304 9.16837 9.69777 10.8033 12.8549 10.9794C12.3152 8.18111 14.2478 5.91102 16.5692 5.91102C17.6661 5.91102 18.6527 6.4078 19.3491 7.2127C20.208 7.03663 21.0321 6.69077 21.7634 6.21915C21.479 7.17497 20.8813 7.97988 20.092 8.48923C20.858 8.4012 21.6009 8.16853 22.2857 7.84783C21.7692 8.6716 21.1192 9.40104 20.3763 9.98585Z" fill="#FFFAFA"/>
</svg>
