<svg width="758" height="711" viewBox="0 0 758 711" fill="none" xmlns="http://www.w3.org/2000/svg">
<circle cx="384" cy="353" r="183" stroke="#181246" stroke-width="4" stroke-linecap="round" stroke-linejoin="round"/>
<circle cx="384" cy="353" r="151.5" fill="#140D46" stroke="#212143"/>
<path d="M303.302 70.2919C334.822 61.2946 367.625 57.6319 400.353 59.4552L399.25 79.2581C368.73 77.5578 338.14 80.9735 308.746 89.3638L303.302 70.2919Z" fill="#F24B40"/>
<path d="M159.478 163.195C196.15 119.816 244.603 87.9885 298.979 71.5618L304.715 90.548C254.007 105.866 208.823 135.546 174.625 175.999L159.478 163.195Z" fill="#FD6191"/>
<path d="M98.1763 284.147C108.45 241.5 128.136 201.692 155.793 167.642L171.188 180.147C145.397 211.9 127.039 249.022 117.458 288.791L98.1763 284.147Z" fill="#F5912F"/>
<path d="M98.9085 424.825C87.7107 380.378 87.0603 333.929 97.0092 289.186L116.37 293.491C107.092 335.215 107.699 378.531 118.141 419.98L98.9085 424.825Z" fill="#F0B63C"/>
<path d="M213.607 592.588C158.479 553.381 118.557 496.362 100.576 431.146L119.696 425.874C136.464 486.69 173.693 539.863 225.102 576.425L213.607 592.588Z" fill="#EDDB5C"/>
<path d="M508.722 619.234C462.869 640.714 412.245 649.988 361.756 646.157C311.266 642.326 262.621 625.52 220.535 597.367L231.562 580.881C270.81 607.135 316.173 622.808 363.256 626.38C410.34 629.953 457.548 621.305 500.308 601.273L508.722 619.234Z" fill="#B3C83C"/>
<path d="M663.502 444.185C651.527 480.89 632.441 514.876 607.331 544.205C582.222 573.533 551.582 597.628 517.16 615.115L508.177 597.432C540.276 581.125 568.85 558.655 592.265 531.306C615.68 503.956 633.48 472.262 644.646 438.033L663.502 444.185Z" fill="#47B735"/>
<path d="M644.111 215.966C680.454 284.951 687.905 365.549 664.824 440.028L645.879 434.157C667.403 364.702 660.455 289.542 626.563 225.21L644.111 215.966Z" fill="#00A4E9"/>
<path d="M564.283 120.763C595.841 145.262 622.076 175.935 641.384 210.91L624.02 220.495C606.015 187.88 581.55 159.276 552.121 136.43L564.283 120.763Z" fill="#7C2CE2"/>
<path d="M405.48 59.7857C461.67 63.9019 515.494 84.077 560.546 117.91L548.636 133.769C506.623 102.219 456.43 83.4049 404.031 79.5663L405.48 59.7857Z" fill="#D246DD"/>
<path d="M693.484 303H695.554V289.878H691.81V291.75H693.484V303ZM698.013 289.932V291.678H704.673L699.615 303H701.685L706.689 291.462V289.932H698.013ZM708.121 293.046C708.121 294.846 709.291 295.872 710.857 295.872C712.423 295.872 713.593 294.846 713.593 293.046C713.593 291.264 712.423 290.238 710.857 290.238C709.291 290.238 708.121 291.264 708.121 293.046ZM710.857 291.48C711.541 291.48 711.991 291.93 711.991 293.046C711.991 294.162 711.541 294.63 710.857 294.63C710.155 294.63 709.723 294.162 709.723 293.046C709.723 291.93 710.155 291.48 710.857 291.48ZM709.903 303H711.919L719.101 290.472H717.085L709.903 303ZM715.447 300.408C715.447 302.208 716.617 303.234 718.183 303.234C719.731 303.234 720.901 302.208 720.901 300.408C720.901 298.608 719.731 297.6 718.183 297.6C716.617 297.6 715.447 298.608 715.447 300.408ZM718.165 298.842C718.849 298.842 719.299 299.292 719.299 300.408C719.299 301.524 718.849 301.974 718.165 301.974C717.481 301.974 717.031 301.524 717.031 300.408C717.031 299.292 717.481 298.842 718.165 298.842ZM694.402 320.25V316.164H696.67C698.272 316.164 698.992 316.92 698.992 318.216C698.992 319.476 698.272 320.25 696.67 320.25H694.402ZM701.098 318.216C701.098 316.182 699.64 314.49 696.67 314.49H692.35V327H694.402V321.924H696.67C699.928 321.924 701.098 319.998 701.098 318.216ZM705.107 321.78C705.107 319.674 706.043 319.044 707.555 319.044H708.077V316.92C706.673 316.92 705.683 317.532 705.107 318.522V317.082H703.055V327H705.107V321.78ZM714.139 318.648C715.669 318.648 716.875 319.62 716.911 321.15H711.421C711.637 319.584 712.753 318.648 714.139 318.648ZM718.783 324.048H716.569C716.191 324.822 715.489 325.434 714.229 325.434C712.717 325.434 711.547 324.444 711.403 322.806H718.981C719.035 322.464 719.053 322.14 719.053 321.798C719.053 318.882 717.055 316.92 714.229 316.92C711.295 316.92 709.279 318.918 709.279 322.032C709.279 325.146 711.385 327.162 714.229 327.162C716.659 327.162 718.225 325.776 718.783 324.048ZM728.471 324.228C728.363 320.646 722.765 321.762 722.765 319.764C722.765 319.098 723.341 318.648 724.439 318.648C725.555 318.648 726.221 319.242 726.293 320.106H728.345C728.237 318.126 726.761 316.92 724.511 316.92C722.171 316.92 720.695 318.198 720.695 319.782C720.695 323.418 726.455 322.302 726.455 324.246C726.455 324.93 725.825 325.434 724.637 325.434C723.503 325.434 722.729 324.768 722.657 323.958H720.533C720.623 325.758 722.297 327.162 724.673 327.162C727.013 327.162 728.471 325.902 728.471 324.228ZM730.004 321.996C730.004 325.056 732.074 327.162 734.648 327.162C736.304 327.162 737.492 326.37 738.122 325.524V327H740.192V317.082H738.122V318.522C737.51 317.712 736.358 316.92 734.684 316.92C732.074 316.92 730.004 318.936 730.004 321.996ZM738.122 322.032C738.122 324.174 736.664 325.38 735.116 325.38C733.586 325.38 732.11 324.138 732.11 321.996C732.11 319.854 733.586 318.702 735.116 318.702C736.664 318.702 738.122 319.908 738.122 322.032ZM742.887 327H744.939V313.68H742.887V327ZM751.809 318.648C753.339 318.648 754.545 319.62 754.581 321.15H749.091C749.307 319.584 750.423 318.648 751.809 318.648ZM756.453 324.048H754.239C753.861 324.822 753.159 325.434 751.899 325.434C750.387 325.434 749.217 324.444 749.073 322.806H756.651C756.705 322.464 756.723 322.14 756.723 321.798C756.723 318.882 754.725 316.92 751.899 316.92C748.965 316.92 746.949 318.918 746.949 322.032C746.949 325.146 749.055 327.162 751.899 327.162C754.329 327.162 755.895 325.776 756.453 324.048Z" fill="white"/>
<path d="M81.3688 534H83.4388V520.878H79.6948V522.75H81.3688V534ZM86.2577 527.268C86.2577 531.084 87.2657 533.964 90.9377 533.964C94.6097 533.964 95.6177 531.084 95.6177 527.268C95.6177 523.524 94.6097 520.644 90.9377 520.644C87.2657 520.644 86.2577 523.524 86.2577 527.268ZM93.6017 527.268C93.6017 529.842 93.3317 532.092 90.9377 532.092C88.5437 532.092 88.2737 529.842 88.2737 527.268C88.2737 524.82 88.5437 522.516 90.9377 522.516C93.3317 522.516 93.6017 524.82 93.6017 527.268ZM97.465 524.046C97.465 525.846 98.635 526.872 100.201 526.872C101.767 526.872 102.937 525.846 102.937 524.046C102.937 522.264 101.767 521.238 100.201 521.238C98.635 521.238 97.465 522.264 97.465 524.046ZM100.201 522.48C100.885 522.48 101.335 522.93 101.335 524.046C101.335 525.162 100.885 525.63 100.201 525.63C99.499 525.63 99.067 525.162 99.067 524.046C99.067 522.93 99.499 522.48 100.201 522.48ZM99.247 534H101.263L108.445 521.472H106.429L99.247 534ZM104.791 531.408C104.791 533.208 105.961 534.234 107.527 534.234C109.075 534.234 110.245 533.208 110.245 531.408C110.245 529.608 109.075 528.6 107.527 528.6C105.961 528.6 104.791 529.608 104.791 531.408ZM107.509 529.842C108.193 529.842 108.643 530.292 108.643 531.408C108.643 532.524 108.193 532.974 107.509 532.974C106.825 532.974 106.375 532.524 106.375 531.408C106.375 530.292 106.825 529.842 107.509 529.842ZM59.5301 547.164H62.8781V558H64.9301V547.164H68.2601V545.49H59.5301V547.164ZM74.5143 549.648C76.0443 549.648 77.2503 550.62 77.2863 552.15H71.7963C72.0123 550.584 73.1283 549.648 74.5143 549.648ZM79.1583 555.048H76.9443C76.5663 555.822 75.8643 556.434 74.6043 556.434C73.0923 556.434 71.9223 555.444 71.7783 553.806H79.3563C79.4103 553.464 79.4283 553.14 79.4283 552.798C79.4283 549.882 77.4303 547.92 74.6043 547.92C71.6703 547.92 69.6543 549.918 69.6543 553.032C69.6543 556.146 71.7603 558.162 74.6043 558.162C77.0343 558.162 78.6003 556.776 79.1583 555.048ZM80.7637 552.996C80.7637 556.056 82.8337 558.162 85.4077 558.162C87.0637 558.162 88.2517 557.37 88.8817 556.524V558H90.9517V548.082H88.8817V549.522C88.2697 548.712 87.1177 547.92 85.4437 547.92C82.8337 547.92 80.7637 549.936 80.7637 552.996ZM88.8817 553.032C88.8817 555.174 87.4237 556.38 85.8757 556.38C84.3457 556.38 82.8697 555.138 82.8697 552.996C82.8697 550.854 84.3457 549.702 85.8757 549.702C87.4237 549.702 88.8817 550.908 88.8817 553.032ZM107.705 558H109.739V552.15C109.739 549.378 107.975 547.92 105.653 547.92C104.213 547.92 102.809 548.676 102.197 549.882C101.513 548.586 100.199 547.92 98.6329 547.92C97.4449 547.92 96.3649 548.406 95.6989 549.216V548.082H93.6469V558H95.6989V552.456C95.6989 550.638 96.6889 549.702 98.2009 549.702C99.6949 549.702 100.685 550.638 100.685 552.456V558H102.719V552.456C102.719 550.638 103.709 549.702 105.221 549.702C106.715 549.702 107.705 550.638 107.705 552.456V558Z" fill="white"/>
<path d="M330.078 17.82H338.826V16.11H333.12C335.226 14.184 338.466 11.754 338.466 8.568C338.466 6.21 336.954 4.608 334.29 4.608C331.968 4.608 330.132 5.994 330.06 8.838H332.04C332.094 7.362 332.868 6.354 334.308 6.354C335.838 6.354 336.432 7.29 336.432 8.658C336.432 11.232 333.174 13.608 330.078 16.326V17.82ZM340.305 8.046C340.305 9.846 341.475 10.872 343.041 10.872C344.607 10.872 345.777 9.846 345.777 8.046C345.777 6.264 344.607 5.238 343.041 5.238C341.475 5.238 340.305 6.264 340.305 8.046ZM343.041 6.48C343.725 6.48 344.175 6.93 344.175 8.046C344.175 9.162 343.725 9.63 343.041 9.63C342.339 9.63 341.907 9.162 341.907 8.046C341.907 6.93 342.339 6.48 343.041 6.48ZM342.087 18H344.103L351.285 5.472H349.269L342.087 18ZM347.631 15.408C347.631 17.208 348.801 18.234 350.367 18.234C351.915 18.234 353.085 17.208 353.085 15.408C353.085 13.608 351.915 12.6 350.367 12.6C348.801 12.6 347.631 13.608 347.631 15.408ZM350.349 13.842C351.033 13.842 351.483 14.292 351.483 15.408C351.483 16.524 351.033 16.974 350.349 16.974C349.665 16.974 349.215 16.524 349.215 15.408C349.215 14.292 349.665 13.842 350.349 13.842ZM288.142 35.25V31.164H290.41C292.012 31.164 292.732 31.92 292.732 33.216C292.732 34.476 292.012 35.25 290.41 35.25H288.142ZM294.838 33.216C294.838 31.182 293.38 29.49 290.41 29.49H286.09V42H288.142V36.924H290.41C293.668 36.924 294.838 34.998 294.838 33.216ZM305.777 32.082H303.725V37.608C303.725 39.426 302.735 40.362 301.223 40.362C299.729 40.362 298.739 39.426 298.739 37.608V32.082H296.705V37.914C296.705 40.686 298.469 42.144 300.791 42.144C301.961 42.144 303.077 41.658 303.725 40.812V42H305.777V32.082ZM310.537 33.558V28.68H308.485V42H310.537V40.56C311.185 41.424 312.355 42.162 313.993 42.162C316.603 42.162 318.655 40.056 318.655 36.996C318.655 33.936 316.621 31.92 313.993 31.92C312.427 31.92 311.185 32.658 310.537 33.558ZM316.567 36.996C316.567 39.138 315.091 40.38 313.543 40.38C312.013 40.38 310.537 39.174 310.537 37.032C310.537 34.908 312.013 33.702 313.543 33.702C315.091 33.702 316.567 34.854 316.567 36.996ZM320.684 42H322.736V28.68H320.684V42ZM325.43 42H327.482V32.082H325.43V42ZM326.474 30.768C327.194 30.768 327.77 30.192 327.77 29.454C327.77 28.716 327.194 28.14 326.474 28.14C325.736 28.14 325.16 28.716 325.16 29.454C325.16 30.192 325.736 30.768 326.474 30.768ZM329.492 37.032C329.492 40.146 331.508 42.162 334.352 42.162C336.782 42.162 338.366 40.812 338.924 38.868H336.71C336.332 39.894 335.576 40.434 334.352 40.434C332.696 40.434 331.598 39.21 331.598 37.032C331.598 34.872 332.696 33.648 334.352 33.648C335.576 33.648 336.368 34.26 336.71 35.214H338.924C338.366 33.126 336.782 31.92 334.352 31.92C331.508 31.92 329.492 33.936 329.492 37.032ZM347.697 36.78C347.697 34.674 348.633 34.044 350.145 34.044H350.667V31.92C349.263 31.92 348.273 32.532 347.697 33.522V32.082H345.645V42H347.697V36.78ZM362.003 37.032C362.003 33.918 359.771 31.92 356.945 31.92C354.119 31.92 351.887 33.918 351.887 37.032C351.887 40.146 354.029 42.162 356.855 42.162C359.699 42.162 362.003 40.146 362.003 37.032ZM353.975 37.032C353.975 34.782 355.361 33.702 356.909 33.702C358.439 33.702 359.897 34.782 359.897 37.032C359.897 39.282 358.385 40.38 356.855 40.38C355.307 40.38 353.975 39.282 353.975 37.032ZM373.014 32.082H370.962V37.608C370.962 39.426 369.972 40.362 368.46 40.362C366.966 40.362 365.976 39.426 365.976 37.608V32.082H363.942V37.914C363.942 40.686 365.706 42.144 368.028 42.144C369.198 42.144 370.314 41.658 370.962 40.812V42H373.014V32.082ZM382.759 42H384.793V36.15C384.793 33.378 383.047 31.92 380.725 31.92C379.537 31.92 378.439 32.406 377.773 33.216V32.082H375.721V42H377.773V36.456C377.773 34.638 378.763 33.702 380.275 33.702C381.769 33.702 382.759 34.638 382.759 36.456V42ZM386.727 36.996C386.727 40.056 388.797 42.162 391.407 42.162C393.027 42.162 394.215 41.406 394.845 40.506V42H396.915V28.68H394.845V33.468C394.089 32.532 392.721 31.92 391.425 31.92C388.797 31.92 386.727 33.936 386.727 36.996ZM394.845 37.032C394.845 39.174 393.387 40.38 391.839 40.38C390.309 40.38 388.833 39.138 388.833 36.996C388.833 34.854 390.309 33.702 391.839 33.702C393.387 33.702 394.845 34.908 394.845 37.032Z" fill="white"/>
<path d="M512.026 32.92C511.81 31.174 510.532 29.554 507.976 29.554C504.7 29.554 503.332 32.038 503.332 36.142C503.332 40.318 504.322 43 508.138 43C510.946 43 512.44 41.11 512.44 38.626C512.44 35.89 510.766 34.306 508.408 34.306C507.04 34.306 505.744 34.882 505.096 35.962C505.15 32.524 506.104 31.264 507.958 31.264C509.254 31.264 509.884 31.858 510.136 32.92H512.026ZM507.958 36.034C509.686 36.034 510.478 37.15 510.478 38.716C510.478 40.264 509.542 41.29 508.03 41.29C506.284 41.29 505.33 40.21 505.33 38.59C505.33 36.844 506.608 36.034 507.958 36.034ZM514.305 33.046C514.305 34.846 515.475 35.872 517.041 35.872C518.607 35.872 519.777 34.846 519.777 33.046C519.777 31.264 518.607 30.238 517.041 30.238C515.475 30.238 514.305 31.264 514.305 33.046ZM517.041 31.48C517.725 31.48 518.175 31.93 518.175 33.046C518.175 34.162 517.725 34.63 517.041 34.63C516.339 34.63 515.907 34.162 515.907 33.046C515.907 31.93 516.339 31.48 517.041 31.48ZM516.087 43H518.103L525.285 30.472H523.269L516.087 43ZM521.631 40.408C521.631 42.208 522.801 43.234 524.367 43.234C525.915 43.234 527.085 42.208 527.085 40.408C527.085 38.608 525.915 37.6 524.367 37.6C522.801 37.6 521.631 38.608 521.631 40.408ZM524.349 38.842C525.033 38.842 525.483 39.292 525.483 40.408C525.483 41.524 525.033 41.974 524.349 41.974C523.665 41.974 523.215 41.524 523.215 40.408C523.215 39.292 523.665 38.842 524.349 38.842ZM503.35 54.49V67H509.632V65.344H505.402V54.49H503.35ZM511.348 67H513.4V57.082H511.348V67ZM512.392 55.768C513.112 55.768 513.688 55.192 513.688 54.454C513.688 53.716 513.112 53.14 512.392 53.14C511.654 53.14 511.078 53.716 511.078 54.454C511.078 55.192 511.654 55.768 512.392 55.768ZM515.41 61.996C515.41 65.056 517.48 67.162 520.036 67.162C521.71 67.162 522.952 66.334 523.528 65.56V71.716H525.598V57.082H523.528V58.522C522.952 57.712 521.746 56.92 520.108 56.92C517.48 56.92 515.41 58.936 515.41 61.996ZM523.528 62.032C523.528 64.174 522.07 65.38 520.522 65.38C518.992 65.38 517.516 64.138 517.516 61.996C517.516 59.854 518.992 58.702 520.522 58.702C522.07 58.702 523.528 59.908 523.528 62.032ZM537.275 57.082H535.223V62.608C535.223 64.426 534.233 65.362 532.721 65.362C531.227 65.362 530.237 64.426 530.237 62.608V57.082H528.203V62.914C528.203 65.686 529.967 67.144 532.289 67.144C533.459 67.144 534.575 66.658 535.223 65.812V67H537.275V57.082ZM539.983 67H542.035V57.082H539.983V67ZM541.027 55.768C541.747 55.768 542.323 55.192 542.323 54.454C542.323 53.716 541.747 53.14 541.027 53.14C540.289 53.14 539.713 53.716 539.713 54.454C539.713 55.192 540.289 55.768 541.027 55.768ZM544.045 61.996C544.045 65.056 546.115 67.162 548.725 67.162C550.345 67.162 551.533 66.406 552.163 65.506V67H554.233V53.68H552.163V58.468C551.407 57.532 550.039 56.92 548.743 56.92C546.115 56.92 544.045 58.936 544.045 61.996ZM552.163 62.032C552.163 64.174 550.705 65.38 549.157 65.38C547.627 65.38 546.151 64.138 546.151 61.996C546.151 59.854 547.627 58.702 549.157 58.702C550.705 58.702 552.163 59.908 552.163 62.032ZM556.928 67H558.98V57.082H556.928V67ZM557.972 55.768C558.692 55.768 559.268 55.192 559.268 54.454C559.268 53.716 558.692 53.14 557.972 53.14C557.234 53.14 556.658 53.716 556.658 54.454C556.658 55.192 557.234 55.768 557.972 55.768ZM561.998 64.246C561.998 66.262 563.096 67 564.86 67H566.48V65.29H565.22C564.356 65.29 564.068 64.984 564.068 64.246V58.756H566.48V57.082H564.068V54.616H561.998V57.082H560.828V58.756H561.998V64.246ZM572.277 64.642L569.487 57.082H567.201L571.107 66.838L569.091 71.662H571.215L577.299 57.082H575.175L572.277 64.642Z" fill="white"/>
<path d="M168.029 73.436C168.191 75.308 169.451 76.982 172.169 76.982C175.607 76.982 176.543 74.624 176.543 70.196C176.543 65.894 175.409 63.572 172.025 63.572C169.271 63.572 167.669 65.3 167.669 67.91C167.669 70.682 169.541 72.104 171.845 72.104C173.033 72.104 174.167 71.654 174.761 70.826C174.761 74.174 173.933 75.272 172.295 75.272C170.927 75.272 170.153 74.606 169.919 73.436H168.029ZM172.205 70.376C170.387 70.376 169.631 69.206 169.631 67.856C169.631 66.344 170.549 65.282 172.079 65.282C173.573 65.282 174.527 66.236 174.527 67.91C174.527 69.386 173.663 70.376 172.205 70.376ZM178.465 67.046C178.465 68.846 179.635 69.872 181.201 69.872C182.767 69.872 183.937 68.846 183.937 67.046C183.937 65.264 182.767 64.238 181.201 64.238C179.635 64.238 178.465 65.264 178.465 67.046ZM181.201 65.48C181.885 65.48 182.335 65.93 182.335 67.046C182.335 68.162 181.885 68.63 181.201 68.63C180.499 68.63 180.067 68.162 180.067 67.046C180.067 65.93 180.499 65.48 181.201 65.48ZM180.247 77H182.263L189.445 64.472H187.429L180.247 77ZM185.791 74.408C185.791 76.208 186.961 77.234 188.527 77.234C190.075 77.234 191.245 76.208 191.245 74.408C191.245 72.608 190.075 71.6 188.527 71.6C186.961 71.6 185.791 72.608 185.791 74.408ZM188.509 72.842C189.193 72.842 189.643 73.292 189.643 74.408C189.643 75.524 189.193 75.974 188.509 75.974C187.825 75.974 187.375 75.524 187.375 74.408C187.375 73.292 187.825 72.842 188.509 72.842ZM97.8701 97.454C97.8701 92.882 91.2461 94.646 91.2461 91.82C91.2461 90.614 92.1641 90.038 93.3521 90.074C94.6481 90.11 95.3861 90.884 95.4581 91.73H97.7261C97.5461 89.588 95.8541 88.328 93.4601 88.328C90.9041 88.328 89.1581 89.696 89.1581 91.892C89.1581 96.5 95.8001 94.538 95.8001 97.562C95.8001 98.624 94.9901 99.398 93.5501 99.398C92.1281 99.398 91.4081 98.57 91.3181 97.544H89.1221C89.1221 99.758 91.0481 101.126 93.5501 101.126C96.3401 101.126 97.8701 99.326 97.8701 97.454ZM104.467 92.648C105.997 92.648 107.203 93.62 107.239 95.15H101.749C101.965 93.584 103.081 92.648 104.467 92.648ZM109.111 98.048H106.897C106.519 98.822 105.817 99.434 104.557 99.434C103.045 99.434 101.875 98.444 101.731 96.806H109.309C109.363 96.464 109.381 96.14 109.381 95.798C109.381 92.882 107.383 90.92 104.557 90.92C101.623 90.92 99.6074 92.918 99.6074 96.032C99.6074 99.146 101.713 101.162 104.557 101.162C106.987 101.162 108.553 99.776 109.111 98.048ZM115.577 92.648C117.107 92.648 118.313 93.62 118.349 95.15H112.859C113.075 93.584 114.191 92.648 115.577 92.648ZM120.221 98.048H118.007C117.629 98.822 116.927 99.434 115.667 99.434C114.155 99.434 112.985 98.444 112.841 96.806H120.419C120.473 96.464 120.491 96.14 120.491 95.798C120.491 92.882 118.493 90.92 115.667 90.92C112.733 90.92 110.717 92.918 110.717 96.032C110.717 99.146 112.823 101.162 115.667 101.162C118.097 101.162 119.663 99.776 120.221 98.048ZM121.826 95.996C121.826 99.056 123.896 101.162 126.506 101.162C128.126 101.162 129.314 100.406 129.944 99.506V101H132.014V87.68H129.944V92.468C129.188 91.532 127.82 90.92 126.524 90.92C123.896 90.92 121.826 92.936 121.826 95.996ZM129.944 96.032C129.944 98.174 128.486 99.38 126.938 99.38C125.408 99.38 123.932 98.138 123.932 95.996C123.932 93.854 125.408 92.702 126.938 92.702C128.486 92.702 129.944 93.908 129.944 96.032ZM141.437 95.78C141.437 93.674 142.373 93.044 143.885 93.044H144.407V90.92C143.003 90.92 142.013 91.532 141.437 92.522V91.082H139.385V101H141.437V95.78ZM155.743 96.032C155.743 92.918 153.511 90.92 150.685 90.92C147.859 90.92 145.627 92.918 145.627 96.032C145.627 99.146 147.769 101.162 150.595 101.162C153.439 101.162 155.743 99.146 155.743 96.032ZM147.715 96.032C147.715 93.782 149.101 92.702 150.649 92.702C152.179 92.702 153.637 93.782 153.637 96.032C153.637 98.282 152.125 99.38 150.595 99.38C149.047 99.38 147.715 98.282 147.715 96.032ZM166.754 91.082H164.702V96.608C164.702 98.426 163.712 99.362 162.2 99.362C160.706 99.362 159.716 98.426 159.716 96.608V91.082H157.682V96.914C157.682 99.686 159.446 101.144 161.768 101.144C162.938 101.144 164.054 100.658 164.702 99.812V101H166.754V91.082ZM176.499 101H178.533V95.15C178.533 92.378 176.787 90.92 174.465 90.92C173.277 90.92 172.179 91.406 171.513 92.216V91.082H169.461V101H171.513V95.456C171.513 93.638 172.503 92.702 174.015 92.702C175.509 92.702 176.499 93.638 176.499 95.456V101ZM180.467 95.996C180.467 99.056 182.537 101.162 185.147 101.162C186.767 101.162 187.955 100.406 188.585 99.506V101H190.655V87.68H188.585V92.468C187.829 91.532 186.461 90.92 185.165 90.92C182.537 90.92 180.467 92.936 180.467 95.996ZM188.585 96.032C188.585 98.174 187.127 99.38 185.579 99.38C184.049 99.38 182.573 98.138 182.573 95.996C182.573 93.854 184.049 92.702 185.579 92.702C187.127 92.702 188.585 93.908 188.585 96.032Z" fill="white"/>
<path d="M357.953 681H360.023V667.878H356.279V669.75H357.953V681ZM365.056 674.142C363.742 674.628 362.86 675.798 362.86 677.382C362.86 679.776 364.804 681.324 367.504 681.324C370.222 681.324 372.166 679.776 372.166 677.382C372.166 675.816 371.284 674.646 369.952 674.142C371.014 673.62 371.824 672.594 371.824 671.19C371.824 669.3 370.402 667.644 367.504 667.644C364.606 667.644 363.184 669.282 363.184 671.19C363.184 672.648 363.94 673.584 365.056 674.142ZM367.504 673.494C366.136 673.494 365.164 672.648 365.164 671.46C365.164 670.074 366.1 669.354 367.504 669.354C368.944 669.354 369.862 670.092 369.862 671.442C369.862 672.63 368.872 673.494 367.504 673.494ZM367.504 675.042C369.052 675.042 370.15 675.834 370.15 677.31C370.15 678.624 369.16 679.614 367.504 679.614C365.83 679.614 364.822 678.642 364.822 677.31C364.822 675.78 365.992 675.042 367.504 675.042ZM373.996 671.046C373.996 672.846 375.166 673.872 376.732 673.872C378.298 673.872 379.468 672.846 379.468 671.046C379.468 669.264 378.298 668.238 376.732 668.238C375.166 668.238 373.996 669.264 373.996 671.046ZM376.732 669.48C377.416 669.48 377.866 669.93 377.866 671.046C377.866 672.162 377.416 672.63 376.732 672.63C376.03 672.63 375.598 672.162 375.598 671.046C375.598 669.93 376.03 669.48 376.732 669.48ZM375.778 681H377.794L384.976 668.472H382.96L375.778 681ZM381.322 678.408C381.322 680.208 382.492 681.234 384.058 681.234C385.606 681.234 386.776 680.208 386.776 678.408C386.776 676.608 385.606 675.6 384.058 675.6C382.492 675.6 381.322 676.608 381.322 678.408ZM384.04 676.842C384.724 676.842 385.174 677.292 385.174 678.408C385.174 679.524 384.724 679.974 384.04 679.974C383.356 679.974 382.906 679.524 382.906 678.408C382.906 677.292 383.356 676.842 384.04 676.842ZM314.214 698.25V694.164H316.482C318.084 694.164 318.804 694.92 318.804 696.216C318.804 697.476 318.084 698.25 316.482 698.25H314.214ZM320.91 696.216C320.91 694.182 319.452 692.49 316.482 692.49H312.162V705H314.214V699.924H316.482C319.74 699.924 320.91 697.998 320.91 696.216ZM324.919 699.78C324.919 697.674 325.855 697.044 327.367 697.044H327.889V694.92C326.485 694.92 325.495 695.532 324.919 696.522V695.082H322.867V705H324.919V699.78ZM329.775 705H331.827V695.082H329.775V705ZM330.819 693.768C331.539 693.768 332.115 693.192 332.115 692.454C332.115 691.716 331.539 691.14 330.819 691.14C330.081 691.14 329.505 691.716 329.505 692.454C329.505 693.192 330.081 693.768 330.819 693.768ZM333.351 695.082L337.113 705H339.561L343.341 695.082H341.163L338.355 703.164L335.547 695.082H333.351ZM344.208 699.996C344.208 703.056 346.278 705.162 348.852 705.162C350.508 705.162 351.696 704.37 352.326 703.524V705H354.396V695.082H352.326V696.522C351.714 695.712 350.562 694.92 348.888 694.92C346.278 694.92 344.208 696.936 344.208 699.996ZM352.326 700.032C352.326 702.174 350.868 703.38 349.32 703.38C347.79 703.38 346.314 702.138 346.314 699.996C346.314 697.854 347.79 696.702 349.32 696.702C350.868 696.702 352.326 697.908 352.326 700.032ZM357.415 702.246C357.415 704.262 358.513 705 360.277 705H361.897V703.29H360.637C359.773 703.29 359.485 702.984 359.485 702.246V696.756H361.897V695.082H359.485V692.616H357.415V695.082H356.245V696.756H357.415V702.246ZM367.964 696.648C369.494 696.648 370.7 697.62 370.736 699.15H365.246C365.462 697.584 366.578 696.648 367.964 696.648ZM372.608 702.048H370.394C370.016 702.822 369.314 703.434 368.054 703.434C366.542 703.434 365.372 702.444 365.228 700.806H372.806C372.86 700.464 372.878 700.14 372.878 699.798C372.878 696.882 370.88 694.92 368.054 694.92C365.12 694.92 363.104 696.918 363.104 700.032C363.104 703.146 365.21 705.162 368.054 705.162C370.484 705.162 372.05 703.776 372.608 702.048ZM381.626 699.78C381.626 697.674 382.562 697.044 384.074 697.044H384.596V694.92C383.192 694.92 382.202 695.532 381.626 696.522V695.082H379.574V705H381.626V699.78ZM395.932 700.032C395.932 696.918 393.7 694.92 390.874 694.92C388.048 694.92 385.816 696.918 385.816 700.032C385.816 703.146 387.958 705.162 390.784 705.162C393.628 705.162 395.932 703.146 395.932 700.032ZM387.904 700.032C387.904 697.782 389.29 696.702 390.838 696.702C392.368 696.702 393.826 697.782 393.826 700.032C393.826 702.282 392.314 703.38 390.784 703.38C389.236 703.38 387.904 702.282 387.904 700.032ZM406.942 695.082H404.89V700.608C404.89 702.426 403.9 703.362 402.388 703.362C400.894 703.362 399.904 702.426 399.904 700.608V695.082H397.87V700.914C397.87 703.686 399.634 705.144 401.956 705.144C403.126 705.144 404.242 704.658 404.89 703.812V705H406.942V695.082ZM416.688 705H418.722V699.15C418.722 696.378 416.976 694.92 414.654 694.92C413.466 694.92 412.368 695.406 411.702 696.216V695.082H409.65V705H411.702V699.456C411.702 697.638 412.692 696.702 414.204 696.702C415.698 696.702 416.688 697.638 416.688 699.456V705ZM420.655 699.996C420.655 703.056 422.725 705.162 425.335 705.162C426.955 705.162 428.143 704.406 428.773 703.506V705H430.843V691.68H428.773V696.468C428.017 695.532 426.649 694.92 425.353 694.92C422.725 694.92 420.655 696.936 420.655 699.996ZM428.773 700.032C428.773 702.174 427.315 703.38 425.767 703.38C424.237 703.38 422.761 702.138 422.761 699.996C422.761 697.854 424.237 696.702 425.767 696.702C427.315 696.702 428.773 697.908 428.773 700.032Z" fill="white"/>
<path d="M54.8329 334.842V342.42H56.7769C57.1189 341.448 57.9289 340.782 59.1349 340.782C60.8449 340.782 61.6909 341.754 61.6909 343.464C61.6909 345.084 60.8989 346.29 59.1349 346.29C57.7489 346.29 56.8129 345.57 56.5429 344.454H54.5449C54.8509 346.506 56.4169 348 59.1169 348C62.1589 348 63.6529 346.02 63.6529 343.41C63.6529 341.43 62.6629 339.036 59.4409 339.036C58.2709 339.036 57.2089 339.576 56.7229 340.224V336.642H62.7529V334.842H54.8329ZM65.465 338.046C65.465 339.846 66.635 340.872 68.201 340.872C69.767 340.872 70.937 339.846 70.937 338.046C70.937 336.264 69.767 335.238 68.201 335.238C66.635 335.238 65.465 336.264 65.465 338.046ZM68.201 336.48C68.885 336.48 69.335 336.93 69.335 338.046C69.335 339.162 68.885 339.63 68.201 339.63C67.499 339.63 67.067 339.162 67.067 338.046C67.067 336.93 67.499 336.48 68.201 336.48ZM67.247 348H69.263L76.445 335.472H74.429L67.247 348ZM72.791 345.408C72.791 347.208 73.961 348.234 75.527 348.234C77.075 348.234 78.245 347.208 78.245 345.408C78.245 343.608 77.075 342.6 75.527 342.6C73.961 342.6 72.791 343.608 72.791 345.408ZM75.509 343.842C76.193 343.842 76.643 344.292 76.643 345.408C76.643 346.524 76.193 346.974 75.509 346.974C74.825 346.974 74.375 346.524 74.375 345.408C74.375 344.292 74.825 343.842 75.509 343.842ZM11.3076 372H13.4676L8.98563 359.472H6.60963L2.12763 372H4.26963L5.16963 369.444H10.4076L11.3076 372ZM9.83163 367.77H5.74563L7.79763 361.956L9.83163 367.77ZM14.7324 366.996C14.7324 370.056 16.8024 372.162 19.4124 372.162C21.0324 372.162 22.2204 371.406 22.8504 370.506V372H24.9204V358.68H22.8504V363.468C22.0944 362.532 20.7264 361.92 19.4304 361.92C16.8024 361.92 14.7324 363.936 14.7324 366.996ZM22.8504 367.032C22.8504 369.174 21.3924 370.38 19.8444 370.38C18.3144 370.38 16.8384 369.138 16.8384 366.996C16.8384 364.854 18.3144 363.702 19.8444 363.702C21.3924 363.702 22.8504 364.908 22.8504 367.032ZM26.4456 362.082L30.2076 372H32.6556L36.4356 362.082H34.2576L31.4496 370.164L28.6416 362.082H26.4456ZM37.9867 372H40.0387V362.082H37.9867V372ZM39.0307 360.768C39.7507 360.768 40.3267 360.192 40.3267 359.454C40.3267 358.716 39.7507 358.14 39.0307 358.14C38.2927 358.14 37.7167 358.716 37.7167 359.454C37.7167 360.192 38.2927 360.768 39.0307 360.768ZM50.1308 369.228C50.0228 365.646 44.4248 366.762 44.4248 364.764C44.4248 364.098 45.0008 363.648 46.0988 363.648C47.2148 363.648 47.8808 364.242 47.9528 365.106H50.0048C49.8968 363.126 48.4208 361.92 46.1708 361.92C43.8308 361.92 42.3548 363.198 42.3548 364.782C42.3548 368.418 48.1148 367.302 48.1148 369.246C48.1148 369.93 47.4848 370.434 46.2968 370.434C45.1628 370.434 44.3888 369.768 44.3168 368.958H42.1928C42.2828 370.758 43.9568 372.162 46.3328 372.162C48.6728 372.162 50.1308 370.902 50.1308 369.228ZM61.798 367.032C61.798 363.918 59.566 361.92 56.74 361.92C53.914 361.92 51.682 363.918 51.682 367.032C51.682 370.146 53.824 372.162 56.65 372.162C59.494 372.162 61.798 370.146 61.798 367.032ZM53.77 367.032C53.77 364.782 55.156 363.702 56.704 363.702C58.234 363.702 59.692 364.782 59.692 367.032C59.692 369.282 58.18 370.38 56.65 370.38C55.102 370.38 53.77 369.282 53.77 367.032ZM65.8786 366.78C65.8786 364.674 66.8146 364.044 68.3266 364.044H68.8486V361.92C67.4446 361.92 66.4546 362.532 65.8786 363.522V362.082H63.8266V372H65.8786V366.78ZM78.1328 369.228C78.0248 365.646 72.4268 366.762 72.4268 364.764C72.4268 364.098 73.0028 363.648 74.1008 363.648C75.2168 363.648 75.8828 364.242 75.9548 365.106H78.0068C77.8988 363.126 76.4228 361.92 74.1728 361.92C71.8328 361.92 70.3568 363.198 70.3568 364.782C70.3568 368.418 76.1168 367.302 76.1168 369.246C76.1168 369.93 75.4868 370.434 74.2988 370.434C73.1648 370.434 72.3908 369.768 72.3188 368.958H70.1948C70.2848 370.758 71.9588 372.162 74.3348 372.162C76.6748 372.162 78.1328 370.902 78.1328 369.228Z" fill="white"/>
<path d="M628.484 558H630.554V544.878H626.81V546.75H628.484V558ZM633.913 544.842V552.42H635.857C636.199 551.448 637.009 550.782 638.215 550.782C639.925 550.782 640.771 551.754 640.771 553.464C640.771 555.084 639.979 556.29 638.215 556.29C636.829 556.29 635.893 555.57 635.623 554.454H633.625C633.931 556.506 635.497 558 638.197 558C641.239 558 642.733 556.02 642.733 553.41C642.733 551.43 641.743 549.036 638.521 549.036C637.351 549.036 636.289 549.576 635.803 550.224V546.642H641.833V544.842H633.913ZM644.545 548.046C644.545 549.846 645.715 550.872 647.281 550.872C648.847 550.872 650.017 549.846 650.017 548.046C650.017 546.264 648.847 545.238 647.281 545.238C645.715 545.238 644.545 546.264 644.545 548.046ZM647.281 546.48C647.965 546.48 648.415 546.93 648.415 548.046C648.415 549.162 647.965 549.63 647.281 549.63C646.579 549.63 646.147 549.162 646.147 548.046C646.147 546.93 646.579 546.48 647.281 546.48ZM646.327 558H648.343L655.525 545.472H653.509L646.327 558ZM651.871 555.408C651.871 557.208 653.041 558.234 654.607 558.234C656.155 558.234 657.325 557.208 657.325 555.408C657.325 553.608 656.155 552.6 654.607 552.6C653.041 552.6 651.871 553.608 651.871 555.408ZM654.589 553.842C655.273 553.842 655.723 554.292 655.723 555.408C655.723 556.524 655.273 556.974 654.589 556.974C653.905 556.974 653.455 556.524 653.455 555.408C653.455 554.292 653.905 553.842 654.589 553.842ZM633.992 573.234C633.992 574.476 633.272 575.358 631.67 575.358H629.402V571.164H631.67C633.272 571.164 633.992 571.974 633.992 573.234ZM627.35 569.49V582H629.402V576.996H630.968L633.848 582H636.296L633.2 576.816C635.306 576.294 636.098 574.71 636.098 573.234C636.098 571.2 634.64 569.49 631.67 569.49H627.35ZM642.899 573.648C644.429 573.648 645.635 574.62 645.671 576.15H640.181C640.397 574.584 641.513 573.648 642.899 573.648ZM647.543 579.048H645.329C644.951 579.822 644.249 580.434 642.989 580.434C641.477 580.434 640.307 579.444 640.163 577.806H647.741C647.795 577.464 647.813 577.14 647.813 576.798C647.813 573.882 645.815 571.92 642.989 571.92C640.055 571.92 638.039 573.918 638.039 577.032C638.039 580.146 640.145 582.162 642.989 582.162C645.419 582.162 646.985 580.776 647.543 579.048ZM651.758 582H653.918L655.916 574.674L657.914 582H660.074L663.152 572.082H661.136L659.084 580.02L657.068 572.082H654.926L652.82 580.056L650.75 572.082H648.662L651.758 582ZM664.002 576.996C664.002 580.056 666.072 582.162 668.646 582.162C670.302 582.162 671.49 581.37 672.12 580.524V582H674.19V572.082H672.12V573.522C671.508 572.712 670.356 571.92 668.682 571.92C666.072 571.92 664.002 573.936 664.002 576.996ZM672.12 577.032C672.12 579.174 670.662 580.38 669.114 580.38C667.584 580.38 666.108 579.138 666.108 576.996C666.108 574.854 667.584 573.702 669.114 573.702C670.662 573.702 672.12 574.908 672.12 577.032ZM678.937 576.78C678.937 574.674 679.873 574.044 681.385 574.044H681.907V571.92C680.503 571.92 679.513 572.532 678.937 573.522V572.082H676.885V582H678.937V576.78ZM683.109 576.996C683.109 580.056 685.179 582.162 687.789 582.162C689.409 582.162 690.597 581.406 691.227 580.506V582H693.297V568.68H691.227V573.468C690.471 572.532 689.103 571.92 687.807 571.92C685.179 571.92 683.109 573.936 683.109 576.996ZM691.227 577.032C691.227 579.174 689.769 580.38 688.221 580.38C686.691 580.38 685.215 579.138 685.215 576.996C685.215 574.854 686.691 573.702 688.221 573.702C689.769 573.702 691.227 574.908 691.227 577.032ZM703.391 579.228C703.283 575.646 697.685 576.762 697.685 574.764C697.685 574.098 698.261 573.648 699.359 573.648C700.475 573.648 701.141 574.242 701.213 575.106H703.265C703.157 573.126 701.681 571.92 699.431 571.92C697.091 571.92 695.615 573.198 695.615 574.782C695.615 578.418 701.375 577.302 701.375 579.246C701.375 579.93 700.745 580.434 699.557 580.434C698.423 580.434 697.649 579.768 697.577 578.958H695.453C695.543 580.758 697.217 582.162 699.593 582.162C701.933 582.162 703.391 580.902 703.391 579.228ZM710.536 582H712.606V573.756H714.442V572.082H712.606V571.38C712.606 570.246 713.038 569.814 714.298 569.814V568.104C711.706 568.104 710.536 569.094 710.536 571.38V572.082H709.366V573.756H710.536V582ZM725.71 577.032C725.71 573.918 723.478 571.92 720.652 571.92C717.826 571.92 715.594 573.918 715.594 577.032C715.594 580.146 717.736 582.162 720.562 582.162C723.406 582.162 725.71 580.146 725.71 577.032ZM717.682 577.032C717.682 574.782 719.068 573.702 720.616 573.702C722.146 573.702 723.604 574.782 723.604 577.032C723.604 579.282 722.092 580.38 720.562 580.38C719.014 580.38 717.682 579.282 717.682 577.032ZM729.791 576.78C729.791 574.674 730.727 574.044 732.239 574.044H732.761V571.92C731.357 571.92 730.367 572.532 729.791 573.522V572.082H727.739V582H729.791V576.78ZM635.792 606H637.952L633.47 593.472H631.094L626.612 606H628.754L629.654 603.444H634.892L635.792 606ZM634.316 601.77H630.23L632.282 595.956L634.316 601.77ZM646.939 606H648.973V600.15C648.973 597.378 647.227 595.92 644.905 595.92C643.717 595.92 642.619 596.406 641.953 597.216V596.082H639.901V606H641.953V600.456C641.953 598.638 642.943 597.702 644.455 597.702C645.949 597.702 646.939 598.638 646.939 600.456V606ZM650.906 600.996C650.906 604.056 652.976 606.162 655.55 606.162C657.206 606.162 658.394 605.37 659.024 604.524V606H661.094V596.082H659.024V597.522C658.412 596.712 657.26 595.92 655.586 595.92C652.976 595.92 650.906 597.936 650.906 600.996ZM659.024 601.032C659.024 603.174 657.566 604.38 656.018 604.38C654.488 604.38 653.012 603.138 653.012 600.996C653.012 598.854 654.488 597.702 656.018 597.702C657.566 597.702 659.024 598.908 659.024 601.032ZM663.789 606H665.841V592.68H663.789V606ZM672.442 603.642L669.652 596.082H667.366L671.272 605.838L669.256 610.662H671.38L677.464 596.082H675.34L672.442 603.642ZM686.41 603.228C686.302 599.646 680.704 600.762 680.704 598.764C680.704 598.098 681.28 597.648 682.378 597.648C683.494 597.648 684.16 598.242 684.232 599.106H686.284C686.176 597.126 684.7 595.92 682.45 595.92C680.11 595.92 678.634 597.198 678.634 598.782C678.634 602.418 684.394 601.302 684.394 603.246C684.394 603.93 683.764 604.434 682.576 604.434C681.442 604.434 680.668 603.768 680.596 602.958H678.472C678.562 604.758 680.236 606.162 682.612 606.162C684.952 606.162 686.41 604.902 686.41 603.228ZM688.951 603.246C688.951 605.262 690.049 606 691.813 606H693.433V604.29H692.173C691.309 604.29 691.021 603.984 691.021 603.246V597.756H693.433V596.082H691.021V593.616H688.951V596.082H687.781V597.756H688.951V603.246ZM702.723 603.228C702.615 599.646 697.017 600.762 697.017 598.764C697.017 598.098 697.593 597.648 698.691 597.648C699.807 597.648 700.473 598.242 700.545 599.106H702.597C702.489 597.126 701.013 595.92 698.763 595.92C696.423 595.92 694.947 597.198 694.947 598.782C694.947 602.418 700.707 601.302 700.707 603.246C700.707 603.93 700.077 604.434 698.889 604.434C697.755 604.434 696.981 603.768 696.909 602.958H694.785C694.875 604.758 696.549 606.162 698.925 606.162C701.265 606.162 702.723 604.902 702.723 603.228Z" fill="white"/>
<path d="M623.62 118.842V126.42H625.564C625.906 125.448 626.716 124.782 627.922 124.782C629.632 124.782 630.478 125.754 630.478 127.464C630.478 129.084 629.686 130.29 627.922 130.29C626.536 130.29 625.6 129.57 625.33 128.454H623.332C623.638 130.506 625.204 132 627.904 132C630.946 132 632.44 130.02 632.44 127.41C632.44 125.43 631.45 123.036 628.228 123.036C627.058 123.036 625.996 123.576 625.51 124.224V120.642H631.54V118.842H623.62ZM634.252 122.046C634.252 123.846 635.422 124.872 636.988 124.872C638.554 124.872 639.724 123.846 639.724 122.046C639.724 120.264 638.554 119.238 636.988 119.238C635.422 119.238 634.252 120.264 634.252 122.046ZM636.988 120.48C637.672 120.48 638.122 120.93 638.122 122.046C638.122 123.162 637.672 123.63 636.988 123.63C636.286 123.63 635.854 123.162 635.854 122.046C635.854 120.93 636.286 120.48 636.988 120.48ZM636.034 132H638.05L645.232 119.472H643.216L636.034 132ZM641.578 129.408C641.578 131.208 642.748 132.234 644.314 132.234C645.862 132.234 647.032 131.208 647.032 129.408C647.032 127.608 645.862 126.6 644.314 126.6C642.748 126.6 641.578 127.608 641.578 129.408ZM644.296 127.842C644.98 127.842 645.43 128.292 645.43 129.408C645.43 130.524 644.98 130.974 644.296 130.974C643.612 130.974 643.162 130.524 643.162 129.408C643.162 128.292 643.612 127.842 644.296 127.842ZM635.446 149.718C635.446 145.974 632.62 143.328 629.056 143.328C625.528 143.328 622.666 145.974 622.666 149.718C622.666 153.48 625.528 156.126 629.056 156.126C632.62 156.126 635.446 153.48 635.446 149.718ZM624.772 149.718C624.772 146.892 626.572 145.128 629.056 145.128C631.54 145.128 633.34 146.892 633.34 149.718C633.34 152.544 631.54 154.344 629.056 154.344C626.572 154.344 624.772 152.544 624.772 149.718ZM639.517 147.54V146.082H637.465V160.716H639.517V154.56C640.165 155.334 641.335 156.162 642.973 156.162C645.583 156.162 647.635 154.056 647.635 150.996C647.635 147.936 645.583 145.92 642.973 145.92C641.353 145.92 640.147 146.712 639.517 147.54ZM645.547 150.996C645.547 153.138 644.071 154.38 642.523 154.38C640.993 154.38 639.517 153.174 639.517 151.032C639.517 148.908 640.993 147.702 642.523 147.702C644.071 147.702 645.547 148.854 645.547 150.996ZM653.84 147.648C655.37 147.648 656.576 148.62 656.612 150.15H651.122C651.338 148.584 652.454 147.648 653.84 147.648ZM658.484 153.048H656.27C655.892 153.822 655.19 154.434 653.93 154.434C652.418 154.434 651.248 153.444 651.104 151.806H658.682C658.736 151.464 658.754 151.14 658.754 150.798C658.754 147.882 656.756 145.92 653.93 145.92C650.996 145.92 648.98 147.918 648.98 151.032C648.98 154.146 651.086 156.162 653.93 156.162C656.36 156.162 657.926 154.776 658.484 153.048ZM662.826 150.78C662.826 148.674 663.762 148.044 665.274 148.044H665.796V145.92C664.392 145.92 663.402 146.532 662.826 147.522V146.082H660.774V156H662.826V150.78ZM666.998 150.996C666.998 154.056 669.068 156.162 671.642 156.162C673.298 156.162 674.486 155.37 675.116 154.524V156H677.186V146.082H675.116V147.522C674.504 146.712 673.352 145.92 671.678 145.92C669.068 145.92 666.998 147.936 666.998 150.996ZM675.116 151.032C675.116 153.174 673.658 154.38 672.11 154.38C670.58 154.38 669.104 153.138 669.104 150.996C669.104 148.854 670.58 147.702 672.11 147.702C673.658 147.702 675.116 148.908 675.116 151.032ZM680.205 153.246C680.205 155.262 681.303 156 683.067 156H684.687V154.29H683.427C682.563 154.29 682.275 153.984 682.275 153.246V147.756H684.687V146.082H682.275V143.616H680.205V146.082H679.035V147.756H680.205V153.246ZM686.579 156H688.631V146.082H686.579V156ZM687.623 144.768C688.343 144.768 688.919 144.192 688.919 143.454C688.919 142.716 688.343 142.14 687.623 142.14C686.885 142.14 686.309 142.716 686.309 143.454C686.309 144.192 686.885 144.768 687.623 144.768ZM700.775 151.032C700.775 147.918 698.543 145.92 695.717 145.92C692.891 145.92 690.659 147.918 690.659 151.032C690.659 154.146 692.801 156.162 695.627 156.162C698.471 156.162 700.775 154.146 700.775 151.032ZM692.747 151.032C692.747 148.782 694.133 147.702 695.681 147.702C697.211 147.702 698.669 148.782 698.669 151.032C698.669 153.282 697.157 154.38 695.627 154.38C694.079 154.38 692.747 153.282 692.747 151.032ZM709.841 156H711.875V150.15C711.875 147.378 710.129 145.92 707.807 145.92C706.619 145.92 705.521 146.406 704.855 147.216V146.082H702.803V156H704.855V150.456C704.855 148.638 705.845 147.702 707.357 147.702C708.851 147.702 709.841 148.638 709.841 150.456V156ZM713.809 150.996C713.809 154.056 715.879 156.162 718.453 156.162C720.109 156.162 721.297 155.37 721.927 154.524V156H723.997V146.082H721.927V147.522C721.315 146.712 720.163 145.92 718.489 145.92C715.879 145.92 713.809 147.936 713.809 150.996ZM721.927 151.032C721.927 153.174 720.469 154.38 718.921 154.38C717.391 154.38 715.915 153.138 715.915 150.996C715.915 148.854 717.391 147.702 718.921 147.702C720.469 147.702 721.927 148.908 721.927 151.032ZM726.692 156H728.744V142.68H726.692V156Z" fill="white"/>
<path d="M67.8329 194.842V202.42H69.7769C70.1189 201.448 70.9289 200.782 72.1349 200.782C73.8449 200.782 74.6909 201.754 74.6909 203.464C74.6909 205.084 73.8989 206.29 72.1349 206.29C70.7489 206.29 69.8129 205.57 69.5429 204.454H67.5449C67.8509 206.506 69.4169 208 72.1169 208C75.1589 208 76.6529 206.02 76.6529 203.41C76.6529 201.43 75.6629 199.036 72.4409 199.036C71.2709 199.036 70.2089 199.576 69.7229 200.224V196.642H75.7529V194.842H67.8329ZM78.465 198.046C78.465 199.846 79.635 200.872 81.201 200.872C82.767 200.872 83.937 199.846 83.937 198.046C83.937 196.264 82.767 195.238 81.201 195.238C79.635 195.238 78.465 196.264 78.465 198.046ZM81.201 196.48C81.885 196.48 82.335 196.93 82.335 198.046C82.335 199.162 81.885 199.63 81.201 199.63C80.499 199.63 80.067 199.162 80.067 198.046C80.067 196.93 80.499 196.48 81.201 196.48ZM80.247 208H82.263L89.445 195.472H87.429L80.247 208ZM85.791 205.408C85.791 207.208 86.961 208.234 88.527 208.234C90.075 208.234 91.245 207.208 91.245 205.408C91.245 203.608 90.075 202.6 88.527 202.6C86.961 202.6 85.791 203.608 85.791 205.408ZM88.509 203.842C89.193 203.842 89.643 204.292 89.643 205.408C89.643 206.524 89.193 206.974 88.509 206.974C87.825 206.974 87.375 206.524 87.375 205.408C87.375 204.292 87.825 203.842 88.509 203.842ZM1.96133 232H4.01333V223.432L7.84733 232H9.26933L13.0853 223.432V232H15.1373V219.49H12.9413L8.56733 229.3L4.17533 219.49H1.96133V232ZM17.1504 226.996C17.1504 230.056 19.2204 232.162 21.7944 232.162C23.4504 232.162 24.6384 231.37 25.2684 230.524V232H27.3384V222.082H25.2684V223.522C24.6564 222.712 23.5044 221.92 21.8304 221.92C19.2204 221.92 17.1504 223.936 17.1504 226.996ZM25.2684 227.032C25.2684 229.174 23.8104 230.38 22.2624 230.38C20.7324 230.38 19.2564 229.138 19.2564 226.996C19.2564 224.854 20.7324 223.702 22.2624 223.702C23.8104 223.702 25.2684 224.908 25.2684 227.032ZM32.0856 226.78C32.0856 224.674 33.0216 224.044 34.5336 224.044H35.0556V221.92C33.6516 221.92 32.6616 222.532 32.0856 223.522V222.082H30.0336V232H32.0856V226.78ZM36.9418 232H38.9938V227.734L42.6658 232H45.4378L40.8658 227.05L45.4378 222.082H42.5938L38.9938 226.42V218.68H36.9418V232ZM51.0846 223.648C52.6146 223.648 53.8206 224.62 53.8566 226.15H48.3666C48.5826 224.584 49.6986 223.648 51.0846 223.648ZM55.7286 229.048H53.5146C53.1366 229.822 52.4346 230.434 51.1746 230.434C49.6626 230.434 48.4926 229.444 48.3486 227.806H55.9266C55.9806 227.464 55.9986 227.14 55.9986 226.798C55.9986 223.882 54.0006 221.92 51.1746 221.92C48.2406 221.92 46.2246 223.918 46.2246 227.032C46.2246 230.146 48.3306 232.162 51.1746 232.162C53.6046 232.162 55.1706 230.776 55.7286 229.048ZM58.342 229.246C58.342 231.262 59.44 232 61.204 232H62.824V230.29H61.564C60.7 230.29 60.412 229.984 60.412 229.246V223.756H62.824V222.082H60.412V219.616H58.342V222.082H57.172V223.756H58.342V229.246ZM64.7152 232H66.7672V222.082H64.7152V232ZM65.7592 220.768C66.4792 220.768 67.0552 220.192 67.0552 219.454C67.0552 218.716 66.4792 218.14 65.7592 218.14C65.0212 218.14 64.4452 218.716 64.4452 219.454C64.4452 220.192 65.0212 220.768 65.7592 220.768ZM76.4993 232H78.5333V226.15C78.5333 223.378 76.7873 221.92 74.4653 221.92C73.2773 221.92 72.1793 222.406 71.5133 223.216V222.082H69.4613V232H71.5133V226.456C71.5133 224.638 72.5033 223.702 74.0153 223.702C75.5093 223.702 76.4993 224.638 76.4993 226.456V232ZM80.4668 226.996C80.4668 230.056 82.5368 232.162 85.1468 232.162C86.7668 232.162 87.9548 231.352 88.5848 230.506V232.162C88.5848 234.142 87.3968 235.114 85.8128 235.114C84.3908 235.114 83.2928 234.412 82.9868 233.386H80.9528C81.2048 235.582 83.1668 236.896 85.8128 236.896C88.9088 236.896 90.6548 234.862 90.6548 232.162V222.082H88.5848V223.522C87.9728 222.676 86.7668 221.92 85.1468 221.92C82.5368 221.92 80.4668 223.936 80.4668 226.996ZM88.5848 227.032C88.5848 229.174 87.1268 230.38 85.5788 230.38C84.0488 230.38 82.5728 229.138 82.5728 226.996C82.5728 224.854 84.0488 223.702 85.5788 223.702C87.1268 223.702 88.5848 224.908 88.5848 227.032Z" fill="white"/>
</svg>
