<svg width="28" height="28" viewBox="0 0 28 28" fill="none" xmlns="http://www.w3.org/2000/svg">
<path fill-rule="evenodd" clip-rule="evenodd" d="M13.6357 27.2568C20.8154 27.2568 26.6357 21.4365 26.6357 14.2568C26.6357 7.07713 20.8154 1.25684 13.6357 1.25684C6.45604 1.25684 0.635742 7.07713 0.635742 14.2568C0.635742 21.4365 6.45604 27.2568 13.6357 27.2568Z" stroke="white" stroke-width="0.861297"/>
<path d="M14.1516 8.07547H13.9555C13.9555 11.6881 11.0319 14.6208 7.39437 14.7072L7.30322 14.9128C10.9832 14.9512 13.9555 17.9061 13.9555 21.5489H14.1516C14.1516 17.9146 17.1092 14.9668 20.7769 14.9139L20.6847 14.7056C17.0603 14.6046 14.1519 11.6788 14.1519 8.0752" fill="white"/>
</svg>
