<svg width="31" height="31" viewBox="0 0 31 31" fill="none" xmlns="http://www.w3.org/2000/svg">
<circle cx="15.5" cy="15.5" r="15.5" fill="black"/>
<g clip-path="url(#clip0_2028_177)">
<path d="M15.5111 18.3159C15.412 18.4103 15.3335 18.4822 15.2586 18.5571C13.4272 20.3964 11.5964 22.2362 9.76559 24.0761C9.66175 24.1805 9.55968 24.2872 9.45289 24.3892C8.78146 25.0355 8.01268 25.1717 7.24213 24.7843C6.43028 24.3757 5.95532 23.5412 6.05563 22.6909C6.10991 22.2286 6.35594 21.8689 6.67513 21.5481C7.74246 20.4742 8.80565 19.3963 9.87592 18.3254C10.8064 17.3937 11.7433 16.469 12.7799 15.4394C12.656 15.3745 12.5392 15.3439 12.4649 15.2702C10.5232 13.346 8.5844 11.4194 6.64858 9.49055C5.98128 8.82596 5.82788 8.06172 6.1931 7.28981C6.5825 6.46718 7.43211 5.9683 8.29175 6.05793C8.77851 6.10864 9.14903 6.37283 9.48416 6.70542C10.5167 7.7309 11.5515 8.75402 12.5829 9.78009C13.475 10.6676 14.3641 11.558 15.255 12.4473C15.3305 12.5228 15.409 12.5947 15.5005 12.682C15.5866 12.6018 15.6657 12.5322 15.74 12.4573C17.6876 10.5113 19.6335 8.56473 21.5817 6.61932C22.1551 6.04673 22.8319 5.83267 23.6007 6.14108C24.4119 6.46659 24.9064 7.07693 24.9925 7.9597C25.0521 8.57062 24.7648 9.05594 24.3423 9.47758C22.4207 11.3935 20.5037 13.3141 18.5832 15.2306C18.5006 15.3132 18.398 15.3757 18.2888 15.4595C18.4051 15.5839 18.4747 15.6635 18.5484 15.7378C20.4624 17.6614 22.3735 19.5879 24.2939 21.505C24.8639 22.0735 25.1418 22.7221 24.8639 23.5041C24.5712 24.3267 23.9765 24.8368 23.098 24.9642C22.5339 25.0461 22.0501 24.8403 21.6513 24.45C20.9421 23.7553 20.2435 23.0494 19.5414 22.3471C18.2068 21.0126 16.8734 19.677 15.5123 18.3153L15.5111 18.3159Z" fill="#6C757D"/>
</g>
<defs>
<clipPath id="clip0_2028_177">
<rect width="19" height="19" fill="white" transform="translate(6 6)"/>
</clipPath>
</defs>
</svg>
