<svg width="30" height="19" viewBox="0 0 30 19" fill="none" xmlns="http://www.w3.org/2000/svg">
<g clip-path="url(#clip0_135_9701)">
<path d="M0.808838 14.9239C0.856106 14.8711 0.89929 14.816 0.950643 14.7663C1.13913 14.5838 1.38948 14.4982 1.69293 14.5436C2.00514 14.5903 2.21288 14.7357 2.27707 14.975C2.30158 15.0667 2.30508 15.1627 2.30567 15.257C2.308 15.9119 2.3045 16.5668 2.308 17.2213C2.31034 17.6793 2.58928 17.8867 3.20143 17.8867C11.069 17.8871 18.9365 17.8875 26.8035 17.8867C27.4104 17.8867 27.701 17.6705 27.7028 17.2195C27.7063 16.5066 27.6999 15.7936 27.708 15.0806C27.7115 14.8047 27.9636 14.5912 28.3108 14.5401C28.64 14.4917 28.9895 14.6257 29.1191 14.8641C29.1652 14.9488 29.1856 15.047 29.1862 15.1396C29.1908 15.8669 29.2031 16.5948 29.1844 17.3221C29.1599 18.2879 28.2356 18.9712 26.9441 18.9965C26.6623 19.0022 26.3804 18.9982 26.098 18.9982C18.4738 18.9982 10.8496 18.9982 3.22536 18.9982C1.9637 18.9982 1.16714 18.5398 0.852605 17.6417C0.845602 17.6221 0.82401 17.6051 0.809421 17.5872C0.809421 16.6995 0.809421 15.8115 0.809421 14.9239H0.808838Z" fill="white"/>
<path d="M14.25 13.108C14.25 13.0146 14.25 12.9212 14.25 12.8282C14.25 8.81277 14.25 4.79691 14.2505 0.78149C14.2505 0.679762 14.25 0.577161 14.271 0.47718C14.3311 0.192079 14.6555 -0.00919392 15.0232 0.000847906C15.3949 0.0113263 15.7024 0.226134 15.7415 0.509051C15.7532 0.595498 15.748 0.683255 15.748 0.770575C15.748 4.80084 15.748 8.83067 15.748 12.8609V13.1744C15.86 13.0945 15.9335 13.0447 16.0035 12.9923C17.9427 11.542 19.8819 10.092 21.8187 8.63987C22.0574 8.46087 22.3101 8.33119 22.6701 8.41022C23.1767 8.52155 23.3786 8.942 23.0751 9.26508C23.0144 9.33014 22.9362 9.38646 22.8604 9.44278C20.4684 11.2333 18.0758 13.0233 15.6832 14.8134C15.1836 15.1871 14.823 15.1863 14.3206 14.8104C11.928 13.0203 9.53245 11.2324 7.14861 9.43579C6.9893 9.31573 6.86559 9.13978 6.81657 8.97474C6.75238 8.75906 6.91402 8.57831 7.17312 8.46872C7.44156 8.35521 7.71525 8.36525 7.96968 8.49841C8.06422 8.54818 8.1465 8.61193 8.22878 8.67349C10.1341 10.0977 12.0388 11.5223 13.9412 12.9487C14.0218 13.0089 14.0766 13.0884 14.1437 13.1587C14.1793 13.1417 14.2149 13.1246 14.2505 13.108H14.25Z" fill="white"/>
</g>
<defs>
<clipPath id="clip0_135_9701">
<rect width="28.3855" height="19" fill="white" transform="translate(0.808838)"/>
</clipPath>
</defs>
</svg>
