<svg width="21" height="19" viewBox="0 0 21 19" fill="none" xmlns="http://www.w3.org/2000/svg">
<g clip-path="url(#clip0_135_9239)">
<path d="M0 14.9239C0.0349698 14.8711 0.0669175 14.816 0.104909 14.7663C0.244357 14.5838 0.429567 14.4982 0.654064 14.5436C0.885038 14.5903 1.03873 14.7357 1.08622 14.975C1.10435 15.0667 1.10694 15.1627 1.10738 15.257C1.1091 15.9119 1.10651 16.5668 1.1091 17.2213C1.11083 17.6793 1.31719 17.8867 1.77008 17.8867C7.5906 17.8871 13.4111 17.8875 19.2312 17.8867C19.6802 17.8867 19.8952 17.6705 19.8965 17.2195C19.8991 16.5066 19.8944 15.7936 19.9004 15.0806C19.903 14.8047 20.0895 14.5912 20.3464 14.5401C20.5899 14.4917 20.8485 14.6257 20.9443 14.8641C20.9784 14.9488 20.9935 15.047 20.994 15.1396C20.9974 15.8669 21.0065 16.5948 20.9927 17.3221C20.9745 18.2879 20.2907 18.9712 19.3353 18.9965C19.1267 19.0022 18.9182 18.9982 18.7093 18.9982C13.0688 18.9982 7.42827 18.9982 1.78778 18.9982C0.854385 18.9982 0.26508 18.5398 0.0323794 17.6417C0.0271987 17.6221 0.0112249 17.6051 0.000431726 17.5872C0.000431726 16.6995 0.000431726 15.8115 0.000431726 14.9239H0Z" fill="black"/>
<path d="M9.94382 13.108C9.94382 13.0146 9.94382 12.9212 9.94382 12.8282C9.94382 8.81277 9.94382 4.79691 9.94425 0.78149C9.94425 0.679762 9.94382 0.577161 9.95936 0.47718C10.0038 0.192079 10.2439 -0.00919392 10.5159 0.000847906C10.7909 0.0113263 11.0184 0.226134 11.0473 0.509051C11.0559 0.595498 11.0521 0.683255 11.0521 0.770575C11.0521 4.80084 11.0521 8.83067 11.0521 12.8609V13.1744C11.1349 13.0945 11.1893 13.0447 11.2412 12.9923C12.6758 11.542 14.1104 10.092 15.5433 8.63987C15.7199 8.46087 15.9068 8.33119 16.1732 8.41022C16.5479 8.52155 16.6973 8.942 16.4728 9.26508C16.4279 9.33014 16.3701 9.38646 16.3139 9.44278C14.5443 11.2333 12.7742 13.0233 11.0041 14.8134C10.6346 15.1871 10.3678 15.1863 9.99606 14.8104C8.22598 13.0203 6.45375 11.2324 4.69015 9.43579C4.57229 9.31573 4.48076 9.13978 4.4445 8.97474C4.39701 8.75906 4.51659 8.57831 4.70828 8.46872C4.90687 8.35521 5.10935 8.36525 5.29759 8.49841C5.36753 8.54818 5.4284 8.61193 5.48927 8.67349C6.89886 10.0977 8.30801 11.5223 9.71544 12.9487C9.77501 13.0089 9.8156 13.0884 9.86524 13.1587C9.89158 13.1417 9.91791 13.1246 9.94425 13.108H9.94382Z" fill="black"/>
</g>
<defs>
<clipPath id="clip0_135_9239">
<rect width="21" height="19" fill="white"/>
</clipPath>
</defs>
</svg>
