<svg width="8" height="8" viewBox="0 0 8 8" fill="none" xmlns="http://www.w3.org/2000/svg">
<path d="M4.90415 3.94057V4.49178C4.90415 4.72911 5.14152 4.96644 5.37885 4.96644H5.53959C5.77692 4.96644 6.01424 4.72911 6.01424 4.49178V3.54248C6.01424 2.75394 5.37881 2.19507 4.66683 2.19507H3.71753C2.92899 2.19507 2.37012 2.8305 2.37012 3.54248V4.49178C2.37012 5.28032 3.00555 5.83919 3.71753 5.83919H4.98074" stroke="#C4C4C4" stroke-width="0.8" stroke-linecap="round" stroke-linejoin="round"/>
<path d="M4.11571 3.30505C4.51381 3.30505 4.90422 3.61894 4.90422 4.09359C4.90422 4.49169 4.59036 4.88213 4.11571 4.88213C3.71761 4.88213 3.32715 4.56824 3.32715 4.09359C3.32715 3.69549 3.64105 3.30505 4.11571 3.30505Z" stroke="#C4C4C4" stroke-width="0.8" stroke-linecap="round" stroke-linejoin="round"/>
<path d="M4.11581 7.57698C6.03538 7.57698 7.59148 6.02087 7.59148 4.1013C7.59148 2.18172 6.03538 0.62561 4.11581 0.62561C2.19624 0.62561 0.640137 2.18172 0.640137 4.1013C0.640137 6.02087 2.19624 7.57698 4.11581 7.57698Z" stroke="#C4C4C4" stroke-width="0.8" stroke-linecap="round" stroke-linejoin="round"/>
</svg>
