<svg width="31" height="31" viewBox="0 0 31 31" fill="none" xmlns="http://www.w3.org/2000/svg">
<path d="M15.3157 18.1629C16.8098 18.1629 18.021 16.9517 18.021 15.4575C18.021 13.9634 16.8098 12.7522 15.3157 12.7522C13.8216 12.7522 12.6104 13.9634 12.6104 15.4575C12.6104 16.9517 13.8216 18.1629 15.3157 18.1629Z" fill="black"/>
<path d="M19.1056 8.95044H11.5139C10.0123 8.95044 8.80859 10.1661 8.80859 11.6558V19.2474C8.80859 20.7491 10.0242 21.9528 11.5139 21.9528H19.1056C20.6072 21.9528 21.8109 20.7372 21.8109 19.2474V11.6558C21.8109 10.1541 20.5953 8.95044 19.1056 8.95044ZM15.3157 19.5215C13.0752 19.5215 11.2517 17.6981 11.2517 15.4576C11.2517 13.217 13.0752 11.3936 15.3157 11.3936C17.5563 11.3936 19.3797 13.217 19.3797 15.4576C19.3797 17.6981 17.5563 19.5215 15.3157 19.5215ZM19.6538 11.9418C19.2009 11.9418 18.8434 11.5724 18.8434 11.1314C18.8434 10.6904 19.2128 10.321 19.6538 10.321C20.0948 10.321 20.4642 10.6904 20.4642 11.1314C20.4642 11.5724 20.0948 11.9418 19.6538 11.9418Z" fill="black"/>
<path d="M15.3039 0.476807C7.03297 0.476807 0.323242 7.18653 0.323242 15.4575C0.323242 23.7285 7.03297 30.4382 15.3039 30.4382C23.5749 30.4382 30.2846 23.7285 30.2846 15.4575C30.2846 7.18653 23.5749 0.476807 15.3039 0.476807ZM23.1697 19.5215C23.1697 21.619 21.4654 23.3113 19.3798 23.3113H11.2519C9.15434 23.3113 7.46201 21.6071 7.46201 19.5215V11.3935C7.46201 9.29599 9.16626 7.60366 11.2519 7.60366H19.3798C21.4774 7.60366 23.1697 9.3079 23.1697 11.3935V19.5215Z" fill="black"/>
</svg>
