<svg width="45" height="45" viewBox="0 0 45 45" fill="none" xmlns="http://www.w3.org/2000/svg">
<path fill-rule="evenodd" clip-rule="evenodd" d="M0.388671 22C0.388671 34.1503 10.2384 44 22.3887 44C34.5389 44 44.3887 34.1503 44.3887 22C44.3887 9.84974 34.5389 -4.30546e-07 22.3887 -9.61651e-07C10.2384 -1.49276e-06 0.388672 9.84973 0.388671 22Z" fill="black"/>
<path fill-rule="evenodd" clip-rule="evenodd" d="M13.1002 37.8013H20.7415L16.9191 31.2038L20.7415 24.6062L16.9191 17.9738L9.27783 31.2038L13.1002 37.8013Z" fill="white"/>
<path fill-rule="evenodd" clip-rule="evenodd" d="M15.6973 6.86951L9.28125 17.9736H16.9226L23.3386 6.86951H15.6973Z" fill="white"/>
<path fill-rule="evenodd" clip-rule="evenodd" d="M35.9926 37.8013L28.3513 24.5713L34.0831 14.6226H26.4418C24.5323 17.9388 22.6194 21.2201 20.71 24.5713L28.3513 37.8013H35.9926Z" fill="white"/>
</svg>
