<svg width="8" height="9" viewBox="0 0 8 9" fill="none" xmlns="http://www.w3.org/2000/svg">
<path d="M4.19305 4.03113V4.10796H4.03174V4.03113" stroke="#C4C4C4" stroke-width="0.8" stroke-linecap="round" stroke-linejoin="round"/>
<path d="M5.61635 4.10767C5.61635 4.50576 5.45554 4.81965 5.14166 5.05698L4.66701 5.45507C4.50624 5.61584 4.35315 5.76895 4.26894 6.00628V6.2436C4.19238 6.2436 4.10815 6.00628 4.10815 6.00628C4.0316 5.76895 3.87081 5.60818 3.71004 5.45507L3.23539 5.05698C2.92151 4.81965 2.76074 4.42155 2.76074 4.10767" stroke="#C4C4C4" stroke-width="0.8" stroke-linecap="round" stroke-linejoin="round"/>
<path d="M2.69189 4.1077C2.69189 3.31916 3.32729 2.60718 4.19238 2.60718C5.05748 2.60718 5.69292 3.24261 5.69292 4.1077" stroke="#C4C4C4" stroke-width="0.8" stroke-linecap="round" stroke-linejoin="round"/>
<path d="M4.11581 7.89731C6.03538 7.89731 7.59148 6.34119 7.59148 4.42162C7.59148 2.50205 6.03538 0.945923 4.11581 0.945923C2.19624 0.945923 0.640137 2.50205 0.640137 4.42162C0.640137 6.34119 2.19624 7.89731 4.11581 7.89731Z" stroke="#C4C4C4" stroke-width="0.8" stroke-linecap="round" stroke-linejoin="round"/>
</svg>
