<svg width="148" height="26" viewBox="0 0 148 26" fill="none" xmlns="http://www.w3.org/2000/svg">
<path d="M11.5124 0L0 25.0813H5.24382L7.95622 19.0504C11.3355 19.0862 14.0642 21.7707 14.0642 25.0813H14.2451C14.2451 21.7787 16.9616 19.1001 20.3287 19.0524L23.0289 25.0813H28.3093L16.7928 0H11.5124ZM14.2431 12.8387H14.0622C14.0622 16.1214 11.3782 18.7861 8.03755 18.8656L14.1516 5.26782L20.2392 18.8636C16.9108 18.7722 14.2411 16.1134 14.2411 12.8387H14.2431Z" fill="black"/>
<path d="M33.9395 0.0358887H29.5029V25.0814H33.9395V0.0358887Z" fill="black"/>
<path d="M50.3117 9.31911C49.2849 7.56449 46.9751 6.45171 44.5555 6.45171C39.2751 6.41595 35.1333 9.60525 35.1333 15.6957C35.1333 21.7862 39.0921 25.1186 44.4457 25.0828C46.4627 25.0471 49.2849 24.0436 50.3117 21.9651L50.5313 25.0828H54.7483V6.88292H50.4581L50.3117 9.31911ZM44.9581 21.0709C41.9875 21.0709 39.6045 19.0639 39.6045 15.6957C39.6045 12.3276 41.9875 10.3564 44.9581 10.3564C51.9973 10.3564 51.9973 21.0689 44.9581 21.0689V21.0709Z" fill="black"/>
<path d="M76.5818 7.16797C74.2354 7.16797 72.1452 7.88532 70.5328 10.393C69.506 7.95685 67.3426 7.09644 65.1792 7.09644C63.457 7.09644 61.3668 7.74224 60.4132 9.53263L60.0838 7.38258H55.9399V25.0837H60.4132V15.6251C60.4132 13.2962 61.8426 11.1819 64.2621 11.1819C66.6818 11.1819 67.9647 13.2962 67.9647 15.6251V25.0837H72.438V15.6251C72.438 13.2962 73.9405 11.2535 76.3601 11.2535C78.7798 11.2535 79.77 13.2247 79.77 15.5536V25.0837H84.2432V15.5536C84.2432 10.25 81.7138 7.16996 76.5797 7.16996L76.5818 7.16797Z" fill="black"/>
<path d="M100.628 9.31911C99.6013 7.56449 97.2915 6.45171 94.8719 6.45171C89.5915 6.41595 85.4497 9.60525 85.4497 15.6957C85.4497 21.7862 89.4085 25.1186 94.7621 25.0828C96.7791 25.0471 99.6013 24.0436 100.628 21.9651L100.848 25.0828H105.065V6.88292H100.775L100.628 9.31911ZM95.2745 21.0709C92.3039 21.0709 89.9209 19.0639 89.9209 15.6957C89.9209 12.3276 92.3039 10.3564 95.2745 10.3564C102.314 10.3564 102.314 21.0689 95.2745 21.0689V21.0709Z" fill="black"/>
<path d="M116.378 7.16551C114.325 7.16551 112.346 7.77555 110.732 9.81631V0H106.259V25.0813H110.732V16.0518C110.732 13.401 112.566 11.2152 115.205 11.2152C117.588 11.2152 119.312 12.5764 119.312 15.8015V25.0813H123.786V15.7657C123.786 10.5694 121.512 7.16551 116.38 7.16551H116.378Z" fill="black"/>
<path d="M127.717 21.7764C128.636 21.7764 129.386 22.4619 129.386 23.4316C129.386 24.4013 128.636 25.0869 127.717 25.0869C126.798 25.0869 126.047 24.4013 126.047 23.4316C126.047 22.4619 126.798 21.7764 127.717 21.7764Z" fill="#00E588"/>
<path d="M140.076 13.3072H142.978V25.0768H140.318L140.101 23.5647C139.109 24.5582 137.779 25.0768 136.4 25.0768C133.159 25.0768 130.595 22.595 130.595 19.1433C130.595 15.6917 133.159 13.188 136.4 13.188C137.779 13.188 139.084 13.7086 140.076 14.6763V13.3052V13.3072ZM136.715 15.9064C134.902 15.9064 133.426 17.1582 133.426 19.1453C133.426 21.1324 134.902 22.3605 136.715 22.3605C138.529 22.3605 140.076 21.1086 140.076 19.1453C140.076 17.1821 138.578 15.9064 136.715 15.9064Z" fill="#00E588"/>
<path d="M146.369 10.0049C147.239 10.0049 147.94 10.7143 147.94 11.5648C147.94 12.4152 147.239 13.1246 146.369 13.1246C145.498 13.1246 144.772 12.4152 144.772 11.5648C144.772 10.7143 145.498 10.0049 146.369 10.0049ZM144.919 13.5042H147.82V25.085H144.919V13.5042Z" fill="#00E588"/>
</svg>
