<svg width="5" height="5" viewBox="0 0 5 5" fill="none" xmlns="http://www.w3.org/2000/svg">
<path d="M2.68031 0C1.55526 0 0.640137 0.91512 0.640137 2.04017C0.640137 3.16522 1.55526 4.08034 2.68031 4.08034C3.80536 4.08034 4.72048 3.16522 4.72048 2.04017C4.72048 0.91512 3.80501 0 2.68031 0ZM2.68031 3.8379C1.68876 3.8379 0.882232 3.03138 0.882232 2.03983C0.882232 1.04827 1.68876 0.242095 2.68031 0.242095C3.67186 0.242095 4.47838 1.04862 4.47838 2.04017C4.47838 3.03172 3.67186 3.83825 2.68031 3.83825V3.8379Z" fill="white"/>
<path d="M3.08422 2.05815V2.04708C3.34188 1.95993 3.54524 1.74585 3.54524 1.42282C3.54524 1.23399 3.47642 1.06694 3.35295 0.958345C3.20043 0.82035 2.98289 0.758789 2.64534 0.758789C2.42745 0.758789 2.19885 0.776773 2.03906 0.809629V3.22332H2.35482V2.16329H2.6526C2.93931 2.17435 3.07004 2.30128 3.14267 2.63883C3.2115 2.94387 3.26614 3.15415 3.30591 3.22332H3.63274C3.5819 3.1289 3.5238 2.89303 3.44391 2.55168C3.3858 2.29748 3.2734 2.12351 3.08457 2.05815H3.08422ZM2.67785 1.92396H2.35482V1.03097C2.40566 1.01645 2.51461 1.00192 2.66713 1.00192C3.00122 1.00573 3.22983 1.14337 3.22983 1.45914C3.22983 1.73858 3.01574 1.92361 2.67819 1.92361L2.67785 1.92396Z" fill="white"/>
</svg>
