<svg width="31" height="31" viewBox="0 0 31 31" fill="none" xmlns="http://www.w3.org/2000/svg">
<path d="M15.6277 0.476807C7.3567 0.476807 0.646973 7.18653 0.646973 15.4575C0.646973 23.7285 7.3567 30.4382 15.6277 30.4382C23.8986 30.4382 30.6083 23.7285 30.6083 15.4575C30.6083 7.18653 23.8986 0.476807 15.6277 0.476807ZM24.6733 20.8086C24.2442 21.1065 23.6126 21.4164 22.7783 21.619C22.6234 21.6548 22.5042 21.762 22.4566 21.9169L22.3731 22.2387C22.2659 22.6082 21.9322 22.8704 21.5508 22.8823C17.8682 23.0849 18.333 24.4554 15.6277 24.4554C12.9223 24.4554 13.3871 23.073 9.70451 22.8823C9.32314 22.8585 8.98944 22.5963 8.88218 22.2387L8.79876 21.9169C8.75109 21.762 8.6319 21.6548 8.47697 21.619C7.64273 21.4164 7.023 21.1065 6.58205 20.8086C6.16492 20.5226 6.22451 19.9028 6.67739 19.6883C10.1812 17.9841 10.1335 16.1606 10.1335 16.1606L8.48889 14.9331C7.98834 14.5517 7.84533 13.8724 8.17903 13.3361C8.40547 12.9548 8.82259 12.7402 9.23971 12.7402C9.34697 12.7402 9.44232 12.7521 9.54958 12.776L10.5864 13.0382C10.4553 12.5972 10.3957 12.1205 10.3957 11.6438C10.3957 8.78352 12.7316 6.47146 15.6277 6.47146C18.5237 6.47146 20.8596 8.78352 20.8596 11.6438C20.8596 12.1324 20.7881 12.5972 20.6689 13.0382L21.7057 12.776C22.2301 12.6449 22.7903 12.8713 23.0763 13.3361C23.1955 13.5387 23.2551 13.7532 23.2551 13.9678C23.2551 14.3372 23.0882 14.6948 22.7664 14.9331L21.1218 16.1606C21.1218 16.1606 21.086 17.9841 24.5779 19.6883C25.0308 19.9148 25.0904 20.5226 24.6733 20.8086Z" fill="black"/>
</svg>
