<svg width="31" height="31" viewBox="0 0 31 31" fill="none" xmlns="http://www.w3.org/2000/svg">
<circle cx="15.5" cy="15.5" r="15.5" fill="black"/>
<g clip-path="url(#clip0_138_14064)">
<path d="M12.0644 25.0005C11.3986 24.8806 10.951 24.4395 10.498 23.9876C8.53162 22.027 6.55399 20.0779 4.58222 18.1231C3.83048 17.3778 3.80484 16.2075 4.51968 15.4724C5.26647 14.7049 6.44647 14.654 7.22385 15.4015C8.41285 16.5451 9.57396 17.7168 10.7468 18.8768C11.1768 19.3019 11.606 19.7278 12.0365 20.1524C12.0779 20.193 12.1247 20.2282 12.1832 20.2782C12.5759 19.813 12.9606 19.3585 13.3443 18.9027C16.7192 14.8908 20.0968 10.8808 23.4655 6.86356C23.8474 6.40818 24.3004 6.10668 24.8862 6.00098C25.0211 6.00098 25.1561 6.00098 25.291 6.00098C25.3405 6.01659 25.3891 6.03666 25.4395 6.04692C26.0936 6.18206 26.5583 6.55403 26.8354 7.15302C26.9029 7.29842 26.9461 7.45497 27.0001 7.60661V8.18642C26.875 8.75196 26.5174 9.17746 26.1494 9.60116C25.7144 10.102 25.2924 10.6141 24.865 11.1216C21.1846 15.4965 17.5043 19.8714 13.8243 24.2468C13.5058 24.6254 13.1131 24.8779 12.6173 24.9617C12.5818 24.9675 12.5485 24.9876 12.5143 25.0014H12.0644V25.0005Z" fill="#00E588"/>
</g>
<defs>
<clipPath id="clip0_138_14064">
<rect width="23" height="19" fill="white" transform="translate(4 6)"/>
</clipPath>
</defs>
</svg>
