<svg width="31" height="31" viewBox="0 0 31 31" fill="none" xmlns="http://www.w3.org/2000/svg">
<path d="M15.9509 0.476807C7.67995 0.476807 0.970215 7.18653 0.970215 15.4575C0.970215 23.7285 7.67995 30.4382 15.9509 30.4382C24.2219 30.4382 30.9316 23.7285 30.9316 15.4575C30.9316 7.18653 24.2219 0.476807 15.9509 0.476807ZM23.0778 13.0858C23.0778 13.2527 22.9467 13.3838 22.7798 13.3719C19.7527 13.2885 18.9184 11.8941 18.9184 11.8941V19.0209C18.9184 21.8097 16.6541 24.0741 13.8653 24.0741C10.8858 24.0741 8.51419 21.4998 8.84789 18.4489C9.09816 16.1368 10.9693 14.2657 13.2694 14.0154C13.5793 13.9797 13.8891 13.9678 14.1871 13.9916C14.342 13.9916 14.4493 14.1346 14.4493 14.2776V16.3871C14.4493 16.5658 14.2943 16.6969 14.1275 16.6731C13.9368 16.6493 13.7223 16.6493 13.5197 16.6731C12.4709 16.8161 11.6367 17.6742 11.5056 18.723C11.3268 20.2127 12.5186 21.4641 13.9845 21.3926C15.2597 21.333 16.2489 20.2127 16.2489 18.9375V7.13886C16.2489 6.98393 16.3799 6.85283 16.5349 6.85283H18.9304C19.0853 6.85283 19.2164 6.97201 19.2283 7.12694C19.3356 8.78352 20.4558 10.5831 22.8036 10.7142C22.9586 10.7142 23.0897 10.8453 23.0897 11.0002V13.0978L23.0778 13.0858Z" fill="black"/>
</svg>
