<svg width="8" height="9" viewBox="0 0 8 9" fill="none" xmlns="http://www.w3.org/2000/svg">
<path d="M4.11577 7.97071C4.94448 7.97071 5.6163 6.48314 5.6163 4.64813C5.6163 2.81313 4.94448 1.32556 4.11577 1.32556C3.28706 1.32556 2.61523 2.81313 2.61523 4.64813C2.61523 6.48314 3.28706 7.97071 4.11577 7.97071Z" stroke="#C4C4C4" stroke-width="0.8" stroke-linecap="round" stroke-linejoin="round"/>
<path d="M7.27736 3.54578H1.03027" stroke="#C4C4C4" stroke-width="0.8" stroke-linecap="round" stroke-linejoin="round"/>
<path d="M4.11557 1.40979C5.93762 1.40979 7.43812 2.91031 7.43812 4.73236C7.43812 6.55442 5.93762 8.05494 4.11557 8.05494C2.29351 8.05494 0.792969 6.55442 0.792969 4.73236C0.792969 2.91031 2.29351 1.40979 4.11557 1.40979Z" stroke="#C4C4C4" stroke-width="0.8" stroke-linecap="round" stroke-linejoin="round"/>
<path d="M7.27736 5.7583H1.03027" stroke="#C4C4C4" stroke-width="0.8" stroke-linecap="round" stroke-linejoin="round"/>
</svg>
