<svg width="9" height="9" viewBox="0 0 9 9" fill="none" xmlns="http://www.w3.org/2000/svg">
<path d="M4.11595 8.5112C6.17534 8.5112 7.75241 6.84991 7.75241 4.87474C7.75241 2.89957 6.09112 1.23828 4.11595 1.23828C2.14078 1.23828 0.479492 2.89957 0.479492 4.87474C0.479492 6.84991 2.14078 8.5112 4.11595 8.5112Z" stroke="#C4C4C4" stroke-width="0.8" stroke-linecap="round" stroke-linejoin="round"/>
<path d="M3.24284 5.73977C4.03138 6.5283 5.06491 7.00296 5.69268 6.45175L5.85346 6.29098C6.01423 6.13021 6.01423 5.81633 5.85346 5.579C5.69269 5.50245 5.53958 5.34167 5.37881 5.26512C5.21804 5.10435 4.98069 5.18856 4.82758 5.26512L4.66679 5.42588C4.42946 5.26511 4.26873 5.112 4.0314 4.95123C3.87063 4.79046 3.71752 4.55313 3.55675 4.3158L3.71749 4.15504C3.87826 3.99427 3.87826 3.75694 3.71749 3.60383C3.55672 3.45071 3.48019 3.28994 3.40363 3.12917C3.24286 2.89184 2.92898 2.89184 2.69165 3.12917L2.53087 3.28994C1.89544 3.92537 2.4543 4.87467 3.24284 5.73977Z" stroke="#C4C4C4" stroke-width="0.8" stroke-linecap="round" stroke-linejoin="round"/>
</svg>
