<svg width="28" height="20" viewBox="0 0 28 20" fill="none" xmlns="http://www.w3.org/2000/svg">
<g clip-path="url(#clip0_21_395)">
<path d="M6.5074 17.2976C6.5111 17.2957 6.51479 17.2957 6.51848 17.2976C6.51479 17.3315 6.52217 17.3617 6.55172 17.3805C6.71419 17.4767 6.88221 17.5652 7.03176 17.6821C7.15731 17.7801 7.34379 17.7782 7.42688 17.9384C7.42873 17.9422 7.44534 17.944 7.44904 17.9403C7.48781 17.9064 7.5155 17.9478 7.53766 17.9629C7.73706 18.0873 7.95678 18.1721 8.16726 18.272C8.32974 18.3511 8.49776 18.4284 8.67131 18.4868C8.8264 18.5396 8.9778 18.6056 9.13105 18.6659C9.17905 18.6847 9.17721 18.7092 9.15136 18.7526C9.02765 18.9542 8.86333 19.1238 8.73409 19.3217C8.62146 19.4951 8.47745 19.6478 8.3722 19.8268C8.29466 19.9587 8.13218 20.0266 8.04356 19.9889C7.91431 19.9361 7.78322 19.955 7.65583 19.9437C7.35672 19.9211 7.06131 19.8664 6.76774 19.8155C6.53141 19.7741 6.29507 19.7251 6.06244 19.6629C5.85565 19.6082 5.64701 19.5573 5.44391 19.4914C5.30728 19.448 5.16881 19.4122 5.03587 19.3538C4.89924 19.2935 4.74784 19.269 4.60937 19.2049C4.50228 19.1559 4.38596 19.1276 4.27887 19.073C4.19394 19.0296 4.09239 19.0183 4.01116 18.9693C3.91145 18.909 3.80067 18.8675 3.69913 18.8223C3.59573 18.7771 3.49418 18.7224 3.39448 18.6696C3.232 18.5848 3.06214 18.5151 2.90889 18.4114C2.76119 18.3097 2.59686 18.2305 2.46023 18.1156C2.37715 18.0477 2.27929 18.0176 2.19805 17.9535C2.04296 17.8329 1.88048 17.7254 1.72724 17.601C1.49644 17.4126 1.26196 17.226 1.05702 17.0111C0.940697 16.8886 0.807761 16.785 0.693288 16.6587C0.582507 16.5362 0.484652 16.3986 0.360947 16.2874C0.333252 16.261 0.333252 16.2234 0.333252 16.1857C0.335098 15.9312 0.340637 15.6787 0.383103 15.4243C0.432954 15.1227 0.416337 14.8155 0.456957 14.5102C0.484652 14.3104 0.512347 14.1088 0.525271 13.9071C0.540042 13.6715 0.571429 13.4359 0.613895 13.2041C0.643437 13.0421 0.621281 12.8743 0.684056 12.7179C0.698827 12.6821 0.726522 12.65 0.722829 12.6048C0.711751 12.4917 0.761602 12.3862 0.756063 12.2731C0.752371 12.1544 0.789297 12.0375 0.816992 11.9244C0.852073 11.7774 0.835456 11.6248 0.881614 11.4797C0.894539 11.4382 0.92408 11.4081 0.925926 11.3591C0.929619 11.2384 0.949929 11.1197 0.977624 11.001C1.02747 10.7899 1.05148 10.5713 1.10502 10.3602C1.1678 10.1076 1.21395 9.85133 1.28412 9.59878C1.35797 9.33304 1.40043 9.05788 1.48352 8.79403C1.51306 8.6998 1.48721 8.59426 1.54076 8.51699C1.5943 8.43972 1.59245 8.35302 1.622 8.27198C1.63307 8.24371 1.622 8.20979 1.63677 8.17963C1.70323 8.04582 1.71985 7.89505 1.76601 7.7537C1.82325 7.58408 1.88418 7.41635 1.92295 7.24107C1.95618 7.09407 2.03927 6.96026 2.05958 6.81514C2.08173 6.65306 2.20913 6.53621 2.20913 6.37225C2.20913 6.36471 2.22021 6.35717 2.22575 6.34963C2.25529 6.31571 2.26083 6.27236 2.27191 6.22901C2.31068 6.06316 2.37899 5.90673 2.44546 5.75219C2.5027 5.62027 2.56917 5.48269 2.60794 5.35264C2.66148 5.17172 2.74457 5.00398 2.80919 4.82871C2.88674 4.61951 2.96982 4.40655 3.08799 4.21243C3.14707 4.11631 3.15815 3.99946 3.22092 3.90711C3.28185 3.81476 3.30216 3.6998 3.37232 3.6131C3.4591 3.50756 3.48864 3.36998 3.55142 3.25125C3.60127 3.15513 3.67697 3.07221 3.71205 2.96478C3.72497 2.9252 3.7379 2.87997 3.76375 2.84793C3.85052 2.73485 3.94653 2.62931 4.00008 2.49173C4.00746 2.471 4.02962 2.46158 4.04808 2.45027C4.12563 2.40315 4.22348 2.36546 4.27518 2.30515C4.40258 2.15626 4.58167 2.09595 4.72569 1.97911C4.75523 1.9546 4.78292 1.92822 4.81985 1.90749C5.00264 1.8076 5.18358 1.70395 5.35898 1.59275C5.41253 1.55883 5.47715 1.55506 5.52331 1.51171C5.61747 1.42502 5.73563 1.37978 5.84272 1.31759C6.00151 1.22524 6.17506 1.15739 6.33939 1.07258C6.49079 0.993429 6.64588 0.921812 6.80836 0.865272C6.9653 0.810617 7.1167 0.737115 7.26994 0.676806C7.41396 0.620266 7.56536 0.584458 7.70752 0.51661C7.88477 0.433685 8.08233 0.394107 8.2725 0.341337C8.49222 0.281028 8.71008 0.211295 8.93534 0.173602C9.11812 0.141563 9.29722 0.0906772 9.48185 0.0624073C9.64433 0.0379068 9.8105 0.0322528 9.97113 -0.00167107C10.0358 -0.0148637 10.0875 0.0134062 10.1207 0.0680613C10.189 0.175487 10.2462 0.288566 10.2905 0.409185C10.3127 0.469494 10.2961 0.527918 10.2296 0.541111C10.0247 0.580688 9.83081 0.65796 9.62956 0.708845C9.43569 0.757846 9.24737 0.816271 9.06089 0.887888C8.85779 0.965159 8.65285 1.03678 8.4479 1.11028C8.25404 1.18001 8.06571 1.26859 7.88108 1.36094C7.81092 1.39486 7.72783 1.40052 7.66875 1.44575C7.41949 1.62479 7.12777 1.72656 6.87113 1.89806C6.67911 2.02622 6.47786 2.1393 6.28769 2.26934C6.07905 2.41069 5.8778 2.56335 5.68024 2.71789C5.64516 2.74616 5.59347 2.73862 5.56946 2.77632C5.52515 2.84416 5.45868 2.89128 5.39591 2.93651C5.1245 3.12875 4.90848 3.38695 4.63522 3.57541C4.62599 3.58295 4.61491 3.59237 4.61122 3.60368C4.5946 3.64703 4.58537 3.67718 4.65183 3.69791C4.73307 3.72241 4.76262 3.65268 4.81801 3.63572C4.98418 3.58107 5.13188 3.48495 5.28144 3.40014C5.45868 3.30025 5.65624 3.23994 5.82795 3.12875C5.8815 3.09482 5.93873 3.0609 5.99597 3.0364C6.11044 2.98928 6.22676 2.94782 6.34308 2.90824C6.38739 2.89316 6.40586 2.84793 6.45017 2.82909C6.72712 2.71412 6.99853 2.58974 7.27548 2.471C7.37334 2.42954 7.47304 2.39562 7.57459 2.36358C7.66875 2.33342 7.76661 2.28254 7.86077 2.24296C8.08787 2.14684 8.32605 2.07145 8.56238 2.00172C8.82086 1.92633 9.07566 1.83399 9.34153 1.77745C9.60556 1.72091 9.86405 1.63798 10.1299 1.58521C10.3736 1.53621 10.6192 1.48532 10.8666 1.45705C11.1805 1.41936 11.4907 1.36094 11.8064 1.33267C11.8987 1.32513 11.991 1.32513 12.0815 1.31571C12.4286 1.27424 12.7757 1.24974 13.1247 1.24597C13.8503 1.23843 14.5741 1.2309 15.2978 1.28178C15.3735 1.28744 15.4511 1.28932 15.5268 1.3044C15.7446 1.35151 15.9699 1.36282 16.1896 1.38355C16.5275 1.41748 16.8598 1.48721 17.194 1.53244C17.4857 1.57202 17.7719 1.64929 18.0581 1.72468C18.2833 1.7831 18.5068 1.84529 18.732 1.90183C18.8594 1.93387 18.9665 2.01868 19.0994 2.02999C19.14 2.03376 19.1844 2.02622 19.225 2.04884C19.3727 2.13176 19.5389 2.16192 19.6958 2.21657C19.7844 2.24673 19.862 2.30138 19.9524 2.32588C20.0115 2.34096 20.0706 2.35227 20.126 2.38054C20.2478 2.44085 20.3752 2.49173 20.4989 2.5445C20.6707 2.618 20.8424 2.68774 21.0122 2.76124C21.1636 2.8272 21.3113 2.90447 21.4646 2.9629C21.6086 3.01755 21.736 3.10236 21.8782 3.16079C21.9705 3.19848 22.0591 3.2569 22.1496 3.30402C22.2585 3.36056 22.3785 3.39825 22.4782 3.4661C22.613 3.55656 22.7607 3.61499 22.9029 3.68661C22.9287 3.6998 22.9749 3.74126 22.997 3.68661C23.0137 3.64514 23.0081 3.59991 22.962 3.5641C22.8807 3.49814 22.7958 3.43972 22.7256 3.35302C22.6185 3.21921 22.4653 3.13063 22.3361 3.01567C22.1939 2.8894 22.0462 2.76312 21.8855 2.65758C21.7822 2.58973 21.7009 2.48985 21.5975 2.42577C21.352 2.27311 21.1285 2.08465 20.8701 1.95272C20.8313 1.93387 20.7981 1.89241 20.7501 1.92633C20.7445 1.92633 20.739 1.92445 20.7334 1.92257C20.7187 1.88864 20.7002 1.8566 20.6688 1.8321C20.5377 1.7341 20.39 1.6606 20.246 1.59275C19.9949 1.47402 19.7438 1.3534 19.489 1.24409C19.2822 1.15362 19.0717 1.07258 18.8576 1.00662C18.8114 0.991544 18.7819 0.950082 18.7357 0.946312C18.5031 0.919927 18.2981 0.797424 18.0729 0.742769C17.8402 0.686229 17.6113 0.599535 17.3749 0.541111C17.2937 0.520379 17.2826 0.484571 17.3177 0.416723C17.3713 0.313067 17.4359 0.211295 17.4746 0.101985C17.5042 0.0190602 17.5485 -0.00732504 17.6242 0.00209825C17.9824 0.0492147 18.3443 0.064292 18.6951 0.169833C18.8982 0.232027 19.1105 0.256527 19.3136 0.32249C19.4853 0.37903 19.6626 0.409185 19.8287 0.480802C19.9081 0.514725 19.9894 0.537341 20.0706 0.567496C20.2017 0.614612 20.3328 0.65796 20.462 0.712615C20.6153 0.776693 20.763 0.853964 20.9181 0.914273C21.1101 0.991544 21.2984 1.07635 21.4812 1.17059C21.6732 1.27047 21.8634 1.37413 22.0536 1.4759C22.0997 1.5004 22.144 1.53056 22.1883 1.55317C22.2936 1.60783 22.3878 1.68133 22.493 1.73975C22.6019 1.80006 22.7127 1.8566 22.8143 1.92822C22.973 2.03941 23.1447 2.12422 23.2961 2.24673C23.3811 2.31457 23.4845 2.35792 23.5399 2.45969C23.5436 2.46723 23.5528 2.48042 23.5565 2.47854C23.658 2.45215 23.6599 2.5445 23.6913 2.59727C23.7817 2.75182 23.8741 2.90636 23.959 3.06467C24.0495 3.23617 24.1215 3.41898 24.2212 3.58295C24.343 3.78272 24.4187 4.00511 24.5332 4.20866C24.6126 4.35378 24.6735 4.50832 24.7308 4.66474C24.7769 4.79102 24.8397 4.90787 24.8895 5.03037C24.9819 5.25841 25.076 5.48646 25.1646 5.7145C25.2551 5.9482 25.329 6.18755 25.4213 6.42125C25.4878 6.58898 25.5376 6.76237 25.5967 6.93387C25.6484 7.08465 25.713 7.23353 25.7499 7.38808C25.785 7.5332 25.8367 7.67266 25.8736 7.81589C25.9161 7.98363 25.9881 8.14759 26.0213 8.31533C26.0675 8.54337 26.1284 8.76953 26.1894 8.99192C26.2337 9.15212 26.2688 9.3142 26.3168 9.47439C26.3888 9.71375 26.4165 9.9644 26.4866 10.2056C26.5328 10.3696 26.566 10.5392 26.5956 10.7051C26.638 10.9444 26.6916 11.1838 26.7285 11.425C26.7562 11.6135 26.7894 11.8001 26.83 11.9866C26.8485 12.0715 26.8227 12.16 26.854 12.2373C26.9279 12.4107 26.9205 12.5973 26.9519 12.7763C26.9925 13.0062 27.0036 13.2399 27.0387 13.4718C27.0793 13.7394 27.1291 14.0089 27.1328 14.2784C27.1365 14.4819 27.2122 14.6723 27.2048 14.8777C27.2012 14.9625 27.2048 15.053 27.2141 15.1397C27.2547 15.4846 27.2861 15.8295 27.2879 16.1762C27.2879 16.261 27.2565 16.3289 27.2012 16.3741C27.0017 16.5343 26.8651 16.7548 26.6731 16.9207C26.6343 16.9546 26.5956 16.9904 26.5605 17.0262C26.4737 17.1148 26.3481 17.1695 26.3094 17.3033H26.3112C26.2872 17.3014 26.2595 17.2938 26.2392 17.3108C26.1487 17.39 26.0324 17.4446 25.9567 17.5294C25.7906 17.7179 25.5708 17.8253 25.3825 17.9817C25.2717 18.0741 25.148 18.1608 25.0096 18.2211C24.9412 18.2512 24.8508 18.2739 24.8046 18.3266C24.7215 18.4171 24.6126 18.4623 24.5166 18.5151C24.2526 18.6621 23.9904 18.8223 23.7042 18.9184C23.5362 18.975 23.3848 19.0654 23.2204 19.1295C22.9804 19.2218 22.7367 19.3067 22.4967 19.3952C22.253 19.4838 22 19.5441 21.7489 19.6101C21.4664 19.6836 21.1839 19.7571 20.8978 19.8117C20.8405 19.8231 20.7796 19.8117 20.726 19.8306C20.5636 19.8909 20.39 19.9022 20.222 19.9135C20.0872 19.9229 19.9506 19.9305 19.8232 19.9644C19.6921 20.0002 19.561 19.9324 19.4355 19.9889C19.4078 20.0002 19.3948 19.9719 19.3764 19.955C19.2988 19.8834 19.2361 19.7986 19.177 19.7119C19.0607 19.5385 18.9185 19.3839 18.804 19.2068C18.7745 19.1597 18.7523 19.0786 18.6655 19.0899C18.6563 18.9674 18.5714 18.8901 18.5012 18.8053C18.4384 18.73 18.444 18.6678 18.5381 18.6395C18.6545 18.6056 18.7671 18.5641 18.8742 18.5094C18.9425 18.4755 19.02 18.4623 19.0865 18.4265C19.2545 18.3379 19.4336 18.2757 19.6016 18.1891C19.8213 18.076 20.0503 17.9817 20.2626 17.8517C20.4842 17.7179 20.7131 17.5954 20.9291 17.4522C21.0916 17.3447 21.2541 17.2392 21.4166 17.1336C21.5458 17.0507 21.6548 16.9433 21.7858 16.8604C21.8357 16.8283 21.9262 16.8038 21.9114 16.7058C22.0665 16.6663 22.1791 16.5532 22.2954 16.4533C22.373 16.3873 22.4505 16.3157 22.5225 16.2384C22.6776 16.0707 22.8863 15.9576 23.0192 15.7616C23.069 15.6881 23.1761 15.6674 23.2112 15.5958C23.2906 15.4356 23.4789 15.3715 23.538 15.1981C23.5399 15.1924 23.5473 15.1906 23.5528 15.1868C23.6119 15.1566 23.6266 15.0944 23.6599 15.0436C23.5362 15.004 23.5306 14.9964 23.4475 15.0869C23.2925 15.2565 23.0857 15.3451 22.9084 15.4808C22.7367 15.6127 22.5447 15.7202 22.3619 15.837C22.1071 15.9972 21.8542 16.1574 21.5735 16.2629C21.5495 16.2724 21.5329 16.2874 21.5255 16.3138C21.5181 16.3383 21.4997 16.3553 21.4757 16.3666C21.0824 16.5343 20.7039 16.736 20.3088 16.8981C19.9709 17.0375 19.6219 17.145 19.2859 17.2882C19.2545 17.3014 19.225 17.324 19.1936 17.3278C19.0053 17.356 18.828 17.4295 18.6434 17.4729C18.4274 17.5238 18.2169 17.5973 17.999 17.6406C17.8199 17.6764 17.6371 17.7009 17.4617 17.7537C17.2549 17.8178 17.0352 17.8159 16.8247 17.8724C16.7324 17.8969 16.6327 17.9026 16.5349 17.9101C16.4185 17.9195 16.3096 17.9686 16.1933 17.9686C15.9994 17.9686 15.8074 17.993 15.6172 18.0138C15.3255 18.0458 15.0319 18.0628 14.7402 18.0797C14.3691 18.0986 13.998 18.0929 13.6269 18.1024C13.4459 18.108 13.2668 18.076 13.0841 18.0816C12.8643 18.0873 12.6446 18.0609 12.4249 18.0477C12.0833 18.0289 11.7436 17.9968 11.4039 17.9516C11.1399 17.9158 10.874 17.8894 10.6118 17.8347C10.4918 17.8102 10.3699 17.797 10.2499 17.7744C9.95636 17.7179 9.66464 17.6576 9.37661 17.5765C9.14951 17.5125 8.92057 17.4408 8.69162 17.3824C8.36851 17.3014 8.06756 17.1619 7.74999 17.0733C7.53581 17.0149 7.33826 16.9018 7.12777 16.8227C6.93575 16.7511 6.74927 16.6587 6.56649 16.5645C6.30431 16.4326 6.04951 16.2874 5.78549 16.1555C5.64701 16.0858 5.52885 15.9821 5.38483 15.9199C5.27959 15.8747 5.17435 15.8144 5.08572 15.7447C4.93248 15.6259 4.76631 15.526 4.61306 15.4054C4.45243 15.281 4.2678 15.1868 4.12378 15.0379C4.0887 15.0021 4.04439 14.9889 4.00931 15.0247C3.97423 15.0605 3.98715 15.1058 4.02223 15.1416C4.18656 15.3112 4.31026 15.5223 4.50782 15.658C4.52444 15.6693 4.53182 15.6957 4.54844 15.7088C4.61306 15.7635 4.63522 15.8521 4.70722 15.8992C4.77185 15.9407 4.84016 15.9821 4.88632 16.0443C4.98971 16.1857 5.14111 16.2742 5.26667 16.3892C5.50669 16.6116 5.77625 16.8038 6.03659 17.0036C6.06982 17.0281 6.08644 17.0696 6.12521 17.0846C6.19353 17.111 6.2563 17.145 6.31723 17.1883C6.37262 17.2448 6.42617 17.3052 6.5074 17.2976ZM16.2819 9.4612C16.2358 9.45932 16.197 9.47062 16.1748 9.51774C16.1342 9.60443 16.0677 9.67417 16.0197 9.75898C15.9182 9.93802 15.8369 10.1265 15.7612 10.3187C15.7022 10.4695 15.7003 10.6297 15.6468 10.7786C15.6228 10.8464 15.6172 10.9237 15.6191 11.001C15.6228 11.1838 15.6246 11.3647 15.6191 11.5475C15.6135 11.7077 15.6745 11.8528 15.7095 12.0036C15.7483 12.1676 15.8111 12.3278 15.8813 12.4823C15.9182 12.5652 15.9533 12.6463 16.0123 12.716C16.0327 12.7405 16.0474 12.7669 16.0604 12.7952C16.1397 12.9648 16.2764 13.0911 16.4019 13.2173C16.533 13.3493 16.6844 13.468 16.858 13.5509C17.0278 13.632 17.194 13.7092 17.3749 13.7639C17.5836 13.8261 17.7959 13.794 18.0064 13.7959C18.1079 13.7959 18.2132 13.7695 18.3129 13.7413C18.5178 13.6828 18.7098 13.5886 18.8908 13.4736C18.9296 13.4491 18.9462 13.4209 18.9628 13.3851C18.9905 13.3832 19.02 13.3888 19.0422 13.37C19.1382 13.2889 19.2434 13.2173 19.3247 13.1231C19.4281 13.0025 19.5167 12.8687 19.6016 12.733C19.7549 12.4898 19.8546 12.2203 19.9266 11.9414C19.9377 11.8962 19.9377 11.8491 19.9487 11.8038C20.0281 11.4646 20.0466 11.1216 19.969 10.7842C19.9358 10.6372 19.9875 10.4601 19.849 10.3413C19.8453 10.3376 19.8472 10.33 19.8472 10.3225C19.7567 9.93802 19.5315 9.63082 19.2859 9.34247C19.1511 9.18416 18.9813 9.06165 18.7948 8.96365C18.6803 8.90523 18.5714 8.82984 18.4495 8.79403C18.2132 8.7243 17.9713 8.70734 17.7239 8.70545C17.4673 8.70357 17.2272 8.76388 17.0038 8.86942C16.7527 8.98815 16.5164 9.13892 16.3262 9.35378C16.2967 9.38581 16.2801 9.41785 16.2819 9.4612ZM11.967 11.1913C11.9744 11.0895 11.9523 10.9199 11.9227 10.756C11.7805 9.99267 11.4187 9.37451 10.7429 8.98627C10.2167 8.68284 9.66095 8.65834 9.10151 8.87696C8.68239 9.04092 8.35743 9.33493 8.11002 9.71186C7.74076 10.2773 7.60967 10.903 7.68167 11.5739C7.73522 12.0715 7.90323 12.5219 8.20603 12.9177C8.58084 13.4077 9.07012 13.7073 9.6831 13.7526C10.2795 13.7959 10.7964 13.5792 11.2156 13.1514C11.7233 12.6331 11.9523 11.9885 11.967 11.1913Z" fill="white"/>
</g>
<defs>
<clipPath id="clip0_21_395">
<rect width="26.9565" height="20" fill="white" transform="translate(0.333252)"/>
</clipPath>
</defs>
</svg>
