<svg width="28" height="28" viewBox="0 0 28 28" fill="none" xmlns="http://www.w3.org/2000/svg">
<path d="M18.4952 18.2352C17.3645 18.2352 16.4426 17.3135 16.4426 16.1826C16.4426 15.052 17.3645 14.1301 18.4952 14.1301C19.626 14.1301 20.5479 15.052 20.5479 16.1826C20.5479 17.3135 19.626 18.2352 18.4952 18.2352ZM18.8577 21.6038C17.4552 23.0023 14.7722 23.1127 13.9844 23.1127C13.1965 23.1127 10.5096 23.0023 9.11092 21.6038C8.90231 21.395 8.90231 21.0601 9.11092 20.8512C9.31984 20.6424 9.65469 20.6424 9.86362 20.8512C10.7459 21.7338 12.6331 22.049 13.9844 22.049C15.3318 22.049 17.2227 21.7338 18.1054 20.8512C18.314 20.6424 18.6488 20.6424 18.8577 20.8512C19.0627 21.0601 19.0627 21.395 18.8577 21.6038ZM7.41293 16.1828C7.41293 15.0521 8.33482 14.1303 9.46564 14.1303C10.5963 14.1303 11.5182 15.0521 11.5182 16.1828C11.5182 17.3135 10.5963 18.2355 9.46564 18.2355C8.33482 18.2352 7.41293 17.3135 7.41293 16.1828ZM27.1113 14.1303C27.1113 12.5425 25.827 11.2582 24.2393 11.2582C23.4632 11.2582 22.7617 11.5653 22.2458 12.0659C20.2838 10.6476 17.5774 9.73357 14.5634 9.62719L15.8714 3.4694L20.146 4.37959C20.1973 5.46699 21.0875 6.33376 22.1869 6.33376C23.3214 6.33376 24.2394 5.41572 24.2394 4.28106C24.2394 3.14656 23.3214 2.22852 22.1869 2.22852C21.3791 2.22852 20.6897 2.69731 20.3548 3.37487L15.5798 2.35845C15.4459 2.33089 15.3081 2.35477 15.1937 2.42943C15.0797 2.50425 15.0007 2.61848 14.9733 2.75243C14.9733 2.75243 13.5392 9.58393 13.5392 9.62334C10.4702 9.70201 7.71238 10.6201 5.71896 12.058C5.2029 11.5617 4.50547 11.2582 3.73338 11.2582C2.14563 11.2582 0.861328 12.5463 0.861328 14.1303C0.861328 15.2963 1.55859 16.301 2.55931 16.75C2.51605 17.0339 2.49234 17.3251 2.49234 17.6208C2.49234 22.041 7.63756 25.6223 13.9844 25.6223C20.3311 25.6223 25.4763 22.041 25.4763 17.6208C25.4763 17.3292 25.4528 17.0416 25.4095 16.758C26.4062 16.3089 27.1113 15.3043 27.1113 14.1303Z" fill="white"/>
</svg>
