<svg width="26" height="20" viewBox="0 0 26 20" fill="none" xmlns="http://www.w3.org/2000/svg">
<path d="M25.9763 2.36906C25.2762 3.38888 24.4172 4.25824 23.3994 4.97712C23.4095 5.16992 23.4145 5.38783 23.4145 5.63085C23.4145 6.98116 23.2134 8.3331 22.8114 9.68667C22.4093 11.0403 21.7951 12.3359 20.9688 13.5735C20.1425 14.8112 19.1583 15.9076 18.0161 16.8629C16.8738 17.8181 15.5008 18.5798 13.897 19.1479C12.2932 19.716 10.5744 20 8.74054 20C5.87847 20 3.24279 19.2434 0.833496 17.7301C1.26112 17.7767 1.67124 17.8 2.06387 17.8C4.45489 17.8 6.59046 17.0789 8.47057 15.6365C7.35574 15.6165 6.35733 15.2804 5.47533 14.6283C4.59333 13.9762 3.98636 13.143 3.65442 12.1286C3.98252 12.1898 4.30635 12.2204 4.6259 12.2204C5.08588 12.2204 5.53848 12.1616 5.98372 12.0441C4.79399 11.8108 3.80701 11.2305 3.02277 10.3033C2.23856 9.37614 1.84646 8.30599 1.84646 7.09287V7.03035C2.57672 7.4263 3.35566 7.63691 4.18328 7.66219C3.47849 7.20209 2.9197 6.60209 2.50691 5.86221C2.09408 5.12233 1.88767 4.32166 1.88767 3.46018C1.88767 2.5516 2.12017 1.70555 2.58517 0.922019C3.87898 2.47678 5.4467 3.71939 7.28834 4.64986C9.13 5.58033 11.1057 6.09709 13.2156 6.20013C13.1256 5.83289 13.0805 5.44966 13.0804 5.05044C13.0804 3.65649 13.5841 2.46626 14.5916 1.47976C15.5991 0.493253 16.8146 0 18.2381 0C19.7284 0 20.9838 0.531406 22.0041 1.59422C23.1699 1.3681 24.2614 0.959106 25.2787 0.36724C24.8868 1.57511 24.1316 2.50689 23.013 3.1626C24.0411 3.04297 25.0288 2.77846 25.9763 2.36906H25.9763Z" fill="white"/>
</svg>
