<svg width="10" height="10" viewBox="0 0 10 10" fill="none" xmlns="http://www.w3.org/2000/svg">
<circle cx="5" cy="5" r="5" fill="#646464"/>
<path fill-rule="evenodd" clip-rule="evenodd" d="M4.01916 2.01773C4.00008 2.02629 3.97086 2.04999 3.95421 2.07038C3.87149 2.17171 3.92041 2.33354 4.04407 2.36764L4.09366 2.38131V2.56648V2.75166L3.87469 2.75186C3.61493 2.7521 3.53912 2.76556 3.40051 2.83609C3.21249 2.93175 3.0612 3.13288 3.01862 3.34379C2.99379 3.46673 2.99379 6.91433 3.01862 7.03728C3.04478 7.16685 3.11799 7.30426 3.21229 7.40076C3.35553 7.54736 3.50507 7.61617 3.70307 7.62659L3.81873 7.63268L3.82254 7.75921C3.82666 7.89589 3.83672 7.92229 3.90467 7.97458C3.94871 8.00847 4.05662 8.00847 4.10066 7.97458C4.16879 7.92215 4.17867 7.89605 4.18282 7.75756L4.18668 7.62941H5.00367H5.82066L5.82452 7.75756C5.82867 7.89605 5.83856 7.92215 5.90668 7.97458C5.95073 8.00847 6.05863 8.00847 6.10268 7.97458C6.1708 7.92215 6.18069 7.89605 6.18484 7.75756L6.18869 7.62941L6.27015 7.62921C6.59141 7.6284 6.8777 7.41171 6.97477 7.0959L7 7.01382V5.19053V3.36724L6.97477 3.28516C6.91613 3.09439 6.77616 2.92323 6.60756 2.83616C6.47152 2.7659 6.39378 2.7521 6.13265 2.75186L5.91368 2.75166V2.56648V2.38131L5.96327 2.36764C6.12403 2.32332 6.13936 2.08342 5.98567 2.01723C5.93159 1.99394 4.0711 1.99441 4.01916 2.01773ZM5.54968 2.56405V2.75166H5.00367H4.45767V2.56405V2.37645H5.00367H5.54968V2.56405ZM4.19334 3.62721C4.20969 3.63979 4.23362 3.66466 4.24652 3.68247C4.26992 3.71478 4.26998 3.7184 4.26998 5.19053C4.26998 6.66266 4.26992 6.66629 4.24652 6.69859C4.20195 6.76011 4.1656 6.77932 4.09366 6.77932C4.02173 6.77932 3.98537 6.76012 3.94081 6.69859C3.91745 6.66636 3.91734 6.65974 3.91407 5.22192C3.91228 4.42756 3.91377 3.76064 3.91737 3.73986C3.92549 3.69316 3.97305 3.63329 4.01916 3.61172C4.0652 3.5902 4.15569 3.59824 4.19334 3.62721ZM5.10335 3.62721C5.1197 3.63979 5.14363 3.66466 5.15653 3.68247C5.17993 3.71478 5.17999 3.7184 5.17999 5.19053C5.17999 6.66266 5.17993 6.66629 5.15653 6.69859C5.11196 6.76011 5.07561 6.77932 5.00367 6.77932C4.93174 6.77932 4.89538 6.76012 4.85081 6.69859C4.82746 6.66636 4.82735 6.65974 4.82408 5.22192C4.82228 4.42756 4.82377 3.76064 4.82738 3.73986C4.8355 3.69316 4.88306 3.63329 4.92916 3.61172C4.97521 3.5902 5.0657 3.59824 5.10335 3.62721ZM6.01336 3.62721C6.0297 3.63979 6.05364 3.66466 6.06654 3.68247C6.08994 3.71478 6.08999 3.7184 6.08999 5.19053C6.08999 6.66266 6.08994 6.66629 6.06654 6.69859C6.02197 6.76011 5.98561 6.77932 5.91368 6.77932C5.84174 6.77932 5.80539 6.76012 5.76082 6.69859C5.73747 6.66636 5.73735 6.65974 5.73409 5.22192C5.73229 4.42756 5.73378 3.76064 5.73739 3.73986C5.74551 3.69316 5.79307 3.63329 5.83917 3.61172C5.88522 3.5902 5.97571 3.59824 6.01336 3.62721Z" fill="white"/>
</svg>
