<svg width="10" height="10" viewBox="0 0 10 10" fill="none" xmlns="http://www.w3.org/2000/svg">
<circle cx="5" cy="5" r="5" fill="#646464"/>
<path d="M2.68562 7.55556C2.68562 7.55556 2.22266 7.55556 2.22266 7.09259C2.22266 6.62963 2.68562 5.24074 5.00043 5.24074C7.31525 5.24074 7.77821 6.62963 7.77821 7.09259C7.77821 7.55556 7.31525 7.55556 7.31525 7.55556H2.68562ZM5.00043 4.77778C5.36879 4.77778 5.72206 4.63145 5.98253 4.37098C6.24299 4.11051 6.38932 3.75725 6.38932 3.38889C6.38932 3.02053 6.24299 2.66726 5.98253 2.4068C5.72206 2.14633 5.36879 2 5.00043 2C4.63208 2 4.27881 2.14633 4.01834 2.4068C3.75787 2.66726 3.61155 3.02053 3.61155 3.38889C3.61155 3.75725 3.75787 4.11051 4.01834 4.37098C4.27881 4.63145 4.63208 4.77778 5.00043 4.77778Z" fill="white"/>
</svg>
