<svg width="56" height="56" viewBox="0 0 56 56" fill="none" xmlns="http://www.w3.org/2000/svg">
<circle cx="27.5872" cy="27.5872" r="27.5872" fill="#454545"/>
<path d="M27.8156 13.1575C27.7356 13.1938 25.9038 13.9789 23.7448 14.9094C21.1496 16.0216 19.7612 16.654 19.6594 16.7704L19.4922 16.9521V20.6086C19.4922 23.4945 19.514 24.3959 19.6012 24.8757C19.8847 26.5186 20.7062 28.1396 21.8402 29.3173C22.2327 29.7244 27.205 33.9188 27.7066 34.2677C27.8011 34.3331 27.9973 34.3913 28.1427 34.3913C28.2881 34.3913 28.4844 34.3331 28.5789 34.2677C29.0805 33.9188 34.0527 29.7244 34.4453 29.3173C35.3757 28.3577 36.1681 26.9329 36.5534 25.559L36.7497 24.8321L36.7787 20.8994L36.8005 16.9594L36.6333 16.7776C36.4371 16.5595 28.6225 13.1647 28.2154 13.1211C28.0773 13.1066 27.8956 13.1211 27.8156 13.1575ZM31.8356 16.1525L35.4194 17.7008L35.3976 21.1174C35.3685 24.3523 35.3612 24.5704 35.2158 25.101C34.8814 26.2932 34.3071 27.3618 33.5584 28.1978C33.3694 28.4013 32.0755 29.5281 30.6797 30.6912L28.1427 32.8066L25.6057 30.6912C24.21 29.5281 22.9161 28.4013 22.7271 28.1978C21.9783 27.3618 21.404 26.2932 21.0696 25.101C20.9243 24.5704 20.917 24.3523 20.8879 21.1247L20.8661 17.7081L24.4862 16.1307C26.478 15.2656 28.1427 14.5677 28.1791 14.5823C28.2227 14.5968 29.8656 15.3019 31.8356 16.1525Z" fill="white"/>
<path d="M32.6885 18.7624C32.5681 18.8148 31.2653 20.0216 29.7874 21.4383L27.1162 24.0199L25.8354 22.813C24.6311 21.6692 24.5436 21.6062 24.1166 21.6062C23.4379 21.6062 23.0547 21.963 23.0547 22.5927V23.0754L24.8172 24.7544C26.5579 26.423 26.5798 26.4335 27.0615 26.4335H27.5432L30.8274 23.2853C34.035 20.2105 34.1117 20.1266 34.1117 19.7173C34.1117 19.0247 33.3235 18.5 32.6885 18.7624Z" fill="white"/>
<path d="M41.3012 23.3489C40.5743 23.458 39.9273 23.9305 39.5711 24.6138L39.3748 24.9773L39.353 27.3107L39.3312 29.6442L39.0623 29.5497C38.4153 29.3171 37.5357 29.4625 36.9323 29.8914C36.8088 29.9786 36.1327 30.9164 35.4203 31.9849L34.1264 33.9186L33.5884 34.1294C31.9964 34.74 30.7534 36.0267 30.2082 37.626C29.9392 38.4038 29.8811 39.6832 30.0701 40.6355C30.1864 41.2534 30.1864 41.2897 30.0628 41.486C29.9392 41.6677 29.9247 41.8858 29.9029 43.6305C29.8883 44.8808 29.9101 45.6804 29.961 45.8694C30.1064 46.4074 29.9319 46.3856 34.6861 46.3856H38.9169L39.1277 46.1747L39.3385 45.9639V43.8413C39.3385 42.6564 39.3094 41.6677 39.2731 41.595C39.2149 41.4933 39.6802 40.7445 41.6356 37.8222L44.0636 34.173V29.7896C44.0636 25.0427 44.0563 24.9846 43.6638 24.3594C43.1985 23.6179 42.2317 23.2036 41.3012 23.3489ZM42.1009 24.8319C42.2099 24.89 42.3771 25.0282 42.4571 25.1299C42.6097 25.3189 42.6097 25.3698 42.6097 29.5497V33.7732L40.1381 37.4951L37.6665 41.2243H34.657H31.6475L31.5748 40.8826C31.3785 39.9885 31.3277 39.4942 31.3713 39.0508C31.4658 38.0258 31.8656 37.1971 32.6071 36.4556C33.1741 35.8959 33.5666 35.6487 34.3372 35.3725C34.6134 35.2707 34.9042 35.1544 34.9841 35.1108C35.0641 35.0672 35.7329 34.1294 36.4598 33.0245C37.7974 30.9963 37.9428 30.8291 38.3426 30.8291C38.8006 30.8291 39.2004 31.3671 39.0695 31.7959C39.0332 31.9268 38.3426 33.0172 37.5357 34.2239C36.7288 35.4306 36.0527 36.4992 36.0237 36.6083C35.8855 37.168 36.5979 37.6623 37.0777 37.3279C37.165 37.2625 38.0227 36.034 38.9823 34.6019L40.7197 31.9849V28.7355C40.7197 25.7769 40.7342 25.4643 40.8505 25.2462C41.0977 24.7737 41.6429 24.592 42.1009 24.8319ZM37.9573 43.8049V45.0044H34.6498H31.3422V43.8049V42.6055H34.6498H37.9573V43.8049Z" fill="#ECC115"/>
<path d="M13.8001 23.4434C13.3639 23.6033 12.9714 23.8941 12.7024 24.2721C12.2227 24.9263 12.2227 24.9336 12.2227 29.7968V34.1657L14.3453 37.3497C17.1513 41.5732 17.0859 41.4641 17.0132 41.5441C16.9768 41.5877 16.9477 42.6054 16.9477 43.8121V46.0075L17.1731 46.1965L17.3984 46.3855H21.6074C24.6751 46.3855 25.8673 46.3637 25.9836 46.2983C26.318 46.1238 26.318 46.0947 26.3252 43.8121C26.3252 41.8712 26.3107 41.6241 26.2016 41.5005C26.0853 41.3696 26.0853 41.326 26.2016 40.7227C26.3543 39.923 26.3616 38.8326 26.2089 38.1493C26.1508 37.8585 25.9327 37.2843 25.7219 36.8626C25.402 36.2011 25.2639 36.0121 24.6969 35.4378C24.1517 34.8926 23.9191 34.7182 23.3593 34.4419C22.9886 34.2529 22.5597 34.0639 22.4143 34.0203C22.1671 33.9403 22.0363 33.7732 20.9095 32.0503C20.2335 31.0181 19.5793 30.0803 19.4557 29.9785C19.0631 29.6369 18.5615 29.4479 18.0309 29.4479C17.7619 29.4479 17.413 29.4988 17.2458 29.5569L16.9477 29.6587V27.4488C16.9477 24.9191 16.9114 24.701 16.3371 24.0831C15.8864 23.596 15.3049 23.3416 14.6215 23.3416C14.3235 23.3489 13.9528 23.3925 13.8001 23.4434ZM15.0941 24.8682C15.5666 25.159 15.5666 25.159 15.5666 28.75V31.9849L17.3039 34.6019C18.2635 36.0339 19.1213 37.2624 19.2085 37.3279C19.6883 37.6623 20.4007 37.1679 20.2626 36.6082C20.2335 36.5064 19.5284 35.3942 18.6924 34.1294C17.7183 32.6682 17.1658 31.7741 17.1658 31.6578C17.1658 31.2507 17.5656 30.8291 17.9582 30.8291C18.3435 30.8291 18.5034 31.0181 19.8555 33.0535L21.2221 35.0962L21.9563 35.3724C23.2139 35.8377 24.0063 36.521 24.5079 37.546C24.9586 38.4692 25.0458 39.3269 24.8132 40.5337L24.6896 41.1879L21.6656 41.2097L18.6415 41.2243L16.1263 37.4442L13.6038 33.6641V29.7241C13.6038 27.5506 13.6329 25.6533 13.6693 25.5006C13.8292 24.8318 14.5343 24.5193 15.0941 24.8682ZM24.944 43.8049V45.0043H21.6365H18.3289V43.8049V42.6054H21.6365H24.944V43.8049Z" fill="#ECC115"/>
</svg>
