<svg width="10" height="10" viewBox="0 0 10 10" fill="none" xmlns="http://www.w3.org/2000/svg">
<circle cx="5" cy="5" r="5" fill="#646464"/>
<path fill-rule="evenodd" clip-rule="evenodd" d="M4.13626 2.02547C4.11179 2.03948 4.08003 2.07168 4.06569 2.09701C4.03969 2.14298 4.03961 2.14417 4.03647 2.57075L4.03331 2.99841H3.78406H3.53479V5.27698V7.55556H5.00043H6.46608V5.27698V2.99841H6.21681H5.96755L5.96439 2.57075C5.96126 2.14417 5.96118 2.14298 5.93518 2.09701C5.92084 2.07168 5.88908 2.03948 5.86461 2.02547C5.82248 2.00135 5.77661 2 5.00043 2C4.22426 2 4.17839 2.00135 4.13626 2.02547ZM5.61926 2.71787V2.99841H5.00043H4.38161V2.71787V2.43732H5.00043H5.61926V2.71787ZM2.72054 3.00785C2.48203 3.05813 2.27201 3.31893 2.23222 3.61424C2.22382 3.67663 2.22119 4.18954 2.22341 5.33172L2.22656 6.96025L2.25479 7.05166C2.33317 7.30542 2.49312 7.48164 2.6934 7.53488C2.74506 7.5486 2.83634 7.55516 2.97839 7.55532L3.18738 7.55556V5.27698V2.99841L2.96753 3.00027C2.84661 3.0013 2.73547 3.00471 2.72054 3.00785ZM6.81349 5.27568V7.55556L7.02248 7.55532C7.33193 7.55497 7.44217 7.51601 7.5806 7.35809C7.65765 7.27021 7.70655 7.17965 7.74608 7.05166L7.7743 6.96025L7.77746 5.33172C7.77968 4.18954 7.77705 3.67663 7.76865 3.61424C7.74373 3.42934 7.635 3.22405 7.50724 3.12072C7.47712 3.09634 7.41986 3.06079 7.37998 3.04168C7.31175 3.009 7.29291 3.00662 7.06048 3.00138L6.81349 2.99581V5.27568Z" fill="white"/>
</svg>
