<svg width="73" height="60" viewBox="0 0 73 60" fill="none" xmlns="http://www.w3.org/2000/svg">
<path d="M32.229 41.2158C40.4125 50.3854 51.0774 54.2006 51.0188 56.0535C50.8724 60.9119 30.8602 63.4942 19.9757 50.3562C9.09122 37.2182 32.229 41.2158 32.229 41.2158Z" fill="url(#paint0_linear_21_413)"/>
<path d="M73.0002 27.29C53.7712 17.9307 45.1632 25.1745 38.6413 30.6091C32.1194 36.0438 20.0344 39.1295 15.7963 30.7112C11.5581 22.293 20.4297 18.0547 20.4297 18.0547C20.4297 18.0547 25.9854 26.9909 34.2714 22.4827C29.2866 20.1119 29.5721 13.3714 23.9725 13.6049C26.1757 7.92219 21.5277 3.53799 23.8261 0C13.8053 6.87173 16.9308 13.6122 16.9308 13.6122C16.9308 13.6122 -0.680506 18.5143 0.0221916 35.0298C0.849325 54.4778 25.6706 57.5635 39.688 44.8851C59.2025 27.2243 61.2813 27.1368 73.0002 27.29Z" fill="url(#paint1_linear_21_413)"/>
<path d="M68.1105 27.1076C68.191 29.5878 68.0007 32.0973 67.3785 34.5337C66.7636 36.9775 65.6657 39.3119 64.2456 41.4784C62.8183 43.645 61.0249 45.6146 58.9974 47.3435C56.9698 49.0869 54.6933 50.5605 52.2632 51.786C54.8471 50.9325 57.3724 49.7945 59.7147 48.321C62.0643 46.8547 64.2676 45.0748 66.1707 42.9666C68.0666 40.8584 69.6989 38.4219 70.8334 35.7301C71.968 33.0456 72.6487 30.1641 72.9854 27.2389L68.1105 27.1076Z" fill="url(#paint2_linear_21_413)"/>
<path d="M61.5007 35.4383C62.3334 35.4383 63.0085 34.7655 63.0085 33.9356C63.0085 33.1056 62.3334 32.4328 61.5007 32.4328C60.6679 32.4328 59.9928 33.1056 59.9928 33.9356C59.9928 34.7655 60.6679 35.4383 61.5007 35.4383Z" fill="white"/>
<defs>
<linearGradient id="paint0_linear_21_413" x1="50.3568" y1="64.9289" x2="22.0698" y2="42.7083" gradientUnits="userSpaceOnUse">
<stop stop-color="#D12EA2"/>
<stop offset="1" stop-color="#552EAF"/>
</linearGradient>
<linearGradient id="paint1_linear_21_413" x1="51.6178" y1="49.3032" x2="12.317" y2="11.1273" gradientUnits="userSpaceOnUse">
<stop stop-color="#D12EA2"/>
<stop offset="1" stop-color="#552EAF"/>
</linearGradient>
<linearGradient id="paint2_linear_21_413" x1="67.2038" y1="43.931" x2="59.264" y2="36.2185" gradientUnits="userSpaceOnUse">
<stop stop-color="#D12EA2"/>
<stop offset="1" stop-color="#552E89"/>
</linearGradient>
</defs>
</svg>
