<svg width="54" height="55" viewBox="0 0 54 55" fill="none" xmlns="http://www.w3.org/2000/svg">
<mask id="mask0_5_9451" style="mask-type:alpha" maskUnits="userSpaceOnUse" x="0" y="0" width="54" height="55">
<rect y="0.0928955" width="54" height="54" rx="8" fill="url(#paint0_linear_5_9451)"/>
</mask>
<g mask="url(#mask0_5_9451)">
<g filter="url(#filter0_f_5_9451)">
<circle cx="26" cy="60.0929" r="18" fill="url(#paint1_linear_5_9451)"/>
</g>
</g>
<rect x="0.5" y="0.592896" width="53" height="53" rx="7.5" fill="url(#paint2_linear_5_9451)" stroke="url(#paint3_linear_5_9451)"/>
<path d="M37.4759 13.1364H16.5234C16.0057 13.1364 15.5859 13.5561 15.5859 14.0739V30.0451C15.5859 30.5628 16.0057 30.9826 16.5234 30.9826H26.062V33.8849C24.4162 34.2481 23.1804 35.7165 23.1804 37.4699C23.1804 39.4953 24.8283 41.1432 26.8537 41.1432C28.8792 41.1432 30.5271 39.4953 30.5271 37.4699C30.5271 35.8213 29.4354 34.4232 27.937 33.9599V30.9826H37.4759C37.9936 30.9826 38.4134 30.5628 38.4134 30.0451V14.0739C38.4134 13.5561 37.9936 13.1364 37.4759 13.1364ZM28.6521 37.4699C28.6521 38.4615 27.8454 39.2682 26.8537 39.2682C25.8621 39.2682 25.0554 38.4615 25.0554 37.4699C25.0554 36.4782 25.8621 35.6715 26.8537 35.6715C27.8454 35.6715 28.6521 36.4782 28.6521 37.4699ZM36.5384 29.1076H17.4609V15.0114H36.5384V29.1076Z" fill="url(#paint4_linear_5_9451)"/>
<path d="M20.3077 26.1809C20.5477 26.1809 20.7874 26.0893 20.9707 25.9065L24.0586 22.8184L26.9032 25.6632C27.2696 26.0293 27.863 26.0293 28.2291 25.6632L34.3545 19.5378C34.7206 19.1715 34.7206 18.578 34.3545 18.2119C33.9882 17.8459 33.3947 17.8459 33.0286 18.2119L27.5663 23.6745L24.7217 20.8297C24.3553 20.4636 23.7619 20.4636 23.3958 20.8297L19.6449 24.5806C19.2788 24.9469 19.2788 25.5404 19.6449 25.9065C19.8279 26.0895 20.0677 26.1809 20.3077 26.1809Z" fill="url(#paint5_linear_5_9451)"/>
<defs>
<filter id="filter0_f_5_9451" x="-12" y="22.0929" width="76" height="76" filterUnits="userSpaceOnUse" color-interpolation-filters="sRGB">
<feFlood flood-opacity="0" result="BackgroundImageFix"/>
<feBlend mode="normal" in="SourceGraphic" in2="BackgroundImageFix" result="shape"/>
<feGaussianBlur stdDeviation="10" result="effect1_foregroundBlur_5_9451"/>
</filter>
<linearGradient id="paint0_linear_5_9451" x1="-1.5" y1="0.592895" x2="53.5" y2="54.0929" gradientUnits="userSpaceOnUse">
<stop stop-color="#D9D9D9"/>
<stop offset="1" stop-color="#D9D9D9"/>
</linearGradient>
<linearGradient id="paint1_linear_5_9451" x1="33.455" y1="75.9046" x2="8.13849" y2="58.2202" gradientUnits="userSpaceOnUse">
<stop stop-color="#D12EA2"/>
<stop offset="1" stop-color="#552EAF"/>
</linearGradient>
<linearGradient id="paint2_linear_5_9451" x1="-1.5" y1="0.592895" x2="53.5" y2="54.0929" gradientUnits="userSpaceOnUse">
<stop stop-color="#D9D9D9" stop-opacity="0.04"/>
<stop offset="1" stop-color="#D9D9D9" stop-opacity="0"/>
</linearGradient>
<linearGradient id="paint3_linear_5_9451" x1="54" y1="54.0929" x2="-8.98703" y2="22.5029" gradientUnits="userSpaceOnUse">
<stop stop-color="#D12EA2"/>
<stop offset="0.159682" stop-color="#A12EA7" stop-opacity="0"/>
<stop offset="0.419607" stop-color="#8B2EA9" stop-opacity="0.26"/>
<stop offset="0.665475" stop-color="#812EAA" stop-opacity="0.213989"/>
<stop offset="0.86137" stop-color="#772EAB" stop-opacity="0.04"/>
<stop offset="1" stop-color="#552EAF"/>
</linearGradient>
<linearGradient id="paint4_linear_5_9451" x1="31.7268" y1="39.4408" x2="13.6881" y2="29.1705" gradientUnits="userSpaceOnUse">
<stop stop-color="#D12EA2"/>
<stop offset="1" stop-color="#552EAF"/>
</linearGradient>
<linearGradient id="paint5_linear_5_9451" x1="30.1595" y1="25.6798" x2="24.1836" y2="17.9531" gradientUnits="userSpaceOnUse">
<stop stop-color="#D12EA2"/>
<stop offset="1" stop-color="#552EAF"/>
</linearGradient>
</defs>
</svg>
