<svg width="54" height="55" viewBox="0 0 54 55" fill="none" xmlns="http://www.w3.org/2000/svg">
<mask id="mask0_5_9397" style="mask-type:alpha" maskUnits="userSpaceOnUse" x="0" y="0" width="54" height="55">
<rect y="0.0928955" width="54" height="54" rx="8" fill="url(#paint0_linear_5_9397)"/>
</mask>
<g mask="url(#mask0_5_9397)">
<g filter="url(#filter0_f_5_9397)">
<circle cx="26" cy="60.0929" r="18" fill="url(#paint1_linear_5_9397)"/>
</g>
</g>
<rect x="0.5" y="0.592896" width="53" height="53" rx="7.5" fill="url(#paint2_linear_5_9397)" stroke="url(#paint3_linear_5_9397)"/>
<g clip-path="url(#clip0_5_9397)">
<path d="M41.9649 14.3325C41.8999 13.1408 40.9521 12.1931 39.7604 12.1281C37.3559 11.9967 32.6506 12.1245 28.1513 14.4517C25.8576 15.6381 23.4318 17.6496 21.496 19.9703C21.4721 19.9989 21.4489 20.0277 21.4252 20.0564L17.0319 20.3957C16.3087 20.4516 15.6646 20.8307 15.2646 21.4356L12.2673 25.9691C11.964 26.4279 11.9158 27.0021 12.1382 27.505C12.3608 28.0079 12.818 28.3585 13.3615 28.4427L17.0629 29.0159C17.0499 29.0879 17.0367 29.1598 17.0247 29.2317C16.9015 29.9688 17.1457 30.7267 17.6781 31.259L22.8339 36.4149C23.2753 36.8562 23.8717 37.0996 24.4828 37.0996C24.6087 37.0996 24.7352 37.0892 24.8612 37.0682C24.9332 37.0562 25.0051 37.043 25.077 37.03L25.6503 40.7315C25.7345 41.2749 26.085 41.7322 26.5879 41.9547C26.7971 42.0473 27.0185 42.093 27.239 42.093C27.5485 42.0929 27.8559 42.0028 28.1238 41.8257L32.6573 38.8283C33.2623 38.4283 33.6413 37.7842 33.697 37.0611L34.0364 32.6678C34.0651 32.6441 34.0939 32.6209 34.1225 32.5971C36.4433 30.6612 38.4549 28.2354 39.6412 25.9417C41.9685 21.4422 42.096 16.7369 41.9649 14.3325ZM31.6879 37.362L27.3513 40.2291L26.7925 36.6218C28.6253 36.0829 30.4384 35.2198 32.1657 34.0636L31.9446 36.9256C31.9309 37.1042 31.8372 37.2632 31.6879 37.362ZM24.0768 35.1719L18.921 30.0161C18.7894 29.8845 18.7286 29.6996 18.7585 29.5215C18.9117 28.605 19.1499 27.7324 19.4448 26.9105L27.1808 34.6465C26.1936 35.0001 25.3094 35.2111 24.5714 35.3345C24.393 35.3641 24.2084 35.3035 24.0768 35.1719ZM17.1673 22.1483L20.0292 21.9273C18.8729 23.6545 18.0099 25.4676 17.471 27.3004L13.8637 26.7417L16.7309 22.4051C16.8297 22.2557 16.9888 22.1621 17.1673 22.1483ZM32.9967 31.2471C31.5768 32.4315 30.1985 33.2881 28.928 33.908L20.1846 25.1646C20.9966 23.5061 21.9876 22.1251 22.8458 21.0963C24.6373 18.9486 26.8654 17.0958 28.9589 16.013C33.0883 13.8771 37.4389 13.762 39.6648 13.8832C39.9594 13.8993 40.1937 14.1336 40.2097 14.4283C40.3311 16.6541 40.2158 21.0047 38.0799 25.1341C36.9972 27.2275 35.1444 29.4556 32.9967 31.2471Z" fill="url(#paint4_linear_5_9397)"/>
<path d="M32.5497 25.9352C33.6748 25.935 34.8004 25.5067 35.657 24.6501C36.487 23.8202 36.944 22.7166 36.944 21.5428C36.944 20.3691 36.487 19.2655 35.657 18.4356C33.9436 16.7221 31.1557 16.7222 29.4424 18.4356C28.6124 19.2655 28.1553 20.3691 28.1553 21.5428C28.1553 22.7166 28.6124 23.8202 29.4424 24.6501C30.2992 25.5069 31.4242 25.9353 32.5497 25.9352ZM30.6852 19.6785C31.1992 19.1644 31.8744 18.9074 32.5496 18.9074C33.2248 18.9074 33.9 19.1644 34.414 19.6785C34.912 20.1764 35.1862 20.8385 35.1862 21.5428C35.1862 22.247 34.912 22.9092 34.414 23.4072C33.386 24.4352 31.7132 24.4352 30.6852 23.4072C30.1872 22.9092 29.9129 22.2471 29.9129 21.5428C29.9129 20.8386 30.1872 20.1764 30.6852 19.6785Z" fill="url(#paint5_linear_5_9397)"/>
<path d="M12.8966 36.8158C13.1215 36.8158 13.3465 36.73 13.518 36.5584L16.3875 33.6889C16.7308 33.3456 16.7308 32.7892 16.3875 32.4459C16.0444 32.1027 15.4878 32.1027 15.1446 32.4459L12.2751 35.3154C11.9319 35.6587 11.9319 36.2151 12.2751 36.5584C12.4467 36.73 12.6716 36.8158 12.8966 36.8158Z" fill="url(#paint6_linear_5_9397)"/>
<path d="M19.0172 35.0757C18.674 34.7324 18.1175 34.7324 17.7743 35.0757L12.2574 40.5926C11.9142 40.9358 11.9142 41.4923 12.2574 41.8355C12.4291 42.0071 12.6539 42.0929 12.8789 42.0929C13.1038 42.0929 13.3288 42.0071 13.5003 41.8355L19.0172 36.3186C19.3605 35.9754 19.3605 35.4189 19.0172 35.0757Z" fill="url(#paint7_linear_5_9397)"/>
<path d="M20.4043 37.7053L17.5348 40.5748C17.1915 40.9181 17.1915 41.4745 17.5348 41.8178C17.7064 41.9894 17.9313 42.0752 18.1562 42.0752C18.3811 42.0752 18.6061 41.9894 18.7777 41.8178L21.6472 38.9483C21.9904 38.605 21.9904 38.0485 21.6472 37.7053C21.304 37.3621 20.7475 37.3621 20.4043 37.7053Z" fill="url(#paint8_linear_5_9397)"/>
</g>
<defs>
<filter id="filter0_f_5_9397" x="-12" y="22.0929" width="76" height="76" filterUnits="userSpaceOnUse" color-interpolation-filters="sRGB">
<feFlood flood-opacity="0" result="BackgroundImageFix"/>
<feBlend mode="normal" in="SourceGraphic" in2="BackgroundImageFix" result="shape"/>
<feGaussianBlur stdDeviation="10" result="effect1_foregroundBlur_5_9397"/>
</filter>
<linearGradient id="paint0_linear_5_9397" x1="-1.5" y1="0.592895" x2="53.5" y2="54.0929" gradientUnits="userSpaceOnUse">
<stop stop-color="#D9D9D9"/>
<stop offset="1" stop-color="#D9D9D9"/>
</linearGradient>
<linearGradient id="paint1_linear_5_9397" x1="33.455" y1="75.9046" x2="8.13849" y2="58.2202" gradientUnits="userSpaceOnUse">
<stop stop-color="#D12EA2"/>
<stop offset="1" stop-color="#552EAF"/>
</linearGradient>
<linearGradient id="paint2_linear_5_9397" x1="-1.5" y1="0.592895" x2="53.5" y2="54.0929" gradientUnits="userSpaceOnUse">
<stop stop-color="#D9D9D9" stop-opacity="0.04"/>
<stop offset="1" stop-color="#D9D9D9" stop-opacity="0"/>
</linearGradient>
<linearGradient id="paint3_linear_5_9397" x1="54" y1="54.0929" x2="-8.98703" y2="22.5029" gradientUnits="userSpaceOnUse">
<stop stop-color="#D12EA2"/>
<stop offset="0.159682" stop-color="#A12EA7" stop-opacity="0"/>
<stop offset="0.419607" stop-color="#8B2EA9" stop-opacity="0.26"/>
<stop offset="0.665475" stop-color="#812EAA" stop-opacity="0.213989"/>
<stop offset="0.86137" stop-color="#772EAB" stop-opacity="0.04"/>
<stop offset="1" stop-color="#552EAF"/>
</linearGradient>
<linearGradient id="paint4_linear_5_9397" x1="33.2125" y1="40.2694" x2="12.1154" y2="25.5324" gradientUnits="userSpaceOnUse">
<stop stop-color="#D12EA2"/>
<stop offset="1" stop-color="#552EAF"/>
</linearGradient>
<linearGradient id="paint5_linear_5_9397" x1="34.3697" y1="25.4012" x2="28.191" y2="21.0831" gradientUnits="userSpaceOnUse">
<stop stop-color="#D12EA2"/>
<stop offset="1" stop-color="#552EAF"/>
</linearGradient>
<linearGradient id="paint6_linear_5_9397" x1="15.2896" y1="36.5345" x2="12.0355" y2="34.2615" gradientUnits="userSpaceOnUse">
<stop stop-color="#D12EA2"/>
<stop offset="1" stop-color="#552EAF"/>
</linearGradient>
<linearGradient id="paint7_linear_5_9397" x1="17.1438" y1="41.6507" x2="12.028" y2="38.0772" gradientUnits="userSpaceOnUse">
<stop stop-color="#D12EA2"/>
<stop offset="1" stop-color="#552EAF"/>
</linearGradient>
<linearGradient id="paint8_linear_5_9397" x1="20.5492" y1="41.7939" x2="17.2951" y2="39.5209" gradientUnits="userSpaceOnUse">
<stop stop-color="#D12EA2"/>
<stop offset="1" stop-color="#552EAF"/>
</linearGradient>
<clipPath id="clip0_5_9397">
<rect width="30" height="30" fill="white" transform="translate(12 12.0929)"/>
</clipPath>
</defs>
</svg>
