<svg width="54" height="55" viewBox="0 0 54 55" fill="none" xmlns="http://www.w3.org/2000/svg">
<mask id="mask0_5_9433" style="mask-type:alpha" maskUnits="userSpaceOnUse" x="0" y="0" width="54" height="55">
<rect y="0.0928955" width="54" height="54" rx="8" fill="url(#paint0_linear_5_9433)"/>
</mask>
<g mask="url(#mask0_5_9433)">
<g filter="url(#filter0_f_5_9433)">
<circle cx="26" cy="60.0929" r="18" fill="url(#paint1_linear_5_9433)"/>
</g>
</g>
<rect x="0.5" y="0.592896" width="53" height="53" rx="7.5" fill="url(#paint2_linear_5_9433)" stroke="url(#paint3_linear_5_9433)"/>
<g clip-path="url(#clip0_5_9433)">
<path d="M27 31.5046H29.6471V33.2693H27V31.5046Z" fill="url(#paint4_linear_5_9433)"/>
<path d="M31.4121 31.5045H34.0592V33.2692H31.4121V31.5045Z" fill="url(#paint5_linear_5_9433)"/>
<path d="M35.8232 31.5045H38.4703V33.2692H35.8232V31.5045Z" fill="url(#paint6_linear_5_9433)"/>
<path d="M23.4706 22.6811V20.9164H32.2941V13.8576H23.4706V12.0929H21.7059V13.8576V20.9164V22.6811H18.1765V19.1517H15.5294C13.5833 19.1517 12 20.735 12 22.6811V38.5635C12 40.5096 13.5833 42.0929 15.5294 42.0929H42V22.6811H23.4706ZM30.5294 15.6223V19.1517H23.4706V15.6223H30.5294ZM13.7647 22.6811C13.7647 21.7081 14.5564 20.9164 15.5294 20.9164H16.4118V35.0341C15.5299 35.0092 14.5331 35.018 13.7647 35.5077V22.6811ZM40.2353 40.3282H15.5294C13.1877 40.231 13.1895 36.8951 15.5294 36.7988H18.1765V24.4458H21.7059V29.8917C18.9425 30.9144 19.6048 34.9777 22.5883 35.0341C25.5722 34.9775 26.2336 30.9138 23.4706 29.8917V24.4458H40.2353V40.3282ZM23.4706 32.387C23.4706 32.8736 23.0748 33.2694 22.5882 33.2694C21.4176 33.2209 21.418 31.553 22.5882 31.5047C23.0748 31.5047 23.4706 31.9004 23.4706 32.387Z" fill="url(#paint7_linear_5_9433)"/>
</g>
<defs>
<filter id="filter0_f_5_9433" x="-12" y="22.0929" width="76" height="76" filterUnits="userSpaceOnUse" color-interpolation-filters="sRGB">
<feFlood flood-opacity="0" result="BackgroundImageFix"/>
<feBlend mode="normal" in="SourceGraphic" in2="BackgroundImageFix" result="shape"/>
<feGaussianBlur stdDeviation="10" result="effect1_foregroundBlur_5_9433"/>
</filter>
<linearGradient id="paint0_linear_5_9433" x1="-1.5" y1="0.592895" x2="53.5" y2="54.0929" gradientUnits="userSpaceOnUse">
<stop stop-color="#D9D9D9"/>
<stop offset="1" stop-color="#D9D9D9"/>
</linearGradient>
<linearGradient id="paint1_linear_5_9433" x1="33.455" y1="75.9046" x2="8.13849" y2="58.2202" gradientUnits="userSpaceOnUse">
<stop stop-color="#D12EA2"/>
<stop offset="1" stop-color="#552EAF"/>
</linearGradient>
<linearGradient id="paint2_linear_5_9433" x1="-1.5" y1="0.592895" x2="53.5" y2="54.0929" gradientUnits="userSpaceOnUse">
<stop stop-color="#D9D9D9" stop-opacity="0.04"/>
<stop offset="1" stop-color="#D9D9D9" stop-opacity="0"/>
</linearGradient>
<linearGradient id="paint3_linear_5_9433" x1="54" y1="54.0929" x2="-8.98703" y2="22.5029" gradientUnits="userSpaceOnUse">
<stop stop-color="#D12EA2"/>
<stop offset="0.159682" stop-color="#A12EA7" stop-opacity="0"/>
<stop offset="0.419607" stop-color="#8B2EA9" stop-opacity="0.26"/>
<stop offset="0.665475" stop-color="#812EAA" stop-opacity="0.213989"/>
<stop offset="0.86137" stop-color="#772EAB" stop-opacity="0.04"/>
<stop offset="1" stop-color="#552EAF"/>
</linearGradient>
<linearGradient id="paint4_linear_5_9433" x1="28.8717" y1="33.1621" x2="27.5514" y2="31.7787" gradientUnits="userSpaceOnUse">
<stop stop-color="#D12EA2"/>
<stop offset="1" stop-color="#552EAF"/>
</linearGradient>
<linearGradient id="paint5_linear_5_9433" x1="33.2838" y1="33.162" x2="31.9635" y2="31.7785" gradientUnits="userSpaceOnUse">
<stop stop-color="#D12EA2"/>
<stop offset="1" stop-color="#552EAF"/>
</linearGradient>
<linearGradient id="paint6_linear_5_9433" x1="37.6949" y1="33.162" x2="36.3746" y2="31.7785" gradientUnits="userSpaceOnUse">
<stop stop-color="#D12EA2"/>
<stop offset="1" stop-color="#552EAF"/>
</linearGradient>
<linearGradient id="paint7_linear_5_9433" x1="33.2125" y1="40.2693" x2="12.1154" y2="25.5323" gradientUnits="userSpaceOnUse">
<stop stop-color="#D12EA2"/>
<stop offset="1" stop-color="#552EAF"/>
</linearGradient>
<clipPath id="clip0_5_9433">
<rect width="30" height="30" fill="white" transform="translate(12 12.0929)"/>
</clipPath>
</defs>
</svg>
